<svg width="20" height="21" viewBox="0 0 20 21" fill="none" xmlns="http://www.w3.org/2000/svg">
<path fill-rule="evenodd" clip-rule="evenodd" d="M5 14.5H15C17.7614 14.5 20 16.7386 20 19.5C20 20.0523 19.5523 20.5 19 20.5C18.4872 20.5 18.0645 20.114 18.0067 19.6166L17.9949 19.3237C17.907 17.8072 16.6928 16.593 15.1763 16.5051L15 16.5H5C3.34315 16.5 2 17.8431 2 19.5C2 20.0523 1.55228 20.5 1 20.5C0.447715 20.5 0 20.0523 0 19.5C0 16.8112 2.12231 14.6182 4.78311 14.5046L5 14.5H15H5ZM10 0.5C13.3137 0.5 16 3.18629 16 6.5C16 9.81371 13.3137 12.5 10 12.5C6.68629 12.5 4 9.81371 4 6.5C4 3.18629 6.68629 0.5 10 0.5ZM10 2.5C7.79086 2.5 6 4.29086 6 6.5C6 8.70914 7.79086 10.5 10 10.5C12.2091 10.5 14 8.70914 14 6.5C14 4.29086 12.2091 2.5 10 2.5Z" fill="#9DA9B3"/>
</svg>
