<svg width="80" height="80" viewBox="0 0 80 80" fill="none" xmlns="http://www.w3.org/2000/svg">
<path fill-rule="evenodd" clip-rule="evenodd" d="M16.668 6.66663H56.668C61.9936 6.66663 66.3468 10.8297 66.651 16.0791L66.668 16.6666L66.671 27.2367C70.5534 28.6103 73.3346 32.3137 73.3346 36.6666V43.3333C73.3346 47.6862 70.5534 51.3896 66.671 52.7632L66.668 63.3333C66.668 68.6589 62.5049 73.0122 57.2555 73.3163L56.668 73.3333H16.668C11.3424 73.3333 6.9891 69.1702 6.68494 63.9209L6.66797 63.3333V16.6666C6.66797 11.341 10.831 6.98776 16.0804 6.6836L16.668 6.66663H56.668H16.668ZM56.668 13.3333H16.668C14.9585 13.3333 13.5496 14.6201 13.3571 16.2779L13.3346 16.6666V63.3333C13.3346 65.0427 14.6214 66.4516 16.2792 66.6442L16.668 66.6666H56.668C58.3774 66.6666 59.7863 65.3798 59.9789 63.722L60.0013 63.3333V53.3333H56.668C51.1451 53.3333 46.668 48.8561 46.668 43.3333V36.6666C46.668 31.1438 51.1451 26.6666 56.668 26.6666H60.0013V16.6666C60.0013 14.9572 58.7145 13.5483 57.0567 13.3557L56.668 13.3333ZM63.3346 33.3333H56.668C54.827 33.3333 53.3346 34.8257 53.3346 36.6666V43.3333C53.3346 45.1742 54.827 46.6666 56.668 46.6666H63.3346C65.1756 46.6666 66.668 45.1742 66.668 43.3333V36.6666C66.668 34.8257 65.1756 33.3333 63.3346 33.3333Z" fill="#F8F8F7"/>
</svg>
