<svg width="26" height="24" viewBox="0 0 26 24" fill="none" xmlns="http://www.w3.org/2000/svg">
<path fill-rule="evenodd" clip-rule="evenodd" d="M13.6725 18.754L13.657 18.7953C13.2081 19.9848 13.5087 21.2583 14.4426 22.1213C15.5603 23.1542 16.9818 23.7698 18.6892 23.7698C22.4898 23.7698 25.5709 20.6887 25.5709 16.8881C25.5709 14.8155 24.6547 12.9569 23.205 11.6953C20.1298 15.6844 14.7911 15.7744 13.6727 18.7538L13.6725 18.754Z" fill="#01E1F3"/>
<path d="M12.2724 18.754L12.2879 18.7953C12.7368 19.9848 12.4362 21.2583 11.5023 22.1213C10.3846 23.1542 8.96306 23.7698 7.25567 23.7698C3.45508 23.7698 0.374023 20.6887 0.374023 16.8881C0.374023 14.8155 1.29021 12.9569 2.73991 11.6953C5.81513 15.6844 11.1535 15.7744 12.2722 18.7538L12.2724 18.754Z" fill="#FF0949"/>
<path fill-rule="evenodd" clip-rule="evenodd" d="M24.1112 0.000128107C24.852 -0.0092463 25.4803 0.496767 25.629 1.22255C25.8009 2.0625 25.8915 2.93245 25.8915 3.82343C25.8915 6.78741 24.8924 9.51786 23.2127 11.6969C20.1375 15.686 14.7988 15.776 13.6804 18.7554C13.9256 18.0982 14.1166 17.398 14.2518 16.6689C14.8132 13.6472 14.4205 10.1301 12.9844 7.1076C14.8555 3.16972 18.4984 0.0711653 24.1114 0.000128107H24.1112Z" fill="#3BC359"/>
<path fill-rule="evenodd" clip-rule="evenodd" d="M1.84867 0.000128107C1.10788 -0.0092463 0.479586 0.496767 0.330845 1.22255C0.158981 2.0625 0.0683594 2.93245 0.0683594 3.82343C0.0683594 6.78741 1.06746 9.51786 2.74715 11.6969C5.82238 15.686 11.1608 15.776 12.2795 18.7554C12.0343 18.0982 11.8433 17.398 11.7081 16.6689C11.1466 13.6472 11.5393 10.1301 12.9755 7.1076C11.1046 3.16972 7.46145 0.0711653 1.84867 0.000128107Z" fill="#FFAF34"/>
</svg>
