<svg width="123" height="44" viewBox="0 0 123 44" fill="none" xmlns="http://www.w3.org/2000/svg">
<path fill-rule="evenodd" clip-rule="evenodd" d="M16.2723 43.1116V27.904H12.3486V28.6508C11.1172 27.9071 9.6696 27.4782 8.12074 27.4782C3.63582 27.4782 0 31.0732 0 35.5079C0 39.9422 3.63582 43.5374 8.12074 43.5374C9.6696 43.5374 11.1172 43.1085 12.3486 42.3648V43.1116H16.2723ZM57.4851 34.4298V43.1116H53.5616V23.7672H57.4851V29.7297C58.4182 28.3106 59.9287 27.6007 62.0172 27.6007C65.7153 27.6007 67.7658 30.3699 67.7658 33.8967V43.1118H63.8423V34.429C63.8416 32.6741 62.4188 31.2515 60.6637 31.2515C58.9082 31.2515 57.4851 32.6745 57.4851 34.43V34.4298ZM12.3486 35.5077C12.3486 37.9867 10.6173 39.7962 8.12074 39.7962C5.60611 39.7962 3.92351 37.9946 3.92351 35.5077C3.92351 33.0478 5.63215 31.219 8.12074 31.219C10.5912 31.219 12.3486 33.0562 12.3486 35.5077ZM44.6195 27.478C40.0131 27.478 36.59 30.9019 36.59 35.5077C36.59 40.1139 40.0129 43.5372 44.6195 43.5372C47.4639 43.5372 50.1104 42.0969 51.4937 39.5833L48.0868 37.6367C47.4306 38.9925 46.0517 39.6443 44.5891 39.6443C42.1851 39.6443 40.5135 37.8913 40.5135 35.5077C40.5135 33.1149 42.1688 31.3409 44.5891 31.3409C46.0419 31.3409 47.4102 32.0418 48.0562 33.3786L51.4328 31.4015C50.1037 28.8725 47.4333 27.4777 44.6195 27.4777V27.478ZM70.3208 35.5077C70.3208 40.0799 73.7781 43.5372 78.3503 43.5372C82.8988 43.5372 86.4106 40.0657 86.4106 35.5077C86.4106 30.989 82.86 27.478 78.3503 27.478C73.8166 27.478 70.3208 30.9748 70.3208 35.5077ZM78.3503 39.7049C75.9225 39.7049 74.2443 37.9071 74.2443 35.5077C74.2443 33.1078 75.9225 31.3102 78.3503 31.3102C80.7668 31.3102 82.4871 33.1082 82.4871 35.5077C82.4871 37.9069 80.7672 39.7049 78.3503 39.7049ZM89.178 27.9038V43.1114H93.1017V35.8422C93.1017 33.1001 95.102 31.6233 97.7249 31.9796V27.5998C95.6823 27.5998 93.8252 28.5198 93.1017 30.5196V27.9038H89.178ZM100.006 27.9038V43.1114H103.929V27.9038H100.006ZM106.758 35.5077C106.758 39.942 110.394 43.5372 114.879 43.5372C116.415 43.5372 117.852 43.1153 119.076 42.3829V43.1114H123V27.9038H119.076V28.6321C117.852 27.8998 116.415 27.478 114.879 27.478C110.394 27.478 106.758 31.073 106.758 35.5077ZM114.849 39.7962C112.334 39.7962 110.651 37.9946 110.651 35.5077C110.651 33.0478 112.36 31.219 114.849 31.219C117.319 31.219 119.076 33.0562 119.076 35.5077C119.076 37.9867 117.345 39.7962 114.849 39.7962ZM23.7548 34.4298V43.1116H19.8313V27.904H23.7548V29.7297C24.6878 28.3106 26.1984 27.6007 28.2868 27.6007C31.9849 27.6007 34.0354 30.3699 34.0354 33.8967V43.1118H30.1119V34.429C30.1112 32.6741 28.6884 31.2515 26.9333 31.2515C25.1778 31.2515 23.7548 32.6745 23.7548 34.43V34.4298Z" fill="black"/>
<path fill-rule="evenodd" clip-rule="evenodd" d="M102.672 18.7541L102.657 18.7953C102.208 19.9849 102.508 21.2583 103.442 22.1214C104.56 23.1542 105.981 23.7698 107.689 23.7698C111.489 23.7698 114.571 20.6888 114.571 16.8882C114.571 14.8156 113.654 12.957 112.205 11.6954C109.129 15.6845 103.791 15.7745 102.672 18.7539L102.672 18.7541Z" fill="#01E1F3"/>
<path d="M101.272 18.7541L101.287 18.7953C101.736 19.9849 101.435 21.2583 100.502 22.1214C99.3839 23.1542 97.9623 23.7698 96.2549 23.7698C92.4543 23.7698 89.3733 20.6888 89.3733 16.8882C89.3733 14.8156 90.2895 12.957 91.7392 11.6954C94.8144 15.6845 100.153 15.7745 101.271 18.7539L101.272 18.7541Z" fill="#FF0949"/>
<path fill-rule="evenodd" clip-rule="evenodd" d="M113.111 0.000128107C113.851 -0.0092463 114.48 0.496767 114.629 1.22255C114.8 2.0625 114.891 2.93245 114.891 3.82343C114.891 6.78741 113.892 9.51786 112.212 11.6969C109.137 15.686 103.798 15.776 102.68 18.7554C102.925 18.0982 103.116 17.398 103.251 16.6689C103.813 13.6472 103.42 10.1301 101.984 7.1076C103.855 3.16972 107.498 0.0711653 113.111 0.000128107H113.111Z" fill="#3BC359"/>
<path fill-rule="evenodd" clip-rule="evenodd" d="M90.8484 0.000128107C90.1076 -0.0092463 89.4793 0.496767 89.3306 1.22255C89.1587 2.0625 89.0681 2.93245 89.0681 3.82343C89.0681 6.78741 90.0672 9.51786 91.7469 11.6969C94.8221 15.686 100.161 15.776 101.279 18.7554C101.034 18.0982 100.843 17.398 100.708 16.6689C100.146 13.6472 100.539 10.1301 101.975 7.1076C100.104 3.16972 96.4612 0.0711653 90.8484 0.000128107Z" fill="#FFAF34"/>
</svg>
