<svg width="32" height="32" viewBox="0 0 32 32" fill="none" xmlns="http://www.w3.org/2000/svg">
<path fill-rule="evenodd" clip-rule="evenodd" d="M14.3064 4.58065L14.1899 4.43934C13.6853 3.89861 12.8911 3.85702 12.3419 4.31456L12.2101 4.43934L2.41005 14.9393L2.35209 15.0053L2.27487 15.107L2.17454 15.2739L2.09972 15.443L2.05018 15.601L2.00967 15.8229L2 16L2.0039 16.1129L2.02834 16.3011L2.06963 16.4682L2.13114 16.6348L2.20439 16.7811L2.30756 16.9382L2.41005 17.0607L12.2101 27.5607C12.7568 28.1464 13.6432 28.1464 14.1899 27.5607C14.6946 27.0199 14.7334 26.1691 14.3064 25.5807L14.1899 25.4393L6.7824 17.5H28.6C29.3732 17.5 30 16.8284 30 16C30 15.1716 29.3732 14.5 28.6 14.5H6.7796L14.1899 6.56066C14.6946 6.01993 14.7334 5.16909 14.3064 4.58065L14.1899 4.43934L14.3064 4.58065Z" fill="#353F50"/>
</svg>
