<svg width="26" height="26" viewBox="0 0 26 26" fill="none" xmlns="http://www.w3.org/2000/svg">
<path d="M3.9143 19.2728L4.01636 19.1827L10.8337 12.3663L14.401 15.9327C14.7915 16.3232 15.406 16.3533 15.831 16.0228L15.933 15.9327L20.5837 11.2829L21.9843 12.6827C22.6371 13.3355 23.7331 12.9216 23.8272 12.0398L23.8337 11.9167L23.8318 7.519L23.822 7.42414L23.795 7.29534L23.7688 7.21319L23.7322 7.12484L23.6755 7.01923L23.603 6.91489L23.5163 6.81726C23.478 6.77896 23.4375 6.74409 23.3952 6.7127L23.2747 6.63506L23.1526 6.57716L23.0385 6.53883L22.9112 6.51194L22.847 6.5043L22.7503 6.5H18.417C17.4938 6.5 17.0114 7.56764 17.5685 8.25774L17.651 8.34937L19.0507 9.75L15.167 13.6338L11.5997 10.0673C11.2092 9.67678 10.5947 9.64674 10.1697 9.97718L10.0676 10.0673L2.48429 17.6506C2.06123 18.0737 2.06123 18.7596 2.48429 19.1827C2.87482 19.5732 3.48932 19.6033 3.9143 19.2728Z" fill="#27AE60"/>
</svg>
