<svg width="21" height="20" viewBox="0 0 21 20" fill="none" xmlns="http://www.w3.org/2000/svg">
<path fill-rule="evenodd" clip-rule="evenodd" d="M4.85137 10.351L4.96442 10.2512C5.39593 9.91565 6.00384 9.91565 6.43536 10.2512L6.54841 10.351L6.64823 10.4641C6.98375 10.8956 6.98375 11.5036 6.64823 11.9352L6.54841 12.0482L4.99773 13.6002L16.4997 13.5998C17.1151 13.5998 17.6223 14.063 17.6917 14.6598L17.6997 14.7998L17.6917 14.9399C17.6277 15.4908 17.1906 15.9279 16.6397 15.9919L16.4997 16L4.99773 16.0002L6.54841 17.5516L6.64823 17.6646C7.01426 18.1354 6.98098 18.8161 6.54841 19.2487C6.11583 19.6813 5.43516 19.7146 4.96442 19.3486L4.85137 19.2487L1.25142 15.6485L1.12803 15.5039L1.06326 15.4049L0.992728 15.2634L0.950391 15.145L0.913175 14.9787L0.901367 14.8645L0.901702 14.7349L0.913173 14.6217L0.950494 14.4544L1.00754 14.3025L1.0744 14.1764L1.1413 14.0778L1.2042 14.0013L1.25142 13.9513L4.85137 10.351L4.96442 10.2512L4.85137 10.351ZM16.0358 0.651322L16.1488 0.751155L19.7488 4.35139L19.8403 4.45401L19.9017 4.53847L19.9697 4.655L20.01 4.74246L20.04 4.82347L20.0585 4.88527L20.087 5.02183L20.0985 5.13501L20.0966 5.28966L20.087 5.37885L20.0498 5.54514L19.9934 5.69575L19.937 5.805L19.8722 5.90406L19.8314 5.95566L19.7488 6.04859L16.1488 9.64886C15.6802 10.1175 14.9204 10.1175 14.4518 9.64886C14.0192 9.21624 13.986 8.53552 14.352 8.06473L14.4518 7.95168L16.0025 6.40035L4.50048 6.40009C3.88507 6.40009 3.37787 5.93684 3.30855 5.34004L3.30048 5.19992C3.30048 4.53718 3.83774 3.99992 4.50048 3.99992L16.0025 4.00035L14.4518 2.44833C14.0192 2.01572 13.986 1.335 14.352 0.864212L14.4518 0.751155C14.8483 0.354594 15.4533 0.293585 15.914 0.568127L16.0358 0.651322Z" fill="#F8F8F7"/>
</svg>
