<svg width="44" height="45" viewBox="0 0 44 45" fill="none" xmlns="http://www.w3.org/2000/svg">
<path fill-rule="evenodd" clip-rule="evenodd" d="M20.166 4.16675H23.8327C26.7618 4.16675 29.1561 6.45643 29.3233 9.34358L29.3327 9.66675V11.5001H34.8327C37.8703 11.5001 40.3327 13.9625 40.3327 17.0001V35.3334C40.3327 38.371 37.8703 40.8334 34.8327 40.8334H9.16602C6.12845 40.8334 3.66602 38.371 3.66602 35.3334V17.0001C3.66602 13.9625 6.12845 11.5001 9.16602 11.5001H14.666V9.66675C14.666 6.73767 16.9557 4.34337 19.8428 4.17608L20.166 4.16675H23.8327H20.166ZM36.666 29.8334H7.33268V35.3334C7.33268 36.3459 8.15349 37.1667 9.16602 37.1667H34.8327C35.8452 37.1667 36.666 36.3459 36.666 35.3334V29.8334ZM34.8327 15.1667H9.16602C8.15349 15.1667 7.33268 15.9876 7.33268 17.0001V26.1667H36.666V17.0001C36.666 15.9876 35.8452 15.1667 34.8327 15.1667ZM23.8327 7.83341H20.166C19.2258 7.83341 18.4509 8.54115 18.345 9.45294L18.3327 9.66675V11.5001H25.666V9.66675C25.666 8.72655 24.9583 7.95165 24.0465 7.84575L23.8327 7.83341Z" fill="#3BC359"/>
</svg>
