<svg width="25" height="25" viewBox="0 0 25 25" fill="none" xmlns="http://www.w3.org/2000/svg">
<path fill-rule="evenodd" clip-rule="evenodd" d="M11.5 2.5H13.5C15.0977 2.5 16.4037 3.74892 16.4949 5.32373L16.5 5.5V6.5H19.5C21.1569 6.5 22.5 7.84315 22.5 9.5V19.5C22.5 21.1569 21.1569 22.5 19.5 22.5H5.5C3.84315 22.5 2.5 21.1569 2.5 19.5V9.5C2.5 7.84315 3.84315 6.5 5.5 6.5H8.5V5.5C8.5 3.90232 9.74892 2.59634 11.3237 2.50509L11.5 2.5H13.5H11.5ZM20.5 16.5H4.5V19.5C4.5 20.0523 4.94772 20.5 5.5 20.5H19.5C20.0523 20.5 20.5 20.0523 20.5 19.5V16.5ZM19.5 8.5H5.5C4.94772 8.5 4.5 8.94772 4.5 9.5V14.5H20.5V9.5C20.5 8.94772 20.0523 8.5 19.5 8.5ZM13.5 4.5H11.5C10.9872 4.5 10.5645 4.88604 10.5067 5.38338L10.5 5.5V6.5H14.5V5.5C14.5 4.98716 14.114 4.56449 13.6166 4.50673L13.5 4.5Z" fill="#353F50"/>
</svg>
