<svg width="392" height="75" viewBox="0 0 392 75" fill="none" xmlns="http://www.w3.org/2000/svg">
<rect x="0.5" y="0.5" width="391" height="73.725" rx="5.5" fill="#F8F8F8" fill-opacity="0.92"/>
<g clip-path="url(#clip0_30609_25155)">
<path d="M106.378 52.6885C102.399 52.6885 99.16 49.6116 99.16 45.8314V22.8711L90.9557 24.6555C88.9278 25.1621 87.7119 27.1482 88.2483 29.0924L95.2828 54.0436C95.7499 55.6572 97.3107 56.7251 98.9853 56.7251C99.2994 56.7251 99.6187 56.6879 99.9347 56.609L117.054 52.6885H106.378Z" fill="#B0BEC5"/>
<path d="M128.88 22.437V45.8313C128.88 48.2836 126.791 50.2682 124.21 50.2682H106.378C104.628 50.2682 103.1 49.3486 102.302 47.9932C101.928 47.3639 101.707 46.6218 101.707 45.8313V22.437C101.707 19.9844 103.796 18 106.378 18H124.21C126.791 18 128.88 19.9844 128.88 22.437Z" fill="#ECEFF1"/>
<path d="M113.596 29.293C113.596 31.0753 112.076 32.5199 110.2 32.5199C108.324 32.5199 106.803 31.0753 106.803 29.293C106.803 27.511 108.324 26.0664 110.2 26.0664C112.076 26.0664 113.596 27.511 113.596 29.293Z" fill="#00C48C"/>
<path d="M128.881 37.264V45.8313C128.881 48.2836 126.792 50.2683 124.21 50.2683H106.378C104.629 50.2683 103.1 49.3486 102.302 47.9932L119.132 32.0043C120.287 30.9074 122.189 30.9074 123.344 32.0043L128.881 37.264Z" fill="#144A22"/>
<path d="M123.887 50.268H106.378C104.628 50.268 103.1 49.3483 102.302 47.9929C101.928 47.3637 101.707 46.6216 101.707 45.831V42.1039L106.395 37.651C107.549 36.5538 109.451 36.5538 110.606 37.651L123.887 50.268Z" fill="#4A5568"/>
</g>
<path d="M206.137 31.1753V31.1473C206.137 30.4939 205.973 29.9853 205.647 29.6213C205.32 29.2479 204.872 28.9539 204.303 28.7393C204.48 28.6459 204.643 28.5339 204.793 28.4033C204.951 28.2726 205.087 28.1233 205.199 27.9553C205.32 27.7779 205.413 27.5819 205.479 27.3673C205.553 27.1526 205.591 26.9053 205.591 26.6253V26.5973C205.591 25.8226 205.301 25.2066 204.723 24.7493C204.153 24.2919 203.365 24.0633 202.357 24.0633H197.807V33.8633H202.469C203.019 33.8633 203.519 33.8073 203.967 33.6953C204.424 33.5833 204.811 33.4153 205.129 33.1913C205.455 32.9673 205.703 32.6873 205.871 32.3513C206.048 32.0153 206.137 31.6233 206.137 31.1753ZM203.449 26.9893C203.449 27.3533 203.309 27.6193 203.029 27.7873C202.749 27.9459 202.371 28.0253 201.895 28.0253H199.907V25.9533H202.035C202.492 25.9533 202.842 26.0419 203.085 26.2193C203.327 26.3873 203.449 26.6346 203.449 26.9613V26.9893ZM203.995 30.9093C203.995 31.2733 203.859 31.5439 203.589 31.7213C203.318 31.8893 202.945 31.9733 202.469 31.9733H199.907V29.8173H202.399C202.959 29.8173 203.365 29.9153 203.617 30.1113C203.869 30.2979 203.995 30.5546 203.995 30.8813V30.9093ZM212.208 28.4453V26.2193C211.573 26.1913 211.069 26.3313 210.696 26.6393C210.323 26.9473 210.029 27.3579 209.814 27.8713V26.3593H207.686V33.8633H209.814V31.0913C209.814 30.1859 210.015 29.5186 210.416 29.0893C210.827 28.6599 211.387 28.4453 212.096 28.4453H212.208ZM221.294 30.1253V30.0973C221.294 29.5559 221.191 29.0519 220.986 28.5853C220.78 28.1093 220.496 27.6986 220.132 27.3533C219.777 26.9986 219.352 26.7233 218.858 26.5273C218.363 26.3219 217.826 26.2193 217.248 26.2193C216.66 26.2193 216.118 26.3219 215.624 26.5273C215.129 26.7326 214.7 27.0126 214.336 27.3673C213.972 27.7219 213.687 28.1373 213.482 28.6133C213.276 29.0799 213.174 29.5839 213.174 30.1253V30.1533C213.174 30.6946 213.276 31.2033 213.482 31.6793C213.687 32.1459 213.967 32.5566 214.322 32.9113C214.686 33.2566 215.115 33.5319 215.61 33.7373C216.104 33.9333 216.641 34.0313 217.22 34.0313C217.808 34.0313 218.349 33.9286 218.844 33.7233C219.338 33.5179 219.768 33.2379 220.132 32.8833C220.496 32.5286 220.78 32.1179 220.986 31.6513C221.191 31.1753 221.294 30.6666 221.294 30.1253ZM219.194 30.1533C219.194 30.4333 219.147 30.6993 219.054 30.9513C218.97 31.1939 218.844 31.4086 218.676 31.5953C218.508 31.7819 218.302 31.9313 218.06 32.0433C217.826 32.1459 217.556 32.1973 217.248 32.1973C216.949 32.1973 216.678 32.1413 216.436 32.0293C216.202 31.9173 215.997 31.7679 215.82 31.5813C215.642 31.3853 215.507 31.1659 215.414 30.9233C215.32 30.6713 215.274 30.4053 215.274 30.1253V30.0973C215.274 29.8173 215.316 29.5559 215.4 29.3133C215.493 29.0613 215.624 28.8419 215.792 28.6553C215.96 28.4686 216.16 28.3239 216.394 28.2213C216.636 28.1093 216.912 28.0533 217.22 28.0533C217.509 28.0533 217.775 28.1093 218.018 28.2213C218.26 28.3333 218.47 28.4873 218.648 28.6833C218.825 28.8699 218.96 29.0893 219.054 29.3413C219.147 29.5839 219.194 29.8453 219.194 30.1253V30.1533ZM233.601 26.3593H231.487L230.255 30.9233L228.827 26.3313H226.993L225.579 30.9093L224.375 26.3593H222.219L224.529 33.9193H226.433L227.903 29.3133L229.345 33.9193H231.263L233.601 26.3593ZM240.395 31.5813V31.5533C240.395 31.2079 240.325 30.9139 240.185 30.6713C240.045 30.4286 239.868 30.2233 239.653 30.0553C239.438 29.8873 239.196 29.7473 238.925 29.6353C238.654 29.5139 238.388 29.4113 238.127 29.3273C237.922 29.2619 237.726 29.1966 237.539 29.1313C237.362 29.0659 237.203 29.0006 237.063 28.9353C236.923 28.8606 236.811 28.7859 236.727 28.7113C236.643 28.6273 236.601 28.5339 236.601 28.4313V28.4033C236.601 28.2539 236.666 28.1326 236.797 28.0393C236.928 27.9366 237.124 27.8853 237.385 27.8853C237.656 27.8853 237.968 27.9506 238.323 28.0813C238.678 28.2026 239.042 28.3706 239.415 28.5853L240.227 27.1153C239.816 26.8446 239.364 26.6346 238.869 26.4853C238.384 26.3266 237.903 26.2473 237.427 26.2473C237.044 26.2473 236.685 26.2986 236.349 26.4013C236.022 26.5039 235.733 26.6579 235.481 26.8633C235.238 27.0686 235.042 27.3206 234.893 27.6193C234.753 27.9086 234.683 28.2446 234.683 28.6273V28.6553C234.683 29.0193 234.748 29.3273 234.879 29.5793C235.019 29.8313 235.196 30.0459 235.411 30.2233C235.626 30.3913 235.864 30.5313 236.125 30.6433C236.396 30.7459 236.662 30.8346 236.923 30.9093C237.128 30.9746 237.324 31.0353 237.511 31.0913C237.698 31.1473 237.861 31.2079 238.001 31.2733C238.15 31.3293 238.267 31.3993 238.351 31.4833C238.435 31.5673 238.477 31.6653 238.477 31.7773V31.8053C238.477 31.9733 238.402 32.1086 238.253 32.2113C238.113 32.3139 237.889 32.3653 237.581 32.3653C237.226 32.3653 236.844 32.2906 236.433 32.1413C236.032 31.9919 235.626 31.7679 235.215 31.4693L234.305 32.8693C234.809 33.2613 235.336 33.5506 235.887 33.7373C236.447 33.9146 236.993 34.0033 237.525 34.0033C237.926 34.0033 238.3 33.9566 238.645 33.8633C239 33.7606 239.308 33.6113 239.569 33.4153C239.83 33.2193 240.031 32.9719 240.171 32.6733C240.32 32.3653 240.395 32.0013 240.395 31.5813ZM248.921 30.3213V30.2933C248.921 29.7613 248.846 29.2526 248.697 28.7673C248.557 28.2726 248.333 27.8386 248.025 27.4653C247.726 27.0826 247.348 26.7793 246.891 26.5553C246.433 26.3313 245.892 26.2193 245.267 26.2193C244.716 26.2193 244.212 26.3219 243.755 26.5273C243.307 26.7326 242.919 27.0126 242.593 27.3673C242.266 27.7219 242.009 28.1373 241.823 28.6133C241.645 29.0893 241.557 29.5933 241.557 30.1253V30.1533C241.557 30.7319 241.655 31.2593 241.851 31.7353C242.047 32.2019 242.317 32.6079 242.663 32.9533C243.017 33.2986 243.433 33.5646 243.909 33.7513C244.394 33.9379 244.917 34.0313 245.477 34.0313C246.158 34.0313 246.751 33.9099 247.255 33.6673C247.759 33.4153 248.188 33.0699 248.543 32.6313L247.325 31.5533C247.026 31.8239 246.737 32.0199 246.457 32.1413C246.177 32.2626 245.859 32.3233 245.505 32.3233C245.029 32.3233 244.627 32.2019 244.301 31.9593C243.983 31.7073 243.773 31.3386 243.671 30.8533H248.893C248.902 30.7506 248.907 30.6619 248.907 30.5873C248.916 30.5126 248.921 30.4239 248.921 30.3213ZM246.849 29.5233H243.643C243.727 29.0379 243.904 28.6506 244.175 28.3613C244.455 28.0719 244.819 27.9273 245.267 27.9273C245.715 27.9273 246.074 28.0766 246.345 28.3753C246.615 28.6646 246.783 29.0473 246.849 29.5233ZM258.904 25.5193V23.7553C258.708 23.6899 258.488 23.6386 258.246 23.6013C258.012 23.5639 257.728 23.5453 257.392 23.5453C256.636 23.5453 256.057 23.7413 255.656 24.1333C255.264 24.5159 255.068 25.1226 255.068 25.9533V26.4293H254.186V28.1793H255.068V33.8633H257.196V28.1793H258.89V26.4433H257.168V26.1493C257.168 25.6079 257.424 25.3373 257.938 25.3373C258.124 25.3373 258.292 25.3559 258.442 25.3933C258.591 25.4213 258.745 25.4633 258.904 25.5193ZM262.331 25.5333V23.6433H260.091V25.5333H262.331ZM262.275 33.8633V26.3593H260.147V33.8633H262.275ZM266.5 33.8633V23.6433H264.372V33.8633H266.5ZM275.499 30.3213V30.2933C275.499 29.7613 275.424 29.2526 275.275 28.7673C275.135 28.2726 274.911 27.8386 274.603 27.4653C274.304 27.0826 273.926 26.7793 273.469 26.5553C273.011 26.3313 272.47 26.2193 271.845 26.2193C271.294 26.2193 270.79 26.3219 270.333 26.5273C269.885 26.7326 269.497 27.0126 269.171 27.3673C268.844 27.7219 268.587 28.1373 268.401 28.6133C268.223 29.0893 268.135 29.5933 268.135 30.1253V30.1533C268.135 30.7319 268.233 31.2593 268.429 31.7353C268.625 32.2019 268.895 32.6079 269.241 32.9533C269.595 33.2986 270.011 33.5646 270.487 33.7513C270.972 33.9379 271.495 34.0313 272.055 34.0313C272.736 34.0313 273.329 33.9099 273.833 33.6673C274.337 33.4153 274.766 33.0699 275.121 32.6313L273.903 31.5533C273.604 31.8239 273.315 32.0199 273.035 32.1413C272.755 32.2626 272.437 32.3233 272.083 32.3233C271.607 32.3233 271.205 32.2019 270.879 31.9593C270.561 31.7073 270.351 31.3386 270.249 30.8533H275.471C275.48 30.7506 275.485 30.6619 275.485 30.5873C275.494 30.5126 275.499 30.4239 275.499 30.3213ZM273.427 29.5233H270.221C270.305 29.0379 270.482 28.6506 270.753 28.3613C271.033 28.0719 271.397 27.9273 271.845 27.9273C272.293 27.9273 272.652 28.0766 272.923 28.3753C273.193 28.6646 273.361 29.0473 273.427 29.5233Z" fill="#1F1D2B"/>
<path d="M175.351 41.8633H170.321V48.8633H171.111V45.8133H174.901V45.0933H171.111V42.5933H175.351V41.8633ZM177.653 42.5633V41.7133H176.773V42.5633H177.653ZM177.593 48.8633V43.6933H176.823V48.8633H177.593ZM180.22 48.8633V41.5633H179.45V48.8633H180.22ZM182.467 46.5633H186.567C186.574 46.5166 186.577 46.4733 186.577 46.4333C186.577 46.3933 186.577 46.3566 186.577 46.3233C186.577 45.9433 186.524 45.5866 186.417 45.2533C186.311 44.9199 186.154 44.6299 185.947 44.3833C185.741 44.1366 185.487 43.9433 185.187 43.8033C184.887 43.6566 184.547 43.5833 184.167 43.5833C183.807 43.5833 183.474 43.6533 183.167 43.7933C182.867 43.9333 182.607 44.1266 182.387 44.3733C182.167 44.6133 181.994 44.8999 181.867 45.2333C181.747 45.5599 181.687 45.9099 181.687 46.2833C181.687 46.6833 181.754 47.0499 181.887 47.3833C182.027 47.7166 182.214 48.0033 182.447 48.2433C182.681 48.4766 182.954 48.6599 183.267 48.7933C183.581 48.9199 183.914 48.9833 184.267 48.9833C184.761 48.9833 185.174 48.8966 185.507 48.7233C185.841 48.5433 186.137 48.3066 186.397 48.0133L185.917 47.5833C185.704 47.8033 185.467 47.9799 185.207 48.1133C184.954 48.2466 184.647 48.3133 184.287 48.3133C184.061 48.3133 183.844 48.2766 183.637 48.2033C183.431 48.1233 183.244 48.0099 183.077 47.8633C182.911 47.7099 182.774 47.5266 182.667 47.3133C182.561 47.0933 182.494 46.8433 182.467 46.5633ZM182.467 45.9933C182.494 45.7399 182.554 45.5066 182.647 45.2933C182.741 45.0799 182.861 44.8966 183.007 44.7433C183.154 44.5833 183.324 44.4599 183.517 44.3733C183.711 44.2799 183.921 44.2333 184.147 44.2333C184.407 44.2333 184.634 44.2833 184.827 44.3833C185.027 44.4766 185.194 44.6033 185.327 44.7633C185.467 44.9233 185.574 45.1099 185.647 45.3233C185.727 45.5366 185.777 45.7599 185.797 45.9933H182.467ZM191.973 43.7133V43.2933C191.973 42.5599 192.273 42.1933 192.873 42.1933C193.007 42.1933 193.13 42.2066 193.243 42.2333C193.357 42.2533 193.483 42.2833 193.623 42.3233V41.6533C193.497 41.6066 193.367 41.5733 193.233 41.5533C193.107 41.5333 192.953 41.5233 192.773 41.5233C192.273 41.5233 191.887 41.6699 191.613 41.9633C191.347 42.2566 191.213 42.6866 191.213 43.2533V43.7033H190.503V44.3733H191.213V48.8633H191.983V44.3733H193.613V43.7133H191.973ZM199.567 46.2733C199.567 45.9066 199.501 45.5599 199.367 45.2333C199.234 44.9066 199.047 44.6233 198.807 44.3833C198.567 44.1366 198.281 43.9433 197.947 43.8033C197.621 43.6566 197.264 43.5833 196.877 43.5833C196.484 43.5833 196.121 43.6566 195.787 43.8033C195.461 43.9433 195.177 44.1366 194.937 44.3833C194.697 44.6299 194.511 44.9199 194.377 45.2533C194.244 45.5799 194.177 45.9266 194.177 46.2933C194.177 46.6599 194.244 47.0066 194.377 47.3333C194.511 47.6599 194.697 47.9466 194.937 48.1933C195.177 48.4333 195.461 48.6266 195.787 48.7733C196.114 48.9133 196.471 48.9833 196.857 48.9833C197.244 48.9833 197.604 48.9133 197.937 48.7733C198.271 48.6266 198.557 48.4299 198.797 48.1833C199.037 47.9366 199.224 47.6499 199.357 47.3233C199.497 46.9899 199.567 46.6399 199.567 46.2733ZM198.777 46.2933C198.777 46.5733 198.731 46.8366 198.637 47.0833C198.544 47.3233 198.414 47.5333 198.247 47.7133C198.081 47.8933 197.881 48.0366 197.647 48.1433C197.414 48.2433 197.157 48.2933 196.877 48.2933C196.604 48.2933 196.351 48.2399 196.117 48.1333C195.884 48.0266 195.681 47.8833 195.507 47.7033C195.341 47.5233 195.207 47.3099 195.107 47.0633C195.014 46.8166 194.967 46.5533 194.967 46.2733C194.967 45.9933 195.014 45.7333 195.107 45.4933C195.201 45.2466 195.327 45.0333 195.487 44.8533C195.654 44.6666 195.854 44.5233 196.087 44.4233C196.321 44.3166 196.577 44.2633 196.857 44.2633C197.131 44.2633 197.384 44.3166 197.617 44.4233C197.851 44.5299 198.054 44.6766 198.227 44.8633C198.401 45.0433 198.534 45.2566 198.627 45.5033C198.727 45.7499 198.777 46.0133 198.777 46.2933ZM201.732 46.8033C201.732 46.4166 201.786 46.0766 201.892 45.7833C201.999 45.4833 202.146 45.2333 202.332 45.0333C202.519 44.8333 202.736 44.6833 202.982 44.5833C203.236 44.4833 203.502 44.4333 203.782 44.4333H203.842V43.6033C203.596 43.5966 203.366 43.6266 203.152 43.6933C202.939 43.7599 202.742 43.8599 202.562 43.9933C202.382 44.1199 202.222 44.2733 202.082 44.4533C201.942 44.6333 201.826 44.8299 201.732 45.0433V43.6933H200.962V48.8633H201.732V46.8033ZM209.115 44.6133C208.975 44.3199 208.768 44.0766 208.495 43.8833C208.222 43.6833 207.875 43.5833 207.455 43.5833C207.235 43.5833 207.042 43.6099 206.875 43.6633C206.708 43.7166 206.558 43.7899 206.425 43.8833C206.292 43.9699 206.172 44.0733 206.065 44.1933C205.965 44.3133 205.872 44.4366 205.785 44.5633V43.6933H205.015V48.8633H205.785V45.9133C205.785 45.6733 205.822 45.4566 205.895 45.2633C205.968 45.0633 206.068 44.8899 206.195 44.7433C206.328 44.5966 206.482 44.4833 206.655 44.4033C206.828 44.3233 207.018 44.2833 207.225 44.2833C207.638 44.2833 207.962 44.4199 208.195 44.6933C208.435 44.9599 208.555 45.3366 208.555 45.8233V48.8633H209.315V45.8833C209.315 45.6299 209.352 45.4033 209.425 45.2033C209.505 45.0033 209.608 44.8366 209.735 44.7033C209.868 44.5633 210.022 44.4599 210.195 44.3933C210.368 44.3199 210.552 44.2833 210.745 44.2833C211.165 44.2833 211.492 44.4199 211.725 44.6933C211.965 44.9599 212.085 45.3433 212.085 45.8433V48.8633H212.855V45.6633C212.855 45.0166 212.685 44.5099 212.345 44.1433C212.005 43.7699 211.535 43.5833 210.935 43.5833C210.708 43.5833 210.502 43.6099 210.315 43.6633C210.135 43.7166 209.972 43.7899 209.825 43.8833C209.678 43.9766 209.545 44.0866 209.425 44.2133C209.312 44.3399 209.208 44.4733 209.115 44.6133ZM216.397 44.3033C216.883 44.3033 217.26 44.4233 217.527 44.6633C217.8 44.8966 217.937 45.2466 217.937 45.7133V45.8933C217.703 45.8266 217.463 45.7733 217.217 45.7333C216.97 45.6933 216.68 45.6733 216.347 45.6733C216.02 45.6733 215.72 45.7099 215.447 45.7833C215.18 45.8566 214.947 45.9633 214.747 46.1033C214.553 46.2433 214.403 46.4199 214.297 46.6333C214.19 46.8399 214.137 47.0799 214.137 47.3533C214.137 47.6266 214.19 47.8633 214.297 48.0633C214.41 48.2633 214.557 48.4333 214.737 48.5733C214.923 48.7066 215.13 48.8066 215.357 48.8733C215.59 48.9399 215.827 48.9733 216.067 48.9733C216.527 48.9733 216.907 48.8833 217.207 48.7033C217.513 48.5233 217.757 48.3166 217.937 48.0833V48.8633H218.677V45.7033C218.677 45.0166 218.487 44.4999 218.107 44.1533C217.727 43.7999 217.183 43.6233 216.477 43.6233C216.097 43.6233 215.76 43.6633 215.467 43.7433C215.173 43.8166 214.883 43.9199 214.597 44.0533L214.827 44.6833C215.067 44.5699 215.31 44.4799 215.557 44.4133C215.81 44.3399 216.09 44.3033 216.397 44.3033ZM216.427 46.2433C216.747 46.2433 217.03 46.2666 217.277 46.3133C217.53 46.3599 217.753 46.4099 217.947 46.4633V46.9633C217.947 47.1699 217.9 47.3599 217.807 47.5333C217.72 47.6999 217.597 47.8466 217.437 47.9733C217.283 48.0933 217.1 48.1899 216.887 48.2633C216.68 48.3299 216.457 48.3633 216.217 48.3633C216.043 48.3633 215.877 48.3399 215.717 48.2933C215.563 48.2466 215.427 48.1799 215.307 48.0933C215.187 47.9999 215.09 47.8899 215.017 47.7633C214.95 47.6366 214.917 47.4899 214.917 47.3233C214.917 46.9899 215.047 46.7266 215.307 46.5333C215.567 46.3399 215.94 46.2433 216.427 46.2433ZM221.309 44.3733H222.949V43.6933H221.309V42.1333H220.539V43.6933H219.819V44.3733H220.539V47.4933C220.539 47.7533 220.576 47.9766 220.649 48.1633C220.722 48.3499 220.822 48.5033 220.949 48.6233C221.082 48.7366 221.239 48.8199 221.419 48.8733C221.599 48.9266 221.792 48.9533 221.999 48.9533C222.186 48.9533 222.352 48.9333 222.499 48.8933C222.652 48.8599 222.796 48.8066 222.929 48.7333V48.0733C222.796 48.1399 222.669 48.1866 222.549 48.2133C222.436 48.2399 222.312 48.2533 222.179 48.2533C221.919 48.2533 221.709 48.1899 221.549 48.0633C221.389 47.9366 221.309 47.7133 221.309 47.3933V44.3733ZM225.192 44.7433V43.6933H224.272V44.7433H225.192ZM225.192 48.8633V47.8133H224.272V48.8633H225.192ZM233.649 46.5433V41.8633H232.849V46.5533C232.849 47.1066 232.719 47.5266 232.459 47.8133C232.199 48.0933 231.872 48.2333 231.479 48.2333C231.112 48.2333 230.805 48.1499 230.559 47.9833C230.319 47.8099 230.092 47.5599 229.879 47.2333L229.309 47.7233C229.529 48.0833 229.812 48.3799 230.159 48.6133C230.505 48.8466 230.942 48.9633 231.469 48.9633C231.782 48.9633 232.072 48.9133 232.339 48.8133C232.605 48.7133 232.835 48.5633 233.029 48.3633C233.222 48.1566 233.372 47.9033 233.479 47.6033C233.592 47.2966 233.649 46.9433 233.649 46.5433ZM240.756 44.0933C240.756 43.7466 240.693 43.4366 240.566 43.1633C240.446 42.8833 240.269 42.6499 240.036 42.4633C239.809 42.2699 239.533 42.1233 239.206 42.0233C238.886 41.9166 238.529 41.8633 238.136 41.8633H235.516V48.8633H236.306V46.3933H238.006C238.379 46.3933 238.733 46.3466 239.066 46.2533C239.399 46.1533 239.689 46.0066 239.936 45.8133C240.189 45.6199 240.389 45.3799 240.536 45.0933C240.683 44.8066 240.756 44.4733 240.756 44.0933ZM239.956 44.1233C239.956 44.3566 239.909 44.5699 239.816 44.7633C239.729 44.9499 239.599 45.1133 239.426 45.2533C239.259 45.3866 239.056 45.4899 238.816 45.5633C238.583 45.6366 238.323 45.6733 238.036 45.6733H236.306V42.5933H238.076C238.643 42.5933 239.096 42.7233 239.436 42.9833C239.783 43.2366 239.956 43.6166 239.956 44.1233ZM248.256 47.9133V45.1233H245.366V45.8333H247.496V47.5733C247.256 47.7666 246.959 47.9333 246.606 48.0733C246.252 48.2066 245.876 48.2733 245.476 48.2733C245.049 48.2733 244.666 48.1999 244.326 48.0533C243.986 47.9066 243.696 47.7033 243.456 47.4433C243.216 47.1833 243.029 46.8766 242.896 46.5233C242.769 46.1633 242.706 45.7733 242.706 45.3533C242.706 44.9599 242.772 44.5899 242.906 44.2433C243.039 43.8899 243.222 43.5833 243.456 43.3233C243.689 43.0633 243.969 42.8566 244.296 42.7033C244.622 42.5499 244.979 42.4733 245.366 42.4733C245.612 42.4733 245.836 42.4933 246.036 42.5333C246.242 42.5733 246.429 42.6299 246.596 42.7033C246.769 42.7699 246.929 42.8533 247.076 42.9533C247.222 43.0466 247.362 43.1533 247.496 43.2733L248.006 42.6733C247.832 42.5266 247.652 42.3966 247.466 42.2833C247.286 42.1633 247.089 42.0633 246.876 41.9833C246.669 41.9033 246.442 41.8433 246.196 41.8033C245.956 41.7633 245.689 41.7433 245.396 41.7433C244.869 41.7433 244.389 41.8433 243.956 42.0433C243.529 42.2366 243.162 42.4999 242.856 42.8333C242.549 43.1666 242.309 43.5533 242.136 43.9933C241.969 44.4333 241.886 44.8933 241.886 45.3733C241.886 45.8733 241.966 46.3433 242.126 46.7833C242.292 47.2233 242.529 47.6066 242.836 47.9333C243.149 48.2599 243.522 48.5166 243.956 48.7033C244.396 48.8899 244.892 48.9833 245.446 48.9833C246.039 48.9833 246.572 48.8799 247.046 48.6733C247.526 48.4599 247.929 48.2066 248.256 47.9133ZM249.508 49.7333L249.628 50.0833C250.008 49.9966 250.288 49.8466 250.468 49.6333C250.648 49.4266 250.738 49.1199 250.738 48.7133V47.8133H249.818V48.8633H250.178C250.198 49.0766 250.154 49.2499 250.048 49.3833C249.941 49.5233 249.761 49.6399 249.508 49.7333ZM260.727 44.0933C260.727 43.7466 260.663 43.4366 260.537 43.1633C260.417 42.8833 260.24 42.6499 260.007 42.4633C259.78 42.2699 259.503 42.1233 259.177 42.0233C258.857 41.9166 258.5 41.8633 258.107 41.8633H255.487V48.8633H256.277V46.3933H257.977C258.35 46.3933 258.703 46.3466 259.037 46.2533C259.37 46.1533 259.66 46.0066 259.907 45.8133C260.16 45.6199 260.36 45.3799 260.507 45.0933C260.653 44.8066 260.727 44.4733 260.727 44.0933ZM259.927 44.1233C259.927 44.3566 259.88 44.5699 259.787 44.7633C259.7 44.9499 259.57 45.1133 259.397 45.2533C259.23 45.3866 259.027 45.4899 258.787 45.5633C258.553 45.6366 258.293 45.6733 258.007 45.6733H256.277V42.5933H258.047C258.613 42.5933 259.067 42.7233 259.407 42.9833C259.753 43.2366 259.927 43.6166 259.927 44.1233ZM267.317 47.4733L262.907 41.8633H262.167V48.8633H262.937V43.1233L267.457 48.8633H268.087V41.8633H267.317V47.4733ZM276.127 47.9133V45.1233H273.237V45.8333H275.367V47.5733C275.127 47.7666 274.83 47.9333 274.477 48.0733C274.124 48.2066 273.747 48.2733 273.347 48.2733C272.92 48.2733 272.537 48.1999 272.197 48.0533C271.857 47.9066 271.567 47.7033 271.327 47.4433C271.087 47.1833 270.9 46.8766 270.767 46.5233C270.64 46.1633 270.577 45.7733 270.577 45.3533C270.577 44.9599 270.644 44.5899 270.777 44.2433C270.91 43.8899 271.094 43.5833 271.327 43.3233C271.56 43.0633 271.84 42.8566 272.167 42.7033C272.494 42.5499 272.85 42.4733 273.237 42.4733C273.484 42.4733 273.707 42.4933 273.907 42.5333C274.114 42.5733 274.3 42.6299 274.467 42.7033C274.64 42.7699 274.8 42.8533 274.947 42.9533C275.094 43.0466 275.234 43.1533 275.367 43.2733L275.877 42.6733C275.704 42.5266 275.524 42.3966 275.337 42.2833C275.157 42.1633 274.96 42.0633 274.747 41.9833C274.54 41.9033 274.314 41.8433 274.067 41.8033C273.827 41.7633 273.56 41.7433 273.267 41.7433C272.74 41.7433 272.26 41.8433 271.827 42.0433C271.4 42.2366 271.034 42.4999 270.727 42.8333C270.42 43.1666 270.18 43.5533 270.007 43.9933C269.84 44.4333 269.757 44.8933 269.757 45.3733C269.757 45.8733 269.837 46.3433 269.997 46.7833C270.164 47.2233 270.4 47.6066 270.707 47.9333C271.02 48.2599 271.394 48.5166 271.827 48.7033C272.267 48.8899 272.764 48.9833 273.317 48.9833C273.91 48.9833 274.444 48.8799 274.917 48.6733C275.397 48.4599 275.8 48.2066 276.127 47.9133ZM277.379 49.7333L277.499 50.0833C277.879 49.9966 278.159 49.8466 278.339 49.6333C278.519 49.4266 278.609 49.1199 278.609 48.7133V47.8133H277.689V48.8633H278.049C278.069 49.0766 278.025 49.2499 277.919 49.3833C277.812 49.5233 277.632 49.6399 277.379 49.7333ZM288.598 44.0933C288.598 43.7466 288.535 43.4366 288.408 43.1633C288.288 42.8833 288.111 42.6499 287.878 42.4633C287.651 42.2699 287.375 42.1233 287.048 42.0233C286.728 41.9166 286.371 41.8633 285.978 41.8633H283.358V48.8633H284.148V46.3933H285.848C286.221 46.3933 286.575 46.3466 286.908 46.2533C287.241 46.1533 287.531 46.0066 287.778 45.8133C288.031 45.6199 288.231 45.3799 288.378 45.0933C288.525 44.8066 288.598 44.4733 288.598 44.0933ZM287.798 44.1233C287.798 44.3566 287.751 44.5699 287.658 44.7633C287.571 44.9499 287.441 45.1133 287.268 45.2533C287.101 45.3866 286.898 45.4899 286.658 45.5633C286.425 45.6366 286.165 45.6733 285.878 45.6733H284.148V42.5933H285.918C286.485 42.5933 286.938 42.7233 287.278 42.9833C287.625 43.2366 287.798 43.6166 287.798 44.1233ZM296.188 45.3533C296.188 44.8599 296.098 44.3999 295.918 43.9733C295.738 43.5466 295.481 43.1766 295.148 42.8633C294.821 42.5499 294.428 42.3066 293.968 42.1333C293.514 41.9533 293.014 41.8633 292.468 41.8633H290.038V48.8633H292.468C293.014 48.8633 293.514 48.7733 293.968 48.5933C294.428 48.4133 294.821 48.1666 295.148 47.8533C295.481 47.5399 295.738 47.1699 295.918 46.7433C296.098 46.3099 296.188 45.8466 296.188 45.3533ZM295.368 45.3733C295.368 45.7666 295.298 46.1299 295.158 46.4633C295.024 46.7966 294.831 47.0899 294.578 47.3433C294.331 47.5899 294.028 47.7833 293.668 47.9233C293.308 48.0633 292.908 48.1333 292.468 48.1333H290.828V42.5933H292.468C292.908 42.5933 293.308 42.6666 293.668 42.8133C294.028 42.9533 294.331 43.1499 294.578 43.4033C294.831 43.6499 295.024 43.9433 295.158 44.2833C295.298 44.6233 295.368 44.9866 295.368 45.3733ZM302.89 41.8633H297.86V48.8633H298.65V45.8133H302.44V45.0933H298.65V42.5933H302.89V41.8633Z" fill="#1F1D2B"/>
<rect x="0.5" y="0.5" width="391" height="73.725" rx="5.5" stroke="#E0E0E0"/>
<defs>
<clipPath id="clip0_30609_25155">
<rect width="40.7631" height="38.725" fill="white" transform="translate(88.1184 18)"/>
</clipPath>
</defs>
</svg>
