<svg width="24" height="25" viewBox="0 0 24 25" fill="none" xmlns="http://www.w3.org/2000/svg">
<g clip-path="url(#clip0_29440_19272)">
<path d="M14.7357 21.8058V22.5071C14.7357 23.0651 14.3259 23.5293 13.7925 23.6083L13.6197 24.2454C13.5259 24.591 13.2147 24.833 12.8543 24.833H11.1407C10.7802 24.833 10.4691 24.591 10.3752 24.2454L10.2073 23.6083C9.66907 23.5244 9.25919 23.0651 9.25919 22.5021V21.8009C9.25919 21.4256 9.56043 21.1244 9.93574 21.1244H14.0592C14.4345 21.1293 14.7357 21.4305 14.7357 21.8058ZM17.911 12.354C17.911 13.9491 17.2789 15.396 16.2518 16.4577C15.4715 17.2676 14.9678 18.2997 14.7999 19.4009C14.7259 19.875 14.316 20.2256 13.832 20.2256H10.1629C9.68388 20.2256 9.26907 19.8799 9.19993 19.4058C9.02709 18.3046 8.51845 17.2577 7.73821 16.4528C6.7308 15.4058 6.10364 13.9836 6.08882 12.4182C6.05426 9.1293 8.67154 6.46758 11.9604 6.44288C15.2444 6.41819 17.911 9.07498 17.911 12.354ZM12.6666 8.77375C12.6666 8.40832 12.3703 8.10708 11.9999 8.10708C9.64932 8.10708 7.73327 10.0182 7.73327 12.3737C7.73327 12.7392 8.02956 13.0404 8.39993 13.0404C8.76537 13.0404 9.0666 12.7441 9.0666 12.3737C9.0666 10.754 10.3851 9.44042 11.9999 9.44042C12.3703 9.44042 12.6666 9.14412 12.6666 8.77375ZM11.9999 4.50214C12.3654 4.50214 12.6666 4.20585 12.6666 3.83548V1.49967C12.6666 1.13424 12.3703 0.833008 11.9999 0.833008C11.6296 0.833008 11.3333 1.1293 11.3333 1.49967V3.83548C11.3333 4.20585 11.6345 4.50214 11.9999 4.50214ZM4.15302 12.3491C4.15302 11.9836 3.85673 11.6824 3.48636 11.6824H1.15055C0.785121 11.6824 0.483887 11.9787 0.483887 12.3491C0.483887 12.7145 0.780183 13.0157 1.15055 13.0157H3.48636C3.85673 13.0157 4.15302 12.7194 4.15302 12.3491ZM22.8493 11.6824H20.5135C20.1481 11.6824 19.8468 11.9787 19.8468 12.3491C19.8468 12.7145 20.1431 13.0157 20.5135 13.0157H22.8493C23.2147 13.0157 23.516 12.7194 23.516 12.3491C23.516 11.9836 23.2197 11.6824 22.8493 11.6824ZM5.51105 17.8997L3.85673 19.554C3.595 19.8157 3.595 20.2355 3.85673 20.4972C3.98512 20.6256 4.15796 20.6898 4.32586 20.6898C4.49376 20.6898 4.6666 20.6256 4.795 20.4972L6.44932 18.8429C6.71105 18.5812 6.71105 18.1614 6.44932 17.8997C6.19253 17.6379 5.76784 17.6379 5.51105 17.8997ZM18.0197 6.99597C18.1876 6.99597 18.3604 6.93177 18.4888 6.80338L20.1431 5.14906C20.4049 4.88733 20.4049 4.46758 20.1431 4.20585C19.8814 3.94412 19.4617 3.94412 19.1999 4.20585L17.5456 5.86017C17.2839 6.1219 17.2839 6.54165 17.5456 6.80338C17.6789 6.93177 17.8468 6.99597 18.0197 6.99597ZM5.51105 6.79844C5.63944 6.92684 5.81228 6.99103 5.98018 6.99103C6.14808 6.99103 6.32092 6.92684 6.44932 6.79844C6.71105 6.53671 6.71105 6.11696 6.44932 5.85523L4.795 4.20091C4.53327 3.93918 4.11352 3.93918 3.85179 4.20091C3.59006 4.46264 3.59006 4.88239 3.85179 5.14412L5.51105 6.79844ZM18.4888 17.8997C18.2271 17.6379 17.8073 17.6379 17.5456 17.8997C17.2839 18.1614 17.2839 18.5812 17.5456 18.8429L19.1999 20.4972C19.3283 20.6256 19.5012 20.6898 19.6691 20.6898C19.837 20.6898 20.0098 20.6256 20.1382 20.4972C20.3999 20.2355 20.3999 19.8157 20.1382 19.554L18.4888 17.8997Z" fill="#252836"/>
</g>
<defs>
<clipPath id="clip0_29440_19272">
<rect width="24" height="24" fill="white" transform="translate(0 0.833008)"/>
</clipPath>
</defs>
</svg>