
<svg width="504" height="230" viewBox="0 0 504 230" fill="none" xmlns="http://www.w3.org/2000/svg">
<g opacity="0.8">
<path opacity="0.8" d="M325.527 99.6893H326.874V90.4763H327.259V99.6893H328.606V118.12H327.259V127.331H326.874V118.12H325.527V99.6893Z" fill="#F3B250"/>
<path opacity="0.8" d="M319.499 94.0195H320.846V84.8036H321.231V94.0195H322.578V112.446H321.231V121.661H320.846V112.446H319.499V94.0195Z" fill="#F3B250"/>
<path opacity="0.8" d="M313.471 77.0102H314.818V67.7943H315.203V77.0102H316.548V95.4362H315.203V104.651H314.818V95.4362H313.471V77.0102Z" fill="#F3B250"/>
<path opacity="0.8" d="M307.442 84.568H308.788V75.355H309.174V84.568H310.522V102.995H309.174V112.21H308.788V102.995H307.442V84.568Z" fill="#F3B250"/>
<path opacity="0.8" d="M301.414 97.4101H302.76V92.4065H303.146V97.4101H304.492V107.416H303.146V112.418H302.76V107.416H301.414V97.4101Z" fill="#F3B250"/>
<path opacity="0.8" d="M295.386 87.6573H296.732V78.4429H297.116V87.6573H298.464V106.086H297.116V115.301H296.732V106.086H295.386V87.6573Z" fill="#F3B250"/>
<path opacity="0.8" d="M289.358 97.496H290.704V88.2815H291.088V97.496H292.436V115.925H291.088V125.138H290.704V115.925H289.358V97.496Z" fill="#F3B250"/>
<path opacity="0.8" d="M283.329 108.638H284.676V103.634H285.06V108.638H286.408V118.643H285.06V123.645H284.676V118.643H283.329V108.638Z" fill="#F3B250"/>
<path opacity="0.8" d="M277.3 107.193H278.647V97.9788H279.032V107.193H280.379V125.621H279.032V134.835H278.647V125.621H277.3V107.193Z" fill="#F3B250"/>
<path opacity="0.8" d="M271.272 132.128H272.619V127.125H273.004V132.128H274.351V142.132H273.004V147.138H272.619V142.132H271.272V132.128Z" fill="#F3B250"/>
<path opacity="0.8" d="M265.244 130.55H266.59V121.336H266.976V130.55H268.323V148.979H266.976V158.195H266.59V148.979H265.244V130.55Z" fill="#F3B250"/>
<path opacity="0.8" d="M259.216 126.918H260.562V117.705H260.946V126.918H262.295V145.348H260.946V154.561H260.562V145.348H259.216V126.918Z" fill="#F3B250"/>
<path opacity="0.8" d="M253.186 139.158H254.533V129.941H254.918V139.158H256.265V157.584H254.918V166.799H254.533V157.584H253.186V139.158Z" fill="#F3B250"/>
<path opacity="0.8" d="M247.158 133.382H248.505V129.362H248.89V133.382H250.237V141.423H248.89V145.442H248.505V141.423H247.158V133.382Z" fill="#F3B250"/>
<path opacity="0.8" d="M241.13 143.911H242.477V139.89H242.862V143.911H244.209V151.946H242.862V155.968H242.477V151.946H241.13V143.911Z" fill="#F3B250"/>
<path opacity="0.8" d="M235.102 137.568H236.449V128.355H236.834V137.568H238.181V155.997H236.834V165.212H236.449V155.997H235.102V137.568Z" fill="#F3B250"/>
<path opacity="0.8" d="M229.074 130.104H230.421V126.085H230.804V130.104H232.153V138.143H230.804V142.162H230.421V138.143H229.074V130.104Z" fill="#F3B250"/>
<path opacity="0.8" d="M223.046 132.694H224.391V128.677H224.777V132.694H226.123V140.735H224.777V144.755H224.391V140.735H223.046V132.694Z" fill="#F3B250"/>
<path opacity="0.8" d="M217.016 141.586H218.363V132.373H218.748V141.586H220.095V160.016H218.748V169.229H218.363V160.016H217.016V141.586Z" fill="#F3B250"/>
<path opacity="0.8" d="M210.988 160.004H212.335V155.986H212.72V160.004H214.067V168.044H212.72V172.063H212.335V168.044H210.988V160.004Z" fill="#F3B250"/>
<path opacity="0.8" d="M204.96 167.367H206.307V163.347H206.691V167.367H208.038V175.406H206.691V179.427H206.307V175.406H204.96V167.367Z" fill="#F3B250"/>
<path opacity="0.8" d="M198.932 174.399H200.279V165.186H200.663V174.399H202.009V192.827H200.663V202.042H200.279V192.827H198.932V174.399Z" fill="#F3B250"/>
<path opacity="0.8" d="M192.903 192.358H194.249V183.14H194.635V192.358H195.981V210.784H194.635V219.998H194.249V210.784H192.903V192.358Z" fill="#F3B250"/>
<path opacity="0.8" d="M186.875 170.471H188.221V161.258H188.607V170.471H189.953V188.9H188.607V198.113H188.221V188.9H186.875V170.471Z" fill="#F3B250"/>
<path opacity="0.8" d="M180.846 142.041H182.193V132.829H182.578V142.041H183.925V160.471H182.578V169.683H182.193V160.471H180.846V142.041Z" fill="#F3B250"/>
<path opacity="0.8" d="M174.817 130.652H176.165V121.438H176.549V130.652H177.896V149.079H176.549V158.295H176.165V149.079H174.817V130.652Z" fill="#F3B250"/>
<path opacity="0.8" d="M168.789 118.77H170.137V109.554H170.521V118.77H171.868V137.197H170.521V146.41H170.137V137.197H168.789V118.77Z" fill="#F3B250"/>
<path opacity="0.8" d="M162.762 131.251H164.107V122.04H164.493V131.251H165.839V149.679H164.493V158.895H164.107V149.679H162.762V131.251Z" fill="#F3B250"/>
<path opacity="0.8" d="M156.733 115.272H158.081V106.056H158.465V115.272H159.812V133.699H158.465V142.912H158.081V133.699H156.733V115.272Z" fill="#F3B250"/>
<path opacity="0.8" d="M150.705 139.906H152.053V130.691H152.437V139.906H153.783V158.335H152.437V167.549H152.053V158.335H150.705V139.906Z" fill="#F3B250"/>
<path opacity="0.8" d="M144.677 160.036H146.023V151.027H146.409V160.036H147.755V178.051H146.409V187.06H146.023V178.051H144.677V160.036Z" fill="#F3B250"/>
<path opacity="0.8" d="M138.649 163.059H139.995V153.844H140.381V163.059H141.727V181.488H140.381V190.701H139.995V181.488H138.649V163.059Z" fill="#F3B250"/>
<path opacity="0.8" d="M132.62 151.247H133.967V142.034H134.353V151.247H135.699V169.674H134.353V178.89H133.967V169.674H132.62V151.247Z" fill="#F3B250"/>
<path opacity="0.8" d="M126.592 136.84H127.939V131.224H128.324V136.84H129.671V148.074H128.324V153.695H127.939V148.074H126.592V136.84Z" fill="#F3B250"/>
<path opacity="0.8" d="M120.564 150.918H121.911V146.63H122.296V150.918H123.643V159.495H122.296V163.782H121.911V159.495H120.564V150.918Z" fill="#F3B250"/>
<path opacity="0.8" d="M114.536 134.723H115.883V125.507H116.267V134.723H117.614V153.151H116.267V162.365H115.883V153.151H114.536V134.723Z" fill="#F3B250"/>
<path opacity="0.8" d="M108.508 126.834H109.855V120.518H110.239V126.834H111.587V139.472H110.239V145.791H109.855V139.472H108.508V126.834Z" fill="#F3B250"/>
<path opacity="0.8" d="M102.479 142.037H103.827V132.822H104.211V142.037H105.557V160.466H104.211V169.68H103.827V160.466H102.479V142.037Z" fill="#F3B250"/>
<path opacity="0.8" d="M96.452 150.413H97.7987V141.2H98.1826V150.413H99.5293V168.842H98.1826V178.057H97.7987V168.842H96.452V150.413Z" fill="#F3B250"/>
<path opacity="0.8" d="M90.4225 162.227H91.7692V153.012H92.1546V162.227H93.5013V180.656H92.1546V189.87H91.7692V180.656H90.4225V162.227Z" fill="#F3B250"/>
<path opacity="0.8" d="M84.3944 188.606H85.7411V183.998H86.1265V188.606H87.4731V197.821H86.1265V202.426H85.7411V197.821H84.3944V188.606Z" fill="#F3B250"/>
<path opacity="0.8" d="M78.3663 199.94H79.713V196.877H80.0984V199.94H81.4451V206.065H80.0984V209.128H79.713V206.065H78.3663V199.94Z" fill="#F3B250"/>
<path opacity="0.8" d="M72.3384 186.227H73.6851V177.014H74.0705V186.227H75.4171V204.656H74.0705V213.869H73.6851V204.656H72.3384V186.227Z" fill="#F3B250"/>
<path opacity="0.8" d="M66.3103 193.316H67.657V184.1H68.0424V193.316H69.3891V211.742H68.0424V220.957H67.657V211.742H66.3103V193.316Z" fill="#F3B250"/>
<path opacity="0.8" d="M60.2821 201.821H61.6288V192.606H62.0142V201.821H63.3608V220.248H62.0142V229.463H61.6288V220.248H60.2821V201.821Z" fill="#F3B250"/>
<path opacity="0.8" d="M54.2542 175.584H55.6008V166.369H55.9848V175.584H57.3329V194.013H55.9848V203.227H55.6008V194.013H54.2542V175.584Z" fill="#F3B250"/>
<path opacity="0.8" d="M48.2261 159.519H49.5728V150.304H49.9567V159.519H51.3034V177.949H49.9567V187.161H49.5728V177.949H48.2261V159.519Z" fill="#F3B250"/>
<path opacity="0.8" d="M42.198 145.816H43.5447V136.603H43.9286V145.816H45.2753V164.244H43.9286V173.459H43.5447V164.244H42.198V145.816Z" fill="#F3B250"/>
<path opacity="0.8" d="M36.1699 153.378H37.5151V144.163H37.9005V153.378H39.2472V171.805H37.9005V181.019H37.5151V171.805H36.1699V153.378Z" fill="#F3B250"/>
<path opacity="0.8" d="M30.1403 171.628H31.4884V162.415H31.8723V171.628H33.219V190.058H31.8723V199.271H31.4884V190.058H30.1403V171.628Z" fill="#F3B250"/>
<path opacity="0.8" d="M24.1136 171.578H25.4589V162.364H25.8443V171.578H27.1909V190.008H25.8443V199.22H25.4589V190.008H24.1136V171.578Z" fill="#F3B250"/>
<path opacity="0.8" d="M18.0841 160.689H19.4308V151.476H19.8162V160.689H21.1629V179.118H19.8162V188.331H19.4308V179.118H18.0841V160.689Z" fill="#F3B250"/>
<path opacity="0.8" d="M12.0562 189.61H13.4028V180.396H13.7882V189.61H15.1349V208.04H13.7882V217.252H13.4028V208.04H12.0562V189.61Z" fill="#F3B250"/>
<path opacity="0.8" d="M6.02808 182.995H7.37476V173.78H7.75869V182.995H9.10683V201.422H7.75869V210.637H7.37476V201.422H6.02808V182.995Z" fill="#F3B250"/>
<path opacity="0.8" d="M0 202.058H1.34668V192.845H1.73207V202.058H3.07875V220.487H1.73207V229.701H1.34668V220.487H0V202.058Z" fill="#F3B250"/>
<path opacity="0.8" d="M500.275 12.7141H501.621V3.49817H502.007V12.7141H503.353V31.1416H502.007V40.3546H501.621V31.1416H500.275V12.7141Z" fill="#F3B250"/>
<path opacity="0.8" d="M494.246 25.1969H495.592V15.9824H495.977V25.1969H497.324V43.6229H495.977V52.8388H495.592V43.6229H494.246V25.1969Z" fill="#F3B250"/>
<path opacity="0.8" d="M488.218 9.21592H489.565V0H489.949V9.21592H491.296V27.6434H489.949V36.8579H489.565V27.6434H488.218V9.21592Z" fill="#F3B250"/>
<path opacity="0.8" d="M482.19 33.8498H483.536V24.6354H483.921V33.8498H485.268V52.2788H483.921V61.4932H483.536V52.2788H482.19V33.8498Z" fill="#F3B250"/>
<path opacity="0.8" d="M476.162 53.9791H477.507V44.9712H477.893V53.9791H479.239V71.995H477.893V81.0043H477.507V71.995H476.162V53.9791Z" fill="#F3B250"/>
<path opacity="0.8" d="M470.133 57.0032H471.481V47.7902H471.865V57.0032H473.212V75.4321H471.865V84.6466H471.481V75.4321H470.133V57.0032Z" fill="#F3B250"/>
<path opacity="0.8" d="M464.105 45.1908H465.451V35.9763H465.837V45.1908H467.184V63.6183H465.837V72.8342H465.451V63.6183H464.105V45.1908Z" fill="#F3B250"/>
<path opacity="0.8" d="M458.077 30.7837H459.423V25.1677H459.809V30.7837H461.155V42.017H459.809V47.6373H459.423V42.017H458.077V30.7837Z" fill="#F3B250"/>
<path opacity="0.8" d="M452.049 44.8622H453.395V40.5742H453.781V44.8622H455.127V53.4396H453.781V57.7261H453.395V53.4396H452.049V44.8622Z" fill="#F3B250"/>
<path opacity="0.8" d="M446.021 28.6659H447.367V19.4514H447.753V28.6659H449.099V47.0948H447.753V56.3093H447.367V47.0948H446.021V28.6659Z" fill="#F3B250"/>
<path opacity="0.8" d="M439.992 20.778H441.339V14.4609H441.725V20.778H443.071V33.4179H441.725V39.7349H441.339V33.4179H439.992V20.778Z" fill="#F3B250"/>
<path opacity="0.8" d="M433.964 35.9807H435.311V26.7677H435.696V35.9807H437.042V54.4111H435.696V63.6241H435.311V54.4111H433.964V35.9807Z" fill="#F3B250"/>
<path opacity="0.8" d="M427.936 44.3574H429.283V35.1429H429.667V44.3574H431.014V62.7863H429.667V72.0008H429.283V62.7863H427.936V44.3574Z" fill="#F3B250"/>
<path opacity="0.8" d="M421.908 56.1711H423.255V46.9567H423.639V56.1711H424.985V74.6H423.639V83.8145H423.255V74.6H421.908V56.1711Z" fill="#F3B250"/>
<path opacity="0.8" d="M415.879 82.549H417.227V77.9425H417.612V82.549H418.957V91.7649H417.612V96.37H417.227V91.7649H415.879V82.549Z" fill="#F3B250"/>
<path opacity="0.8" d="M409.851 93.8843H411.199V90.821H411.583V93.8843H412.929V100.009H411.583V103.073H411.199V100.009H409.851V93.8843Z" fill="#F3B250"/>
<path opacity="0.8" d="M403.824 80.1695H405.171V70.9565H405.555V80.1695H406.901V98.5985H405.555V107.814H405.171V98.5985H403.824V80.1695Z" fill="#F3B250"/>
<path opacity="0.8" d="M397.796 87.2604H399.141V78.0459H399.526V87.2604H400.873V105.688H399.526V114.901H399.141V105.688H397.796V87.2604Z" fill="#F3B250"/>
<path opacity="0.8" d="M391.766 95.7635H393.113V86.5505H393.498V95.7635H394.845V114.192H393.498V123.407H393.113V114.192H391.766V95.7635Z" fill="#F3B250"/>
<path opacity="0.8" d="M385.738 69.5295H387.085V60.3136H387.47V69.5295H388.817V87.957H387.47V97.1715H387.085V87.957H385.738V69.5295Z" fill="#F3B250"/>
<path opacity="0.8" d="M379.71 92.6727H381.057V83.4583H381.442V92.6727H382.789V111.103H381.442V120.316H381.057V111.103H379.71V92.6727Z" fill="#F3B250"/>
<path opacity="0.8" d="M373.682 78.9695H375.029V69.7565H375.414V78.9695H376.761V97.397H375.414V106.613H375.029V97.397H373.682V78.9695Z" fill="#F3B250"/>
<path opacity="0.8" d="M367.654 86.5302H369.001V77.3171H369.386V86.5302H370.733V104.959H369.386V114.174H369.001V104.959H367.654V86.5302Z" fill="#F3B250"/>
<path opacity="0.8" d="M361.626 65.5718H362.973V56.3588H363.358V65.5718H364.703V84.0022H363.358V93.2152H362.973V84.0022H361.626V65.5718Z" fill="#F3B250"/>
<path opacity="0.8" d="M355.597 65.5238H356.945V56.3079H357.329V65.5238H358.677V83.9527H357.329V93.1672H356.945V83.9527H355.597V65.5238Z" fill="#F3B250"/>
<path opacity="0.8" d="M349.57 54.6336H350.915V45.4192H351.3V54.6336H352.647V73.0626H351.3V82.277H350.915V73.0626H349.57V54.6336Z" fill="#F3B250"/>
<path opacity="0.8" d="M343.542 68.5841H344.888V59.3696H345.272V68.5841H346.619V87.013H345.272V96.226H344.888V87.013H343.542V68.5841Z" fill="#F3B250"/>
<path opacity="0.8" d="M337.514 76.939H338.86V67.7245H339.244V76.939H340.591V95.3664H339.244V104.581H338.86V95.3664H337.514V76.939Z" fill="#F3B250"/>
<path opacity="0.8" d="M331.484 96.0035H332.831V86.7891H333.216V96.0035H334.563V114.431H333.216V123.645H332.831V114.431H331.484V96.0035Z" fill="#F3B250"/>
</g>
</svg>
