<svg width="80" height="80" viewBox="0 0 80 80" fill="none" xmlns="http://www.w3.org/2000/svg">
<path fill-rule="evenodd" clip-rule="evenodd" d="M36.668 6.66675C42.1908 6.66675 46.668 11.1439 46.668 16.6667L46.6683 20.569C47.7108 20.2006 48.8326 20.0001 50.0013 20.0001H63.3346C68.8575 20.0001 73.3346 24.4772 73.3346 30.0001V63.3334C73.3346 68.8563 68.8575 73.3334 63.3346 73.3334H16.668C11.1451 73.3334 6.66797 68.8563 6.66797 63.3334V16.6667C6.66797 11.1439 11.1451 6.66675 16.668 6.66675H36.668ZM36.668 13.3334H16.668C14.827 13.3334 13.3346 14.8258 13.3346 16.6667V63.3334C13.3346 65.1744 14.827 66.6667 16.668 66.6667H40.0013V16.6667C40.0013 14.8258 38.5089 13.3334 36.668 13.3334ZM63.3346 26.6667H50.0013C48.1604 26.6667 46.668 28.1591 46.668 30.0001V66.6667H63.3346C65.1756 66.6667 66.668 65.1744 66.668 63.3334V30.0001C66.668 28.1591 65.1756 26.6667 63.3346 26.6667ZM30.0013 46.6667C31.8423 46.6667 33.3346 48.1591 33.3346 50.0001C33.3346 51.841 31.8423 53.3334 30.0013 53.3334H23.3346C21.4937 53.3334 20.0013 51.841 20.0013 50.0001C20.0013 48.1591 21.4937 46.6667 23.3346 46.6667H30.0013ZM60.0013 46.6667C61.8423 46.6667 63.3346 48.1591 63.3346 50.0001C63.3346 51.841 61.8423 53.3334 60.0013 53.3334H53.3346C51.4937 53.3334 50.0013 51.841 50.0013 50.0001C50.0013 48.1591 51.4937 46.6667 53.3346 46.6667H60.0013ZM30.0013 33.3334C31.8423 33.3334 33.3346 34.8258 33.3346 36.6667C33.3346 38.5077 31.8423 40.0001 30.0013 40.0001H23.3346C21.4937 40.0001 20.0013 38.5077 20.0013 36.6667C20.0013 34.8258 21.4937 33.3334 23.3346 33.3334H30.0013ZM60.0013 33.3334C61.8423 33.3334 63.3346 34.8258 63.3346 36.6667C63.3346 38.5077 61.8423 40.0001 60.0013 40.0001H53.3346C51.4937 40.0001 50.0013 38.5077 50.0013 36.6667C50.0013 34.8258 51.4937 33.3334 53.3346 33.3334H60.0013ZM30.0013 20.0001C31.8423 20.0001 33.3346 21.4925 33.3346 23.3334C33.3346 25.1744 31.8423 26.6667 30.0013 26.6667H23.3346C21.4937 26.6667 20.0013 25.1744 20.0013 23.3334C20.0013 21.4925 21.4937 20.0001 23.3346 20.0001H30.0013Z" fill="#F8F8F7"/>
</svg>
