<svg width="44" height="45" viewBox="0 0 44 45" fill="none" xmlns="http://www.w3.org/2000/svg">
<path fill-rule="evenodd" clip-rule="evenodd" d="M34.8327 4.16675C37.8703 4.16675 40.3327 6.62918 40.3327 9.66675V35.3334C40.3327 38.371 37.8703 40.8334 34.8327 40.8334H9.16602C6.12845 40.8334 3.66602 38.371 3.66602 35.3334V9.66675C3.66602 6.62918 6.12845 4.16675 9.16602 4.16675H34.8327ZM34.8327 7.83341H9.16602C8.15349 7.83341 7.33268 8.65423 7.33268 9.66675V35.3334C7.33268 36.3459 8.15349 37.1667 9.16602 37.1667H34.8327C35.8452 37.1667 36.666 36.3459 36.666 35.3334V9.66675C36.666 8.65423 35.8452 7.83341 34.8327 7.83341ZM14.666 26.1667C15.6785 26.1667 16.4993 26.9876 16.4993 28.0001V31.6667C16.4993 32.6793 15.6785 33.5001 14.666 33.5001C13.6535 33.5001 12.8327 32.6793 12.8327 31.6667V28.0001C12.8327 26.9876 13.6535 26.1667 14.666 26.1667ZM21.9994 11.5001C23.0119 11.5001 23.8327 12.3209 23.8327 13.3334V31.6667C23.8327 32.6793 23.0119 33.5001 21.9994 33.5001C20.9868 33.5001 20.166 32.6793 20.166 31.6667V13.3334C20.166 12.3209 20.9868 11.5001 21.9994 11.5001ZM29.3327 18.8334C30.3452 18.8334 31.166 19.6542 31.166 20.6667V31.6667C31.166 32.6793 30.3452 33.5001 29.3327 33.5001C28.3202 33.5001 27.4993 32.6793 27.4993 31.6667V20.6667C27.4993 19.6542 28.3202 18.8334 29.3327 18.8334Z" fill="#3BC359"/>
</svg>
