<svg width="161" height="121" viewBox="0 0 161 121" fill="none" xmlns="http://www.w3.org/2000/svg">
<g clip-path="url(#clip0_29440_18792)">
<path opacity="0.18" d="M149.6 33.3284C143.123 25.9901 134.821 20.5306 126.614 15.1613C116.693 8.66093 106.338 1.99152 94.5854 0.379587C83.3601 -1.16095 71.8975 2.13806 61.9496 7.55249C52.0018 12.9669 43.3389 20.4066 34.7514 27.7862L14.5429 45.168C10.2925 48.8239 5.92145 52.6302 3.50232 57.6802C1.44869 61.9636 0.962602 66.8633 1.35449 71.5826C1.8279 76.9605 3.37328 82.19 5.9 86.9646C8.42673 91.7391 11.884 95.9626 16.069 99.3875C21.9397 104.133 29.02 107.128 36.0627 109.886C49.0024 114.936 62.3415 119.392 76.1818 120.632C90.9604 121.958 105.792 119.572 120.435 117.194C138.416 114.274 148.733 106.651 151.71 88.9869C153.327 79.4281 158.568 70.7672 159.668 61.1821C160.863 50.8605 156.296 40.9296 149.6 33.3284Z" fill="#144A22"/>
<path d="M142.229 12.3613H32.9763C30.1835 12.3613 27.9194 14.6189 27.9194 17.4038V91.4324C27.9194 94.2172 30.1835 96.4748 32.9763 96.4748H142.229C145.022 96.4748 147.286 94.2172 147.286 91.4324V17.4038C147.286 14.6189 145.022 12.3613 142.229 12.3613Z" fill="#144A22"/>
<path d="M138.571 15.2217H36.6618C34.0792 15.2217 31.9856 17.3094 31.9856 19.8846V87.7586C31.9856 90.3338 34.0792 92.4215 36.6618 92.4215H138.571C141.153 92.4215 143.247 90.3338 143.247 87.7586V19.8846C143.247 17.3094 141.153 15.2217 138.571 15.2217Z" fill="white"/>
<path d="M101.926 83.2495L84.4188 74.521H28.2738V54.3662H108.825L101.662 68.7909L101.926 83.2495Z" fill="url(#paint0_linear_29440_18792)"/>
<path d="M108.825 25.2194V64.5633C108.825 65.9389 108.278 67.2584 107.304 68.2325C106.33 69.2066 105.008 69.7558 103.629 69.7598H23.3111C22.6273 69.7598 21.9502 69.6253 21.3185 69.364C20.6869 69.1027 20.1132 68.7198 19.6301 68.2371C19.1471 67.7544 18.7643 67.1815 18.5037 66.5511C18.243 65.9207 18.1096 65.2452 18.1111 64.5633V25.2194C18.1111 23.8442 18.659 22.5253 19.6341 21.5529C20.6093 20.5805 21.932 20.0342 23.3111 20.0342H103.629C105.006 20.0372 106.327 20.5845 107.301 21.5564C108.275 22.5283 108.823 23.8455 108.825 25.2194Z" fill="#144A22"/>
<path d="M63.3888 30.1234C63.1547 30.2074 62.897 30.1975 62.67 30.0959C62.443 29.9943 62.2644 29.8088 62.1717 29.5785L61.2598 27.1625C60.9992 26.5027 60.4885 25.9718 59.8383 25.6846C59.1881 25.3974 58.4506 25.3771 57.7854 25.628C57.1202 25.8788 56.5809 26.3808 56.2841 27.0252C55.9872 27.6696 55.9568 28.4047 56.1993 29.0713L57.4616 32.3966C57.4819 32.4514 57.497 32.508 57.5068 32.5657H55.5097L54.4358 29.7364C54.0293 28.6068 54.0841 27.3632 54.5883 26.2735C55.0925 25.1838 56.0058 24.3352 57.1314 23.9105C58.257 23.4857 59.5049 23.5189 60.6063 24.0028C61.7076 24.4866 62.5743 25.3825 63.0196 26.4975L63.9352 28.9097C63.9794 29.0252 64.0004 29.1482 63.9968 29.2717C63.9933 29.3952 63.9654 29.5169 63.9146 29.6296C63.8638 29.7423 63.7913 29.844 63.7011 29.9287C63.6108 30.0135 63.5047 30.0796 63.3888 30.1234Z" fill="white"/>
<path d="M149.653 95.6826H22.9006C20.3992 95.6826 18.3713 97.7047 18.3713 100.199V100.687C18.3713 103.182 20.3992 105.204 22.9006 105.204H149.653C152.154 105.204 154.182 103.182 154.182 100.687V100.199C154.182 97.7047 152.154 95.6826 149.653 95.6826Z" fill="#144A22"/>
<path d="M149.653 95.6826H22.9006C20.3992 95.6826 18.3713 97.7047 18.3713 100.199V100.687C18.3713 103.182 20.3992 105.204 22.9006 105.204H149.653C152.154 105.204 154.182 103.182 154.182 100.687V100.199C154.182 97.7047 152.154 95.6826 149.653 95.6826Z" fill="url(#paint1_linear_29440_18792)"/>
<path d="M86.009 69.4966L101.926 83.2488V66.4531L86.009 69.4966Z" fill="#144A22"/>
<path d="M93.6696 47.9824H32.1965C30.9083 47.9824 29.864 49.0237 29.864 50.3083V56.9439C29.864 58.2284 30.9083 59.2697 32.1965 59.2697H93.6696C94.9578 59.2697 96.0021 58.2284 96.0021 56.9439V50.3083C96.0021 49.0237 94.9578 47.9824 93.6696 47.9824Z" fill="white"/>
<path d="M66.3356 32.5879H53.9573V43.9916H66.3356V32.5879Z" fill="url(#paint2_linear_29440_18792)"/>
<path d="M66.3207 32.5654H58.5583V43.9692H66.3207V32.5654Z" fill="url(#paint3_linear_29440_18792)"/>
<path d="M59.8506 37.9086C59.8506 37.9086 58.6297 36.8941 59.6961 36.0298C60.7625 35.1656 61.957 36.9692 60.8266 37.9086L61.6216 40.024H58.9387L59.8506 37.9086Z" fill="url(#paint4_linear_29440_18792)"/>
<path d="M39.3332 55.7186C40.638 55.7186 41.6958 54.6639 41.6958 53.3627C41.6958 52.0616 40.638 51.0068 39.3332 51.0068C38.0284 51.0068 36.9706 52.0616 36.9706 53.3627C36.9706 54.6639 38.0284 55.7186 39.3332 55.7186Z" fill="black"/>
<path d="M45.705 55.7186C47.0099 55.7186 48.0676 54.6639 48.0676 53.3627C48.0676 52.0616 47.0099 51.0068 45.705 51.0068C44.4002 51.0068 43.3424 52.0616 43.3424 53.3627C43.3424 54.6639 44.4002 55.7186 45.705 55.7186Z" fill="black"/>
<path d="M52.0772 55.7186C53.382 55.7186 54.4398 54.6639 54.4398 53.3627C54.4398 52.0616 53.382 51.0068 52.0772 51.0068C50.7724 51.0068 49.7146 52.0616 49.7146 53.3627C49.7146 54.6639 50.7724 55.7186 52.0772 55.7186Z" fill="black"/>
<path d="M58.449 55.7186C59.7539 55.7186 60.8117 54.6639 60.8117 53.3627C60.8117 52.0616 59.7539 51.0068 58.449 51.0068C57.1442 51.0068 56.0864 52.0616 56.0864 53.3627C56.0864 54.6639 57.1442 55.7186 58.449 55.7186Z" fill="black"/>
<path d="M65.3221 55.7186C66.6269 55.7186 67.6847 54.6639 67.6847 53.3627C67.6847 52.0616 66.6269 51.0068 65.3221 51.0068C64.0173 51.0068 62.9595 52.0616 62.9595 53.3627C62.9595 54.6639 64.0173 55.7186 65.3221 55.7186Z" fill="black"/>
<path d="M71.6939 55.7186C72.9987 55.7186 74.0565 54.6639 74.0565 53.3627C74.0565 52.0616 72.9987 51.0068 71.6939 51.0068C70.3891 51.0068 69.3313 52.0616 69.3313 53.3627C69.3313 54.6639 70.3891 55.7186 71.6939 55.7186Z" fill="black"/>
<path d="M78.0657 55.7186C79.3706 55.7186 80.4283 54.6639 80.4283 53.3627C80.4283 52.0616 79.3706 51.0068 78.0657 51.0068C76.7609 51.0068 75.7031 52.0616 75.7031 53.3627C75.7031 54.6639 76.7609 55.7186 78.0657 55.7186Z" fill="black"/>
<path d="M84.4415 55.7186C85.7463 55.7186 86.8041 54.6639 86.8041 53.3627C86.8041 52.0616 85.7463 51.0068 84.4415 51.0068C83.1366 51.0068 82.0789 52.0616 82.0789 53.3627C82.0789 54.6639 83.1366 55.7186 84.4415 55.7186Z" fill="black"/>
<path d="M21.2876 16.3565C20.9212 16.3563 20.5628 16.2495 20.2563 16.0493C19.9497 15.8491 19.7084 15.5641 19.5618 15.2292L15.4923 5.88079C15.3933 5.65431 15.34 5.4106 15.3355 5.16359C15.331 4.91658 15.3753 4.67111 15.4659 4.44118C15.5566 4.21125 15.6917 4.00136 15.8637 3.82352C16.0357 3.64567 16.2411 3.50334 16.4682 3.40466C16.6953 3.30597 16.9397 3.25286 17.1874 3.24836C17.4352 3.24386 17.6813 3.28805 17.9119 3.37842C18.1425 3.46878 18.353 3.60356 18.5313 3.77503C18.7097 3.94651 18.8524 4.15134 18.9514 4.37783L23.0172 13.73C23.1424 14.0162 23.1942 14.3289 23.1678 14.64C23.1414 14.951 23.0377 15.2506 22.866 15.5117C22.6943 15.7728 22.4601 15.987 22.1845 16.1352C21.909 16.2833 21.6007 16.3607 21.2876 16.3602V16.3565Z" fill="#144A22"/>
<path d="M3.01977 29.1732C2.52009 29.1896 2.03432 29.0074 1.66933 28.6667C1.30434 28.3261 1.09003 27.8547 1.07354 27.3565C1.05705 26.8582 1.23973 26.3738 1.5814 26.0099C1.92307 25.6459 2.39574 25.4322 2.89542 25.4158L13.0882 24.7357C13.5879 24.7023 14.0804 24.8682 14.4574 25.1969C14.8344 25.5256 15.065 25.9902 15.0985 26.4885C15.132 26.9868 14.9656 27.4779 14.6359 27.8538C14.3063 28.2297 13.8403 28.4597 13.3407 28.4931L3.14412 29.1694L3.01977 29.1732Z" fill="#144A22"/>
<path d="M13.8608 19.9259C13.4883 19.9247 13.1247 19.8122 12.8171 19.6028L4.35009 13.8765C3.9451 13.593 3.66818 13.1621 3.57912 12.6768C3.49006 12.1915 3.59602 11.6908 3.87411 11.2827C4.1522 10.8747 4.58011 10.5921 5.06539 10.496C5.55068 10.3999 6.05441 10.498 6.46777 10.7691L14.9197 16.4954C15.252 16.7215 15.503 17.0478 15.636 17.4265C15.7689 17.8052 15.7767 18.2164 15.6584 18.5998C15.54 18.9833 15.3017 19.3189 14.9782 19.5575C14.6548 19.7961 14.2632 19.9252 13.8608 19.9259Z" fill="#144A22"/>
<path d="M100.388 95.7695H72.8357V98.5914H100.388V95.7695Z" fill="url(#paint5_linear_29440_18792)"/>
</g>
<defs>
<linearGradient id="paint0_linear_29440_18792" x1="65.3823" y1="38.9909" x2="78.6094" y2="145.947" gradientUnits="userSpaceOnUse">
<stop stop-opacity="0"/>
<stop offset="0.99"/>
</linearGradient>
<linearGradient id="paint1_linear_29440_18792" x1="30756.4" y1="2770.31" x2="30755.5" y2="2273.98" gradientUnits="userSpaceOnUse">
<stop stop-opacity="0"/>
<stop offset="0.99"/>
</linearGradient>
<linearGradient id="paint2_linear_29440_18792" x1="2561.92" y1="864.377" x2="1475.04" y2="1607.41" gradientUnits="userSpaceOnUse">
<stop stop-opacity="0"/>
<stop offset="0.99"/>
</linearGradient>
<linearGradient id="paint3_linear_29440_18792" x1="1594.34" y1="941.558" x2="948.689" y2="1218.34" gradientUnits="userSpaceOnUse">
<stop stop-opacity="0"/>
<stop offset="0.99"/>
</linearGradient>
<linearGradient id="paint4_linear_29440_18792" x1="485.762" y1="614.712" x2="483.703" y2="556.699" gradientUnits="userSpaceOnUse">
<stop stop-opacity="0"/>
<stop offset="0.99"/>
</linearGradient>
<linearGradient id="paint5_linear_29440_18792" x1="6328.08" y1="767.335" x2="6327.94" y2="927.654" gradientUnits="userSpaceOnUse">
<stop stop-opacity="0"/>
<stop offset="0.99"/>
</linearGradient>
<clipPath id="clip0_29440_18792">
<rect width="161" height="121" fill="white"/>
</clipPath>
</defs>
</svg>
