<svg width="123" height="124" viewBox="0 0 123 124" fill="none" xmlns="http://www.w3.org/2000/svg">
<path fill-rule="evenodd" clip-rule="evenodd" d="M67.5394 11.7746C70.1535 13.0923 72.2732 15.2292 73.5803 17.8646L111.321 93.9597C114.657 100.687 111.953 108.866 105.28 112.23C103.404 113.175 101.336 113.667 99.2392 113.667H23.7578C16.2977 113.667 10.25 107.571 10.25 100.05C10.25 97.9356 10.7382 95.8506 11.6761 93.9597L49.4168 17.8646C52.753 11.1378 60.8668 8.41121 67.5394 11.7746ZM57.5908 23.1036L20.9614 96.9582C20.658 97.5699 20.5 98.2445 20.5 98.9284C20.5 101.362 22.4565 103.334 24.87 103.334H98.129C98.8074 103.334 99.4765 103.175 100.083 102.869C102.242 101.781 103.117 99.1344 102.038 96.9582L65.4082 23.1036C64.9853 22.251 64.2996 21.5597 63.4539 21.1334C61.2952 20.0453 58.6702 20.9274 57.5908 23.1036ZM61.5 82.6673C64.3305 82.6673 66.625 84.9805 66.625 87.834C66.625 90.6875 64.3305 93.0006 61.5 93.0006C58.6695 93.0006 56.375 90.6875 56.375 87.834C56.375 84.9805 58.6695 82.6673 61.5 82.6673ZM61.5 41.334C64.3305 41.334 66.625 43.6472 66.625 46.5007V67.1673C66.625 70.0208 64.3305 72.334 61.5 72.334C58.6695 72.334 56.375 70.0208 56.375 67.1673V46.5007C56.375 43.6472 58.6695 41.334 61.5 41.334Z" fill="#FF0949"/>
</svg>
