<svg width="25" height="24" viewBox="0 0 25 24" fill="none" xmlns="http://www.w3.org/2000/svg">
<path fill-rule="evenodd" clip-rule="evenodd" d="M17.5 8C18.0523 8 18.5 8.44772 18.5 9V19C18.5 20.6569 17.1569 22 15.5 22H9.5C7.84315 22 6.5 20.6569 6.5 19V9C6.5 8.44772 6.94772 8 7.5 8H17.5ZM16.5 10H8.5V19C8.5 19.5523 8.94772 20 9.5 20H15.5C16.0523 20 16.5 19.5523 16.5 19V10ZM9.5 3C9.5 2.44772 9.94772 2 10.5 2H14.5C15.0523 2 15.5 2.44772 15.5 3V4H19.5C20.0523 4 20.5 4.44772 20.5 5C20.5 5.55228 20.0523 6 19.5 6H5.5C4.94772 6 4.5 5.55228 4.5 5C4.5 4.44772 4.94772 4 5.5 4H9.5V3Z" fill="#FF0949"/>
</svg>
