<svg width="143" height="108" viewBox="0 0 143 108" fill="none" xmlns="http://www.w3.org/2000/svg">
<path opacity="0.3" d="M68.9902 93.3594C100.257 93.3594 125.604 90.4772 125.604 86.9219C125.604 83.3665 100.257 80.4844 68.9902 80.4844C37.7233 80.4844 12.3765 83.3665 12.3765 86.9219C12.3765 90.4772 37.7233 93.3594 68.9902 93.3594Z" fill="#E6E6E6"/>
<path d="M29.6723 48.3691C29.6723 48.3691 21.2603 52.4065 20.1628 61.7098C19.0653 71.0132 15.9657 88.9787 38.785 87.9542C61.6042 86.9296 72.3649 85.6543 66.9846 68.1831C61.6042 50.712 29.6723 48.3691 29.6723 48.3691Z" fill="#FFD200"/>
<path opacity="0.09" d="M28.8112 53.2016C28.5753 54.5145 28.7385 55.8682 29.2797 57.0869C29.8209 58.3057 30.7151 59.3334 31.8463 60.0368C34.9423 62.0823 39.7113 69.3509 43.4043 73.0264C43.9806 73.5989 44.4359 74.2819 44.743 75.0347C45.0502 75.7874 45.2028 76.5944 45.1918 77.4076C45.1918 78.0703 45.4599 78.8047 46.3322 79.5212C48.8991 81.624 59.6706 82.6737 65.6944 76.2039C71.7183 69.7342 63.7747 66.5316 63.7747 66.5316L37.2982 52.1699L28.8112 53.2016Z" fill="black"/>
<path d="M87.3372 84.873C87.3372 84.873 87.8984 86.306 89.307 86.6141C90.7155 86.9222 91.4806 88.6703 88.4025 88.4052C85.3244 88.1401 83.6335 88.6059 84.0768 86.9114C84.5201 85.217 84.3199 84.9626 84.3199 84.9626L87.3372 84.873Z" fill="#F4A28C"/>
<path d="M66.6664 83.68C66.6664 83.68 66.4304 85.1882 67.4779 86.1877C68.5254 87.1872 68.3037 89.0536 65.7977 87.2624C63.2916 85.4712 61.5935 85.0019 62.834 83.7696C64.0745 82.5373 64.0316 82.2148 64.0316 82.2148L66.6664 83.68Z" fill="#F4A28C"/>
<path d="M69.3549 62.2402C69.3549 62.2402 88.1773 62.4337 87.995 84.9273L83.5548 85.6832C83.5548 85.6832 82.7004 61.9286 58.2402 73.2452L59.5165 63.8881L69.3549 62.2402Z" fill="#24285B"/>
<path opacity="0.09" d="M69.3549 62.2402C69.3549 62.2402 88.1773 62.4337 87.995 84.9273L83.5548 85.6832C83.5548 85.6832 82.7004 61.9286 58.2402 73.2452L59.5165 63.8881L69.3549 62.2402Z" fill="black"/>
<path d="M70.8315 41.5336L72.4653 41.9706L71.3034 40.7168L70.8315 41.5336Z" fill="#FFD200"/>
<path d="M45.1558 52.6671C45.1558 52.6671 48.409 60.9065 56.3491 59.4557C64.2892 58.0048 67.3065 41.3147 67.3065 41.3147C67.3065 41.3147 70.4453 39.2691 68.9259 36.9872C67.4066 34.7052 64.9362 39.6417 64.9362 39.6417C64.9362 39.6417 61.515 53.706 54.1111 49.1457L45.1558 52.6671Z" fill="#F4A28C"/>
<path opacity="0.09" d="M45.1558 52.6671C45.1558 52.6671 48.409 60.9065 56.3491 59.4557C64.2892 58.0048 67.3065 41.3147 67.3065 41.3147C67.3065 41.3147 70.4453 39.2691 68.9259 36.9872C67.4066 34.7052 64.9362 39.6417 64.9362 39.6417C64.9362 39.6417 61.515 53.706 54.1111 49.1457L45.1558 52.6671Z" fill="black"/>
<path d="M45.2558 35.9304L46.9718 36.2886C46.9718 36.2886 60.2351 43.5035 57.7683 50.7291C55.3016 57.9547 60.6891 64.8149 60.6891 64.8149L49.1562 72.954C49.1562 72.954 34.0911 65.4633 36.3469 44.8289C36.3469 44.8289 37.3944 35.2175 45.2558 35.9304Z" fill="#EEEDF8"/>
<path d="M75.7358 40.0108L73.561 38.9629L64.633 57.5688L66.8077 58.6167L75.7358 40.0108Z" fill="#E6E6E6"/>
<path opacity="0.58" d="M106.535 83.3754C106.535 83.3754 102.874 82.3724 102.077 78.9584C102.077 78.9584 107.751 77.8084 107.912 83.6763L106.535 83.3754Z" fill="#EEEDF8"/>
<path opacity="0.73" d="M106.975 83.0176C106.975 83.0176 104.415 78.9659 106.667 75.1758C106.667 75.1758 110.982 77.9199 109.066 83.0283L106.975 83.0176Z" fill="#EEEDF8"/>
<path d="M107.632 83.0163C107.632 83.0163 108.984 78.7354 113.07 77.9258C113.07 77.9258 113.839 80.7057 110.424 83.0271L107.632 83.0163Z" fill="#EEEDF8"/>
<path d="M104.976 82.9141L105.72 88.0046L110.396 88.0225L111.086 82.9391L104.976 82.9141Z" fill="#24285B"/>
<path opacity="0.66" d="M98.5948 12.5488H72.6475V30.7543H98.5948V12.5488Z" fill="#E6E6E6"/>
<path opacity="0.43" d="M121.876 38.0508H98.4414V54.4938H121.876V38.0508Z" fill="#E6E6E6"/>
<path d="M79.4939 21.0099C81.1662 21.0099 82.5219 19.6514 82.5219 17.9757C82.5219 16.2999 81.1662 14.9414 79.4939 14.9414C77.8215 14.9414 76.4658 16.2999 76.4658 17.9757C76.4658 19.6514 77.8215 21.0099 79.4939 21.0099Z" fill="#E6E6E6"/>
<path opacity="0.45" d="M94.7554 15.4004H86.229V27.2687H94.7554V15.4004Z" fill="#C1C1C1"/>
<path d="M82.8436 23.2891H76.9878V27.2691H82.8436V23.2891Z" fill="#C1C1C1"/>
<path d="M44.6269 26.8672L42.2388 35.3036L46.9721 36.2888L46.8112 29.7546L44.6269 26.8672Z" fill="#F4A28C"/>
<path opacity="0.31" d="M46.9078 31.1844C46.3334 30.9599 45.8365 30.5728 45.4778 30.0703C45.4778 30.0703 45.3563 31.6716 46.9078 33.4521V31.1844Z" fill="#CE8172"/>
<path d="M49.5281 27.1326C49.5281 27.1326 49.2921 29.7978 48.5414 31.4636C48.4689 31.626 48.3648 31.7723 48.2353 31.894C48.1058 32.0157 47.9534 32.1103 47.787 32.1723C47.6206 32.2343 47.4436 32.2625 47.2662 32.2553C47.0888 32.248 46.9146 32.2054 46.7539 32.1299C45.9209 31.7395 44.9092 30.9693 44.8627 29.5256L44.4837 27.086C44.4599 26.5894 44.59 26.0976 44.8563 25.6781C45.1226 25.2585 45.512 24.932 45.9709 24.7431C47.6512 23.9084 49.7533 25.499 49.5281 27.1326Z" fill="#F4A28C"/>
<path d="M46.3354 28.8732C46.3354 28.8732 46.4963 27.8558 45.7205 27.7985C44.9448 27.7412 44.7052 29.21 45.7205 29.5288L46.3354 28.8732Z" fill="#F4A28C"/>
<path d="M49.2919 28.7832L49.846 29.9296C49.8773 29.9948 49.8917 30.0669 49.8878 30.1391C49.8839 30.2114 49.8618 30.2815 49.8237 30.3429C49.7855 30.4044 49.7325 30.4552 49.6696 30.4906C49.6066 30.5261 49.5357 30.545 49.4635 30.5457H48.4268L49.2919 28.7832Z" fill="#F4A28C"/>
<path d="M71.3051 40.7154L63.1377 35.9902L62.6676 36.8062L70.8349 41.5313L71.3051 40.7154Z" fill="#24285B"/>
<path opacity="0.18" d="M51.8017 68.4724L49.1562 72.9539C49.1562 72.9539 39.5645 68.2969 36.8153 55.6942C34.0661 43.0914 43.1359 48.0029 43.1359 48.0029L51.8017 68.4724Z" fill="black"/>
<path d="M49.1562 72.9547C49.1562 72.9547 58.0437 54.7993 71.1854 54.8674C84.3271 54.9354 67.2529 84.1639 67.2529 84.1639L62.92 82.3978C62.92 82.3978 69.355 69.8595 67.7177 65.8222C66.0803 61.7849 63.5778 89.6341 49.1562 72.9547Z" fill="#24285B"/>
<path d="M41.5521 36.9476C41.5521 36.9476 45.506 34.9379 47.5152 39.0218C49.5243 43.1057 47.9406 60.6699 56.0952 61.5906C64.2498 62.5113 68.386 53.9996 68.386 53.9996C68.386 53.9996 69.0581 50.4172 70.1735 49.8226C71.2889 49.2279 72.272 52.9929 70.1735 55.1961C70.1735 55.1961 66.5771 68.7338 55.1585 69.0383C43.74 69.3428 30.2944 46.2187 41.5521 36.9476Z" fill="#F4A28C"/>
<path d="M49.5458 23.6569C49.5458 23.6569 52.1448 26.7198 48.7807 27.361C45.4167 28.0023 44.7231 28.6077 45.0449 32.0181C45.3666 35.4285 46.7001 38.5702 42.2385 40.7089C37.7769 42.8475 41.6129 46.4406 40.7906 50.632C39.9684 54.8233 36.0466 57.7179 31.0237 54.8592C26.0008 52.0004 22.9013 44.6853 28.2853 40.3041C33.6692 35.9228 40.4403 34.8589 40.4403 27.7945C40.4403 20.7301 46.0673 20.3647 49.5458 23.6569Z" fill="#24285B"/>
<path opacity="0.43" d="M105.888 50.1029C107.89 50.1029 109.513 48.4766 109.513 46.4704C109.513 44.4642 107.89 42.8379 105.888 42.8379C103.886 42.8379 102.263 44.4642 102.263 46.4704C102.263 48.4766 103.886 50.1029 105.888 50.1029Z" fill="#C1C1C1"/>
<path opacity="0.43" d="M111.754 40.9023H105.452V47.218H111.754V40.9023Z" fill="#C1C1C1"/>
<path opacity="0.43" d="M118.515 40.9023H113.813V51.37H118.515V40.9023Z" fill="#C1C1C1"/>
<path d="M71.0409 54.9599L67.7104 53.6875L66.9934 55.572L70.3238 56.8444L71.0409 54.9599Z" fill="#EEEDF8"/>
<path opacity="0.44" d="M71.0409 54.9599L67.7104 53.6875L66.9934 55.572L70.3238 56.8444L71.0409 54.9599Z" fill="white"/>
</svg>
