<svg width="76" height="77" viewBox="0 0 76 77" fill="none" xmlns="http://www.w3.org/2000/svg">
<rect y="0.5" width="76" height="76" rx="38" fill="#144A22"/>
<path d="M38.0019 18.5039C26.9579 18.5039 18.0039 27.4579 18.0039 38.5019C18.0039 48.4819 25.3159 56.7539 34.8779 58.2599V44.2839H29.7979V38.5019H34.8779V34.0959C34.8779 29.0799 37.8639 26.3139 42.4299 26.3139C44.6179 26.3139 46.9099 26.7039 46.9099 26.7039V31.6219H44.3819C41.9019 31.6219 41.1259 33.1659 41.1259 34.7479V38.4979H46.6679L45.7819 44.2799H41.1259V58.2559C50.6879 56.7579 57.9999 48.4839 57.9999 38.5019C57.9999 27.4579 49.0459 18.5039 38.0019 18.5039Z" fill="#F8F8F7"/>
</svg>
