<svg width="143" height="109" viewBox="0 0 143 109" fill="none" xmlns="http://www.w3.org/2000/svg">
<path d="M59.649 38.7891C59.649 38.7891 45.9746 40.3905 41.0947 44.1428C36.2148 47.8951 37.1622 53.6439 53.0602 50.6241C68.9582 47.6043 59.649 38.7891 59.649 38.7891Z" fill="white"/>
<path opacity="0.08" d="M59.649 38.7891C59.649 38.7891 45.9746 40.3905 41.0947 44.1428C36.2148 47.8951 37.1622 53.6439 53.0602 50.6241C68.9582 47.6043 59.649 38.7891 59.649 38.7891Z" fill="black"/>
<path d="M54.2363 29.3639C54.7137 29.3054 55.1771 29.1632 55.6056 28.9438C56.3206 28.5848 57.8578 28.2257 57.8256 29.7338C57.8042 30.6925 56.3206 29.5578 56.2205 30.8469C56.1204 32.136 56.3027 33.7662 53.6536 33.3604C51.2369 32.9726 51.909 29.662 54.2363 29.3639Z" fill="#F4A28C"/>
<path d="M96.8144 37.4137C106.931 37.4137 115.133 30.3771 115.133 21.6971C115.133 13.017 106.931 5.98047 96.8144 5.98047C86.6975 5.98047 78.4961 13.017 78.4961 21.6971C78.4961 30.3771 86.6975 37.4137 96.8144 37.4137Z" fill="#24285B"/>
<path opacity="0.45" d="M69.8305 100.773C91.2312 100.773 108.58 98.2988 108.58 95.2468C108.58 92.1948 91.2312 89.7207 69.8305 89.7207C48.4298 89.7207 31.0811 92.1948 31.0811 95.2468C31.0811 98.2988 48.4298 100.773 69.8305 100.773Z" fill="#E6E6E6"/>
<path opacity="0.58" d="M85.8965 89.013C85.8965 89.013 82.2715 88.0363 81.4707 84.661C81.4707 84.661 87.0763 83.4976 87.2586 89.329L85.8965 89.013Z" fill="white"/>
<path opacity="0.73" d="M86.3399 88.6512C86.3399 88.6512 83.7945 84.6475 86.0038 80.8809C86.0038 80.8809 90.2938 83.5847 88.4062 88.6512H86.3399Z" fill="white"/>
<path d="M86.9902 88.6505C86.9902 88.6505 88.3094 84.4027 92.3527 83.584C92.3527 83.584 93.1213 86.3345 89.7573 88.6505H86.9902Z" fill="white"/>
<path d="M84.3662 88.5684L85.1205 93.6061H89.743L90.4008 88.5684H84.3662Z" fill="#24285B"/>
<path d="M61.6471 92.292C61.6471 92.292 61.1358 93.8073 59.7845 93.9438C58.4331 94.0802 58.0971 95.4195 59.3233 95.7391C60.5496 96.0587 63.6598 94.4357 63.6598 94.4357L63.5275 92.2812L61.6471 92.292Z" fill="white"/>
<path d="M75.8613 90.6004C75.8613 90.6004 76.2581 92.1516 75.1999 93.0098C74.1417 93.868 74.5957 95.1642 75.7969 94.7692C76.9981 94.3743 78.7177 91.2934 78.7177 91.2934L77.5451 89.7207L75.8613 90.6004Z" fill="white"/>
<path d="M64.2355 28.3946C64.2355 28.3946 65.5368 30.6891 65.8622 32.4665C65.893 32.6386 65.8898 32.8152 65.8525 32.9861C65.8153 33.1569 65.7448 33.3188 65.6452 33.4622C65.5455 33.6057 65.4187 33.7279 65.2719 33.822C65.1251 33.9161 64.9612 33.9802 64.7897 34.0105C63.8995 34.1613 62.6447 34.1074 61.801 32.962L60.1314 31.1954C59.8341 30.8057 59.6641 30.3332 59.6449 29.8426C59.6257 29.352 59.7582 28.8675 60.0242 28.4556C60.9287 26.8506 63.5134 26.9547 64.2355 28.3946Z" fill="#F4A28C"/>
<path d="M60.7427 31.584L60.7784 40.2412L65.526 39.8786L63.642 33.882L60.7427 31.584Z" fill="#F4A28C"/>
<path d="M64.9829 29.8848L66.0554 30.5024C66.1188 30.5366 66.1723 30.5868 66.2108 30.6479C66.2492 30.709 66.2713 30.7791 66.2749 30.8513C66.2785 30.9235 66.2635 30.9955 66.2313 31.0601C66.1991 31.1248 66.1508 31.1801 66.0912 31.2205L65.2582 31.8166L64.9829 29.8848Z" fill="#F4A28C"/>
<path opacity="0.31" d="M63.6956 34.0506C63.114 33.9926 62.5591 33.7766 62.0904 33.4258C62.0904 33.4258 61.926 35.3145 64.2355 35.7669L63.6956 34.0506Z" fill="#CE8172"/>
<path d="M97.483 11.8882C99.3921 11.9996 100.89 12.6064 101.977 13.6836C102.49 14.1829 102.886 14.7896 103.139 15.4605C103.392 16.1314 103.494 16.85 103.439 17.5652C103.43 18.4886 103.184 19.394 102.724 20.1936C102.274 20.883 102.045 21.3067 101.351 21.7807C100.83 22.1635 100.272 22.4919 99.6852 22.761C99.292 22.9656 99.0274 23.0805 98.9237 23.1523C97.8512 23.7305 97.2471 24.2834 97.1899 25.2816C97.1541 25.9208 96.9396 26.0896 96.3283 26.0536L95.3094 25.9926C94.6981 25.9567 94.505 25.7664 94.5408 25.1272C94.6695 22.9513 95.6133 21.9566 97.2328 20.9979C97.2077 20.9979 98.2659 20.4198 98.3053 20.3947C98.6354 20.2016 98.9477 19.9793 99.2383 19.7304C99.5193 19.4559 99.76 19.1428 99.9533 18.8004C100.122 18.3881 100.225 17.952 100.261 17.5077C100.35 15.9494 99.2634 14.8326 97.2292 14.7141C95.2665 14.5992 94.1797 15.3282 93.3718 16.8973C93.0536 17.5221 92.8462 17.6154 92.2456 17.3713L91.048 16.865C90.4724 16.6531 90.333 16.2582 90.5761 15.7339C91.8488 12.9762 94.1511 11.6943 97.483 11.8882ZM95.8635 27.4181C97.0862 27.4899 97.4687 27.9244 97.3972 29.1489V29.3823C97.3257 30.6318 96.8967 30.9945 95.6741 30.9227H95.4703C94.2476 30.8509 93.8651 30.4451 93.9366 29.1919V28.9621C94.0081 27.7341 94.4371 27.3499 95.6598 27.4217L95.8635 27.4181Z" fill="#FFD200"/>
<path d="M63.6565 38.459H68.4148C68.4148 38.459 83.6551 39.7768 83.8982 47.346C84.1413 54.9153 74.285 70.0358 74.285 70.0358H57.8614C57.8614 70.0358 38.9676 38.459 63.6565 38.459Z" fill="white"/>
<path opacity="0.08" d="M73.2481 45.4863C73.2481 45.4863 69.8089 50.4128 71.2461 54.2477C72.6832 58.0826 73.3231 64.2263 62.2478 58.2765L60.639 53.1202L56.3133 51.6265L54.5723 58.7397L57.5538 59.7559C58.2393 59.9788 58.8105 60.4627 59.1446 61.1039C59.4788 61.745 59.5495 62.4922 59.3413 63.185C58.9445 64.4058 57.9649 65.6123 55.6698 65.8457L57.8756 70.0217H74.2991L76.4763 66.4633L82.4608 53.2602L73.2481 45.4863Z" fill="black"/>
<path d="M60.7499 33.313C60.7499 33.313 59.6488 31.2879 58.3332 30.3938C57.0176 29.4997 58.0937 26.6235 60.4067 26.11C62.137 25.7222 63.1273 25.1513 63.1416 24.171C63.148 24.0671 63.1824 23.9667 63.2409 23.8807C63.2995 23.7947 63.3801 23.7262 63.4742 23.6824C63.5683 23.6386 63.6725 23.6212 63.7757 23.632C63.8789 23.6428 63.9772 23.6814 64.0604 23.7438C64.854 24.3434 65.6655 25.3237 65.2723 26.681C65.1181 27.1733 64.8394 27.617 64.4635 27.9688C64.0875 28.3206 63.6271 28.5685 63.1273 28.6882L61.5686 29.1047C61.5686 29.1047 63.6564 31.9306 60.7499 33.313Z" fill="#24285B"/>
<path d="M62.6339 31.6196C62.6339 31.6196 62.1942 30.704 61.5364 31.0954C60.8786 31.4868 61.5042 32.8117 62.5017 32.5029L62.6339 31.6196Z" fill="#F4A28C"/>
<path d="M82.2463 26.0781L73.2051 33.1303L84.6129 30.6922L82.2463 26.0781Z" fill="#24285B"/>
<path d="M73.3268 47.7747C72.0684 43.1571 77.5846 39.7207 81.1918 42.8734C82.9114 44.3815 84.3771 46.3205 84.8204 48.7299C86.0967 55.6528 90.1829 61.678 83.9267 65.7786C77.6704 69.8792 62.8628 60.7803 62.8628 60.7803L64.9005 57.0639C64.9005 57.0639 72.3115 60.0119 76.909 59.7534C80.08 59.5774 75.1036 54.2955 73.3268 47.7747Z" fill="white"/>
<path d="M63.8574 51.931L59.3892 50.8594L57.6679 58.0994L62.1362 59.171L63.8574 51.931Z" fill="#FFD200"/>
<path opacity="0.3" d="M73.3268 47.7747C72.0684 43.1571 77.5846 39.7207 81.1918 42.8734C82.9114 44.3815 84.3771 46.3205 84.8204 48.7299C86.0967 55.6528 90.1829 61.678 83.9267 65.7786C77.6704 69.8792 62.8628 60.7803 62.8628 60.7803L64.9005 57.0639C64.9005 57.0639 72.3115 60.0119 76.909 59.7534C80.08 59.5774 75.1036 54.2955 73.3268 47.7747Z" fill="white"/>
<path d="M64.6291 57.5307C64.4612 56.8242 64.1279 56.168 63.6567 55.6169C62.8559 54.6546 62.5842 54.2273 61.4795 54.2488C60.3748 54.2704 60.264 58.3458 63.3135 59.9294L64.6291 57.5307Z" fill="#F4A28C"/>
<path d="M74.2848 70.0371C74.2848 70.0371 70.9958 83.7537 77.5809 89.5204L75.2608 91.7C75.2608 91.7 66.7237 86.7232 65.5332 73.0497L74.2848 70.0371Z" fill="#24285B"/>
<path d="M52.2808 30.916L53.6536 33.3541L43.615 49.2431C42.0634 51.6955 38.1988 50.6794 38.1631 47.7745C38.1631 46.4351 38.5671 44.8229 39.7575 42.9198C44.069 36.0041 52.2808 30.916 52.2808 30.916Z" fill="white"/>
<path d="M51.2579 26.2413L51.1631 26.9531L54.8872 27.4535L54.982 26.7417L51.2579 26.2413Z" fill="#C9C9C9"/>
<path d="M54.1431 21.7011L53.5933 22.1602L55.9948 25.0625L56.5447 24.6035L54.1431 21.7011Z" fill="#C9C9C9"/>
<path d="M58.849 20.5333L58.502 24.291L59.2139 24.3574L59.561 20.5996L58.849 20.5333Z" fill="#C9C9C9"/>
<path d="M57.8613 70.0371C57.8613 70.0371 54.4865 82.8416 61.1395 92.2816L63.8279 92.1524C63.8279 92.1524 59.9312 79.3802 65.7191 74.7086L74.2991 70.0407L57.8613 70.0371Z" fill="#24285B"/>
</svg>
