<svg width="41" height="40" viewBox="0 0 41 40" fill="none" xmlns="http://www.w3.org/2000/svg">
<path d="M30.5001 36.6673C31.3841 36.6673 32.232 36.3161 32.8571 35.691C33.4822 35.0659 33.8334 34.218 33.8334 33.334V13.334L23.8334 3.33398H10.5001C9.61603 3.33398 8.76818 3.68517 8.14306 4.31029C7.51794 4.93542 7.16675 5.78326 7.16675 6.66732V33.334C7.16675 34.218 7.51794 35.0659 8.14306 35.691C8.76818 36.3161 9.61603 36.6673 10.5001 36.6673H30.5001ZM22.1667 6.66732L30.5001 15.0007H22.1667V6.66732ZM12.1667 13.334H17.1667V16.6673H12.1667V13.334ZM12.1667 20.0007H28.8334V23.334H12.1667V20.0007ZM12.1667 26.6673H28.8334V30.0007H12.1667V26.6673Z" fill="black"/>
</svg>
