<svg width="80" height="80" viewBox="0 0 80 80" fill="none" xmlns="http://www.w3.org/2000/svg">
<path fill-rule="evenodd" clip-rule="evenodd" d="M63.3346 13.3334C68.8575 13.3334 73.3346 17.8105 73.3346 23.3334V56.6667C73.3346 62.1895 68.8575 66.6667 63.3346 66.6667H16.668C11.1451 66.6667 6.66797 62.1895 6.66797 56.6667V23.3334C6.66797 17.8105 11.1451 13.3334 16.668 13.3334H63.3346ZM13.3346 40V56.6667C13.3346 58.5077 14.827 60 16.668 60H63.3346C65.1756 60 66.668 58.5077 66.668 56.6667V40H13.3346ZM13.3346 26.6667H66.668V23.3334C66.668 21.4924 65.1756 20 63.3346 20H16.668C14.827 20 13.3346 21.4924 13.3346 23.3334V26.6667Z" fill="#F8F8F7"/>
</svg>
