<svg width="54" height="54" viewBox="0 0 54 54" fill="none" xmlns="http://www.w3.org/2000/svg">
<path fill-rule="evenodd" clip-rule="evenodd" d="M27 4.5C39.4264 4.5 49.5 14.5736 49.5 27C49.5 39.4264 39.4264 49.5 27 49.5C14.5736 49.5 4.5 39.4264 4.5 27C4.5 14.5736 14.5736 4.5 27 4.5ZM27 9C17.0589 9 9 17.0589 9 27C9 36.9411 17.0589 45 27 45C36.9411 45 45 36.9411 45 27C45 17.0589 36.9411 9 27 9ZM27 36C28.2426 36 29.25 37.0074 29.25 38.25C29.25 39.4926 28.2426 40.5 27 40.5C25.7574 40.5 24.75 39.4926 24.75 38.25C24.75 37.0074 25.7574 36 27 36ZM27 13.5C31.9706 13.5 36 17.5294 36 22.5C36 26.5383 33.3403 29.9554 29.677 31.0952L29.25 31.2165V31.5C29.25 32.7426 28.2426 33.75 27 33.75C25.8461 33.75 24.8951 32.8814 24.7651 31.7624L24.75 31.5V29.25C24.75 28.0961 25.6186 27.1451 26.7376 27.0151L27.3358 26.9877C29.6643 26.8159 31.5 24.8723 31.5 22.5C31.5 20.0147 29.4853 18 27 18C24.5147 18 22.5 20.0147 22.5 22.5C22.5 23.7426 21.4926 24.75 20.25 24.75C19.0074 24.75 18 23.7426 18 22.5C18 17.5294 22.0294 13.5 27 13.5Z" fill="#3BC359"/>
</svg>
