<svg width="105" height="105" viewBox="0 0 105 105" fill="none" xmlns="http://www.w3.org/2000/svg">
<path fill-rule="evenodd" clip-rule="evenodd" d="M52.5 8.75C76.6625 8.75 96.25 28.3375 96.25 52.5C96.25 76.6625 76.6625 96.25 52.5 96.25C28.3375 96.25 8.75 76.6625 8.75 52.5C8.75 28.3375 28.3375 8.75 52.5 8.75ZM52.5 17.5C33.17 17.5 17.5 33.17 17.5 52.5C17.5 71.83 33.17 87.5 52.5 87.5C71.83 87.5 87.5 71.83 87.5 52.5C87.5 33.17 71.83 17.5 52.5 17.5ZM52.5 70C54.9162 70 56.875 71.9588 56.875 74.375C56.875 76.7912 54.9162 78.75 52.5 78.75C50.0838 78.75 48.125 76.7912 48.125 74.375C48.125 71.9588 50.0838 70 52.5 70ZM52.5 26.25C62.165 26.25 70 34.085 70 43.75C70 51.6023 64.8283 58.2467 57.7054 60.4628L56.875 60.6987V61.25C56.875 63.6662 54.9162 65.625 52.5 65.625C50.2563 65.625 48.4072 63.9361 48.1544 61.7602L48.125 61.25V56.875C48.125 54.6313 49.8139 52.7822 51.9898 52.5294L53.153 52.476C57.6805 52.142 61.25 48.3628 61.25 43.75C61.25 38.9175 57.3325 35 52.5 35C47.6675 35 43.75 38.9175 43.75 43.75C43.75 46.1662 41.7912 48.125 39.375 48.125C36.9588 48.125 35 46.1662 35 43.75C35 34.085 42.835 26.25 52.5 26.25Z" fill="#3BC359"/>
</svg>
