<svg width="58" height="59" viewBox="0 0 58 59" fill="none" xmlns="http://www.w3.org/2000/svg">
<rect y="0.5" width="58" height="58" rx="29" fill="#144A22"/>
<path d="M40.9294 24.5733C40.916 23.5634 40.7269 22.5636 40.3708 21.6186C40.0619 20.8215 39.5901 20.0975 38.9857 19.4931C38.3812 18.8886 37.6572 18.4168 36.8601 18.1079C35.9272 17.7578 34.9417 17.5684 33.9454 17.5479C32.6628 17.4906 32.2561 17.4746 29.0001 17.4746C25.7441 17.4746 25.3268 17.4746 24.0534 17.5479C23.0576 17.5685 22.0726 17.7579 21.1401 18.1079C20.3428 18.4166 19.6188 18.8883 19.0143 19.4928C18.4098 20.0973 17.9381 20.8214 17.6294 21.6186C17.2785 22.5508 17.0896 23.5361 17.0708 24.5319C17.0134 25.8159 16.9961 26.2226 16.9961 29.4786C16.9961 32.7346 16.9961 33.1506 17.0708 34.4253C17.0908 35.4226 17.2788 36.4066 17.6294 37.3413C17.9386 38.1383 18.4106 38.862 19.0153 39.4663C19.6201 40.0706 20.3442 40.542 21.1414 40.8506C22.0713 41.2149 23.0566 41.4178 24.0548 41.4506C25.3388 41.5079 25.7454 41.5253 29.0014 41.5253C32.2574 41.5253 32.6748 41.5253 33.9481 41.4506C34.9443 41.431 35.9299 41.2421 36.8628 40.8919C37.6597 40.5827 38.3834 40.1108 38.9879 39.5064C39.5923 38.902 40.0642 38.1782 40.3734 37.3813C40.7241 36.4479 40.9121 35.4639 40.9321 34.4653C40.9894 33.1826 41.0068 32.7759 41.0068 29.5186C41.0041 26.2626 41.0041 25.8493 40.9294 24.5733ZM28.9921 35.6359C25.5868 35.6359 22.8281 32.8773 22.8281 29.4719C22.8281 26.0666 25.5868 23.3079 28.9921 23.3079C30.6269 23.3079 32.1947 23.9574 33.3507 25.1133C34.5067 26.2693 35.1561 27.8371 35.1561 29.4719C35.1561 31.1067 34.5067 32.6746 33.3507 33.8305C32.1947 34.9865 30.6269 35.6359 28.9921 35.6359ZM35.4014 24.5173C35.2126 24.5175 35.0256 24.4804 34.8512 24.4082C34.6767 24.3361 34.5182 24.2302 34.3847 24.0967C34.2512 23.9632 34.1453 23.8047 34.0731 23.6302C34.001 23.4557 33.9639 23.2687 33.9641 23.0799C33.9641 22.8913 34.0013 22.7045 34.0735 22.5302C34.1457 22.3558 34.2515 22.1975 34.3849 22.0641C34.5183 21.9307 34.6767 21.8248 34.851 21.7526C35.0253 21.6804 35.2121 21.6433 35.4008 21.6433C35.5894 21.6433 35.7762 21.6804 35.9506 21.7526C36.1249 21.8248 36.2832 21.9307 36.4166 22.0641C36.55 22.1975 36.6559 22.3558 36.7281 22.5302C36.8003 22.7045 36.8374 22.8913 36.8374 23.0799C36.8374 23.8746 36.1948 24.5173 35.4014 24.5173Z" fill="#F8F8F7"/>
<path d="M28.9918 33.4768C31.2031 33.4768 32.9958 31.6841 32.9958 29.4728C32.9958 27.2614 31.2031 25.4688 28.9918 25.4688C26.7804 25.4688 24.9878 27.2614 24.9878 29.4728C24.9878 31.6841 26.7804 33.4768 28.9918 33.4768Z" fill="#F8F8F7"/>
</svg>
