<svg width="20" height="21" viewBox="0 0 20 21" fill="none" xmlns="http://www.w3.org/2000/svg">
<path fill-rule="evenodd" clip-rule="evenodd" d="M10 0.5C15.5228 0.5 20 4.97715 20 10.5C20 16.0228 15.5228 20.5 10 20.5C4.47715 20.5 0 16.0228 0 10.5C0 4.97715 4.47715 0.5 10 0.5ZM10 2.5C5.58172 2.5 2 6.08172 2 10.5C2 14.9183 5.58172 18.5 10 18.5C14.4183 18.5 18 14.9183 18 10.5C18 6.08172 14.4183 2.5 10 2.5ZM10 14.5C10.5523 14.5 11 14.9477 11 15.5C11 16.0523 10.5523 16.5 10 16.5C9.44771 16.5 9 16.0523 9 15.5C9 14.9477 9.44771 14.5 10 14.5ZM10 4.5C12.2091 4.5 14 6.29086 14 8.5C14 10.2948 12.8179 11.8135 11.1898 12.3201L11 12.374V12.5C11 13.0523 10.5523 13.5 10 13.5C9.48716 13.5 9.06449 13.114 9.00673 12.6166L9 12.5V11.5C9 10.9872 9.38604 10.5645 9.88338 10.5067L10.1493 10.4945C11.1841 10.4182 12 9.55436 12 8.5C12 7.39543 11.1046 6.5 10 6.5C8.89543 6.5 8 7.39543 8 8.5C8 9.05229 7.55228 9.5 7 9.5C6.44772 9.5 6 9.05229 6 8.5C6 6.29086 7.79086 4.5 10 4.5Z" fill="#9DA9B3"/>
</svg>
