<svg width="196" height="69" viewBox="0 0 196 69" fill="none" xmlns="http://www.w3.org/2000/svg">
<rect y="0.5" width="196" height="68" rx="34" fill="#144A22"/>
<path d="M44 14.5C32.972 14.5 24 23.472 24 34.5V42.786C24 44.834 25.794 46.5 28 46.5H30C30.5304 46.5 31.0391 46.2893 31.4142 45.9142C31.7893 45.5391 32 45.0304 32 44.5V34.214C32 33.6836 31.7893 33.1749 31.4142 32.7998C31.0391 32.4247 30.5304 32.214 30 32.214H28.184C29.296 24.474 35.956 18.5 44 18.5C52.044 18.5 58.704 24.474 59.816 32.214H58C57.4696 32.214 56.9609 32.4247 56.5858 32.7998C56.2107 33.1749 56 33.6836 56 34.214V46.5C56 48.706 54.206 50.5 52 50.5H48V48.5H40V54.5H52C56.412 54.5 60 50.912 60 46.5C62.206 46.5 64 44.834 64 42.786V34.5C64 23.472 55.028 14.5 44 14.5Z" fill="#F8F8F7"/>
<path d="M91.2224 40.5V37.7H84.2424V26.5H81.1624V40.5H91.2224ZM96.4852 28.6V25.9H93.2852V28.6H96.4852ZM96.4052 40.5V29.78H93.3652V40.5H96.4052ZM109.5 29.78H106.34L103.92 36.96L101.52 29.78H98.3004L102.52 40.58H105.28L109.5 29.78ZM121.253 35.44V35.4C121.253 34.64 121.146 33.9133 120.933 33.22C120.733 32.5133 120.413 31.8933 119.973 31.36C119.546 30.8133 119.006 30.38 118.353 30.06C117.699 29.74 116.926 29.58 116.033 29.58C115.246 29.58 114.526 29.7267 113.873 30.02C113.233 30.3133 112.679 30.7133 112.213 31.22C111.746 31.7267 111.379 32.32 111.113 33C110.859 33.68 110.733 34.4 110.733 35.16V35.2C110.733 36.0267 110.873 36.78 111.153 37.46C111.433 38.1267 111.819 38.7067 112.313 39.2C112.819 39.6933 113.413 40.0733 114.093 40.34C114.786 40.6067 115.533 40.74 116.333 40.74C117.306 40.74 118.153 40.5667 118.873 40.22C119.593 39.86 120.206 39.3667 120.713 38.74L118.973 37.2C118.546 37.5867 118.133 37.8667 117.733 38.04C117.333 38.2133 116.879 38.3 116.373 38.3C115.693 38.3 115.119 38.1267 114.653 37.78C114.199 37.42 113.899 36.8933 113.753 36.2H121.213C121.226 36.0533 121.233 35.9267 121.233 35.82C121.246 35.7133 121.253 35.5867 121.253 35.44ZM118.293 34.3H113.713C113.833 33.6067 114.086 33.0533 114.473 32.64C114.873 32.2267 115.393 32.02 116.033 32.02C116.673 32.02 117.186 32.2333 117.573 32.66C117.959 33.0733 118.199 33.62 118.293 34.3ZM142.134 38.24L140.174 36.26C139.628 36.7667 139.074 37.1667 138.514 37.46C137.968 37.7533 137.294 37.9 136.494 37.9C135.894 37.9 135.341 37.7867 134.834 37.56C134.341 37.32 133.914 37 133.554 36.6C133.208 36.2 132.934 35.7333 132.734 35.2C132.534 34.6667 132.434 34.1 132.434 33.5V33.46C132.434 32.86 132.534 32.3 132.734 31.78C132.934 31.2467 133.214 30.78 133.574 30.38C133.934 29.98 134.361 29.6667 134.854 29.44C135.361 29.2133 135.908 29.1 136.494 29.1C137.201 29.1 137.834 29.24 138.394 29.52C138.968 29.8 139.528 30.1867 140.074 30.68L142.034 28.42C141.714 28.1 141.368 27.8067 140.994 27.54C140.621 27.2733 140.214 27.0467 139.774 26.86C139.334 26.6733 138.841 26.5267 138.294 26.42C137.761 26.3133 137.168 26.26 136.514 26.26C135.434 26.26 134.448 26.4533 133.554 26.84C132.661 27.2133 131.894 27.7333 131.254 28.4C130.614 29.0533 130.114 29.82 129.754 30.7C129.394 31.5667 129.214 32.5 129.214 33.5V33.54C129.214 34.54 129.394 35.48 129.754 36.36C130.114 37.24 130.614 38.0067 131.254 38.66C131.894 39.3 132.654 39.8067 133.534 40.18C134.414 40.5533 135.368 40.74 136.394 40.74C137.074 40.74 137.688 40.68 138.234 40.56C138.781 40.4533 139.281 40.2933 139.734 40.08C140.201 39.8533 140.628 39.5867 141.014 39.28C141.401 38.9733 141.774 38.6267 142.134 38.24ZM154.1 40.5V33.56C154.1 32.32 153.78 31.3467 153.14 30.64C152.513 29.9333 151.62 29.58 150.46 29.58C150.073 29.58 149.727 29.6267 149.42 29.72C149.113 29.8133 148.833 29.94 148.58 30.1C148.327 30.26 148.093 30.4467 147.88 30.66C147.68 30.86 147.493 31.0733 147.32 31.3V25.9H144.28V40.5H147.32V34.52C147.32 33.8 147.487 33.26 147.82 32.9C148.167 32.5267 148.633 32.34 149.22 32.34C149.807 32.34 150.26 32.5267 150.58 32.9C150.9 33.26 151.06 33.8 151.06 34.52V40.5H154.1ZM165.961 40.5V34.28C165.961 32.8267 165.581 31.6933 164.821 30.88C164.061 30.0667 162.848 29.66 161.181 29.66C160.274 29.66 159.501 29.74 158.861 29.9C158.221 30.06 157.608 30.2667 157.021 30.52L157.781 32.84C158.274 32.6533 158.741 32.5133 159.181 32.42C159.634 32.3133 160.154 32.26 160.741 32.26C161.501 32.26 162.074 32.4267 162.461 32.76C162.848 33.0933 163.041 33.58 163.041 34.22V34.4C162.654 34.2667 162.254 34.16 161.841 34.08C161.441 34 160.968 33.96 160.421 33.96C159.781 33.96 159.194 34.0333 158.661 34.18C158.141 34.3133 157.688 34.52 157.301 34.8C156.928 35.08 156.634 35.4333 156.421 35.86C156.208 36.2867 156.101 36.7933 156.101 37.38V37.42C156.101 37.9533 156.194 38.4267 156.381 38.84C156.581 39.24 156.848 39.58 157.181 39.86C157.514 40.14 157.901 40.3533 158.341 40.5C158.794 40.6333 159.274 40.7 159.781 40.7C160.528 40.7 161.161 40.58 161.681 40.34C162.201 40.0867 162.648 39.7533 163.021 39.34V40.5H165.961ZM163.081 36.72C163.081 37.28 162.861 37.7333 162.421 38.08C161.994 38.4267 161.421 38.6 160.701 38.6C160.208 38.6 159.808 38.4867 159.501 38.26C159.194 38.0333 159.041 37.7133 159.041 37.3V37.26C159.041 36.78 159.228 36.4133 159.601 36.16C159.974 35.9067 160.488 35.78 161.141 35.78C161.514 35.78 161.861 35.82 162.181 35.9C162.514 35.9667 162.814 36.06 163.081 36.18V36.72ZM174.597 40.06V37.62C174.13 37.8733 173.63 38 173.097 38C172.443 38 172.117 37.6533 172.117 36.96V32.38H174.637V29.78H172.117V27.04H169.077V29.78H167.797V32.38H169.077V37.46C169.077 38.0867 169.15 38.6067 169.297 39.02C169.457 39.42 169.67 39.7467 169.937 40C170.217 40.2533 170.543 40.4267 170.917 40.52C171.303 40.6267 171.73 40.68 172.197 40.68C172.703 40.68 173.15 40.62 173.537 40.5C173.923 40.3933 174.277 40.2467 174.597 40.06Z" fill="#F8F8F7"/>
</svg>
