<svg width="38" height="38" viewBox="0 0 38 38" fill="none" xmlns="http://www.w3.org/2000/svg">
<rect width="38" height="38" fill="white" fill-opacity="0.01"/>
<path fill-rule="evenodd" clip-rule="evenodd" d="M10.2678 27.9759C10.5618 28.2701 10.911 28.5035 11.2953 28.6627C11.6796 28.8219 12.0914 28.9038 12.5074 28.9038C12.9234 28.9038 13.3353 28.8219 13.7195 28.6627C14.1038 28.5035 14.453 28.2701 14.747 27.9759L10.2678 23.4951C9.97335 23.7892 9.73978 24.1384 9.58042 24.5228C9.42106 24.9073 9.33904 25.3193 9.33904 25.7355C9.33904 26.1516 9.42106 26.5637 9.58042 26.9481C9.73978 27.3326 9.97335 27.6818 10.2678 27.9759ZM18.0214 8.67348L16.8734 9.8214C15.6353 11.0596 13.3743 12.692 11.7973 13.4805L7.02036 15.8697C6.23661 16.2624 6.0957 17.0952 6.72428 17.7238L20.2713 31.2708C20.9014 31.8978 21.7311 31.7664 22.1254 30.9731L24.5162 26.1978C25.2984 24.6335 26.9324 22.3661 28.1753 21.1216L29.3232 19.9721C30.6266 18.6688 31.4396 16.955 31.6242 15.121C31.8089 13.287 31.354 11.4455 30.3365 9.90848C30.5068 9.77205 30.6473 9.60222 30.7495 9.40944C30.8517 9.21666 30.9134 9.00501 30.9307 8.78752C30.948 8.57002 30.9207 8.35128 30.8503 8.14475C30.7799 7.93823 30.668 7.74829 30.5215 7.58662C30.375 7.42495 30.1969 7.29497 29.9983 7.20469C29.7997 7.1144 29.5847 7.06572 29.3665 7.06163C29.1484 7.05754 28.9317 7.09814 28.7298 7.18092C28.528 7.2637 28.3452 7.38691 28.1927 7.54298C28.1563 7.58256 28.1199 7.62057 28.0882 7.66173C26.7795 6.794 25.2441 6.33138 23.6739 6.33173C22.624 6.33048 21.5843 6.53656 20.6142 6.93814C19.6442 7.33973 18.7631 7.92892 18.0214 8.6719V8.67348Z" fill="#AAAAAA"/>
</svg>
