<svg width="23" height="23" viewBox="0 0 23 23" fill="none" xmlns="http://www.w3.org/2000/svg">
<rect width="23" height="23" fill="white" fill-opacity="0.01"/>
<path fill-rule="evenodd" clip-rule="evenodd" d="M4.75 2.5H18.25C18.8467 2.5 19.419 2.73705 19.841 3.15901C20.2629 3.58097 20.5 4.15326 20.5 4.75V18.25C20.5 18.8467 20.2629 19.419 19.841 19.841C19.419 20.2629 18.8467 20.5 18.25 20.5H4.75C4.15326 20.5 3.58097 20.2629 3.15901 19.841C2.73705 19.419 2.5 18.8467 2.5 18.25V4.75C2.5 4.15326 2.73705 3.58097 3.15901 3.15901C3.58097 2.73705 4.15326 2.5 4.75 2.5V2.5ZM5.5 16C5.5 16.417 5.8345 16.75 6.24625 16.75H12.2537C12.6588 16.75 13 16.414 13 16C13 15.583 12.6655 15.25 12.2537 15.25H6.24625C5.84125 15.25 5.5 15.586 5.5 16ZM5.5 13C5.5 13.417 5.836 13.75 6.25 13.75H16.75C17.1663 13.75 17.5 13.414 17.5 13C17.5 12.583 17.164 12.25 16.75 12.25H6.25C5.83375 12.25 5.5 12.586 5.5 13ZM5.5 10C5.5 10.417 5.836 10.75 6.25 10.75H16.75C17.1663 10.75 17.5 10.414 17.5 10C17.5 9.583 17.164 9.25 16.75 9.25H6.25C5.83375 9.25 5.5 9.586 5.5 10ZM5.5 7C5.5 7.417 5.836 7.75 6.25 7.75H16.75C17.1663 7.75 17.5 7.414 17.5 7C17.5 6.583 17.164 6.25 16.75 6.25H6.25C5.83375 6.25 5.5 6.586 5.5 7Z" fill="#9DA9B3"/>
</svg>
