<svg width="84" height="79" viewBox="0 0 84 79" fill="none" xmlns="http://www.w3.org/2000/svg">
<g clip-path="url(#clip0_29440_19295)">
<path d="M37.7095 70.1379C29.6638 70.1379 23.1151 63.9167 23.1151 56.2733V9.84863L6.52627 13.4565C2.42606 14.4809 -0.0324321 18.4968 1.0522 22.4278L15.2756 72.8779C16.22 76.1405 19.3758 78.2999 22.7618 78.2999C23.3968 78.2999 24.0426 78.2246 24.6814 78.0651L59.2952 70.1379H37.7095Z" fill="#B0BEC5"/>
<path d="M83.2078 8.97133V56.2734C83.2078 61.2319 78.9838 65.2448 73.7643 65.2448H37.7081C34.1713 65.2448 31.0809 63.3853 29.4669 60.6447C28.7111 59.3724 28.2646 57.8719 28.2646 56.2734V8.97133C28.2646 4.01228 32.4887 0 37.7081 0H73.7643C78.9838 0 83.2078 4.01228 83.2078 8.97133Z" fill="#ECEFF1"/>
<path d="M52.305 22.8356C52.305 26.4393 49.2303 29.3602 45.4369 29.3602C41.6442 29.3602 38.5688 26.4393 38.5688 22.8356C38.5688 19.2325 41.6442 16.3115 45.4369 16.3115C49.2303 16.3115 52.305 19.2325 52.305 22.8356Z" fill="#00C48C"/>
<path d="M83.2088 38.9507V56.2733C83.2088 61.2317 78.9847 65.2446 73.7653 65.2446H37.7091C34.1722 65.2446 31.0818 63.3851 29.4678 60.6446L63.4981 28.3158C65.8327 26.0979 69.6789 26.0979 72.0141 28.3158L83.2088 38.9507Z" fill="#144A22"/>
<path d="M73.1117 65.245H37.7082C34.1713 65.245 31.0809 63.3855 29.4669 60.645C28.7111 59.3727 28.2646 57.8722 28.2646 56.2737V48.7378L37.7427 39.7342C40.0774 37.5157 43.9235 37.5157 46.2588 39.7342L73.1117 65.245Z" fill="#4A5568"/>
</g>
<defs>
<clipPath id="clip0_29440_19295">
<rect width="82.4211" height="78.3" fill="white" transform="translate(0.789551)"/>
</clipPath>
</defs>
</svg>
