<svg width="20" height="21" viewBox="0 0 20 21" fill="none" xmlns="http://www.w3.org/2000/svg">
<path fill-rule="evenodd" clip-rule="evenodd" d="M9 0.5H11C12.5977 0.5 13.9037 1.74892 13.9949 3.32373L14 3.5V4.5H17C18.6569 4.5 20 5.84315 20 7.5V17.5C20 19.1569 18.6569 20.5 17 20.5H3C1.34315 20.5 0 19.1569 0 17.5V7.5C0 5.84315 1.34315 4.5 3 4.5H6V3.5C6 1.90232 7.24892 0.596339 8.82373 0.505093L9 0.5H11H9ZM18 14.5H2V17.5C2 18.0523 2.44772 18.5 3 18.5H17C17.5523 18.5 18 18.0523 18 17.5V14.5ZM17 6.5H3C2.44772 6.5 2 6.94772 2 7.5V12.5H18V7.5C18 6.94772 17.5523 6.5 17 6.5ZM11 2.5H9C8.48716 2.5 8.06449 2.88604 8.00673 3.38338L8 3.5V4.5H12V3.5C12 2.98716 11.614 2.56449 11.1166 2.50673L11 2.5Z" fill="#144A22"/>
</svg>
