<svg width="44" height="45" viewBox="0 0 44 45" fill="none" xmlns="http://www.w3.org/2000/svg">
<path fill-rule="evenodd" clip-rule="evenodd" d="M10.3604 40.3921C9.1712 41.4114 7.33398 40.5664 7.33398 39.0001V9.66675C7.33398 6.62918 9.79642 4.16675 12.834 4.16675H31.1673C34.2049 4.16675 36.6673 6.62918 36.6673 9.66675V39.0001C36.6673 40.5664 34.8301 41.4114 33.6409 40.3921L22.0006 30.4147L10.3604 40.3921ZM33.0007 35.014V9.66675C33.0007 8.65423 32.1798 7.83341 31.1673 7.83341H12.834C11.8215 7.83341 11.0007 8.65423 11.0007 9.66675V35.014L20.8075 26.6081C21.4941 26.0196 22.5072 26.0196 23.1938 26.6081L33.0007 35.014Z" fill="#3BC359"/>
</svg>
