<svg width="24" height="24" viewBox="0 0 24 24" fill="none" xmlns="http://www.w3.org/2000/svg">
<path d="M18.5952 19.6558C18.8883 19.9484 19.3632 19.948 19.6558 19.6548C19.9484 19.3617 19.948 18.8868 19.6548 18.5942L18.5952 19.6558ZM15.6315 15.6379L15.1015 15.1072L15.6315 15.6379ZM11.1779 16.7308C8.11111 16.7308 5.625 14.2447 5.625 11.1779H4.125C4.125 15.0731 7.28268 18.2308 11.1779 18.2308V16.7308ZM5.625 11.1779C5.625 8.11111 8.11111 5.625 11.1779 5.625V4.125C7.28268 4.125 4.125 7.28268 4.125 11.1779H5.625ZM11.1779 5.625C14.2447 5.625 16.7308 8.11111 16.7308 11.1779H18.2308C18.2308 7.28268 15.0731 4.125 11.1779 4.125V5.625ZM16.7308 11.1779C16.7308 12.7129 16.1089 14.1013 15.1015 15.1072L16.1614 16.1686C17.439 14.8928 18.2308 13.1271 18.2308 11.1779H16.7308ZM15.1015 15.1072C14.0961 16.1112 12.71 16.7308 11.1779 16.7308V18.2308C13.1234 18.2308 14.8862 17.442 16.1614 16.1686L15.1015 15.1072ZM15.1016 16.1687L18.5952 19.6558L19.6548 18.5942L16.1613 15.1071L15.1016 16.1687Z" fill="black"/>
</svg>
