<svg width="204" height="153" viewBox="0 0 204 153" fill="none" xmlns="http://www.w3.org/2000/svg">
<g clip-path="url(#clip0_29425_16896)">
<path opacity="0.18" d="M43.7985 22.395C57.3864 20.4223 71.377 21.7811 84.8491 19.0735C98.9403 16.2402 111.773 9.10906 125.356 4.37342C138.939 -0.362222 154.626 -2.491 167.227 4.44891C174.942 8.70142 180.619 15.903 185.073 23.5223C193.851 38.548 198.609 55.5825 198.887 72.9824C199.013 81.6082 198.011 90.2944 195.364 98.5075C186.517 125.955 159.739 144.953 131.501 150.811C100.49 157.248 66.7722 149.402 41.7301 130.021C20.4071 113.489 -0.679295 84.0137 6.5525 57.165C11.3485 39.3095 23.4267 25.3542 43.7985 22.395Z" fill="#144A22"/>
<path d="M150.388 95.9004L134.918 107.349C134.589 107.593 134.177 107.695 133.772 107.635C133.367 107.575 133.003 107.356 132.759 107.027L126.343 98.3563C126.222 98.1947 126.136 98.0095 126.091 97.8127C126.016 97.5169 126.03 97.2054 126.132 96.9178C126.234 96.6302 126.42 96.3794 126.665 96.1973L142.14 84.7482C142.323 84.6137 142.533 84.521 142.755 84.4767C142.978 84.4323 143.208 84.4374 143.428 84.4915C143.776 84.5801 144.083 84.7842 144.299 85.0703L150.715 93.7464C150.835 93.9093 150.922 94.0942 150.971 94.2907C151.019 94.4871 151.028 94.6911 150.998 94.8912C150.968 95.0912 150.898 95.2833 150.794 95.4565C150.689 95.6296 150.551 95.7805 150.388 95.9004Z" fill="#144A22"/>
<path d="M143.428 84.4915L140.565 97.3548L126.091 97.8127C126.016 97.5169 126.03 97.2054 126.132 96.9178C126.234 96.6302 126.42 96.3794 126.665 96.1973L142.14 84.7482C142.323 84.6137 142.533 84.521 142.755 84.4767C142.978 84.4323 143.208 84.4374 143.428 84.4915Z" fill="url(#paint0_linear_29425_16896)"/>
<path d="M135.371 97.5212L135.844 106.66L150.388 95.9007L141.586 92.7554L140.564 97.3551L135.371 97.5212Z" fill="url(#paint1_linear_29425_16896)"/>
<path d="M153.267 22.707L135.985 47.3314L132.663 38.1168C121.193 41.1633 109.901 44.8444 98.8395 49.1431C86.087 54.221 73.8075 60.5318 70.2797 67.054C62.1923 82.0359 81.1903 88.6588 81.1903 88.6588C77.5759 88.9478 73.9413 88.8601 70.3451 88.3971C60.8688 87.1541 49.1026 82.5644 52.5097 67.054C55.2021 54.7997 72.7305 44.493 89.952 37.1505H89.9771C92.4934 36.0836 95.0097 35.0821 97.4555 34.131L97.526 34.1008C106.739 30.5781 116.135 27.5542 125.673 25.0421L124.017 16.98L153.267 22.707Z" fill="#144A22"/>
<path d="M70.2799 67.0538C62.1925 82.0358 81.1904 88.6586 81.1904 88.6586C77.5761 88.9476 73.9415 88.8599 70.3453 88.3969C68.9213 86.7393 67.5907 85.0037 66.3595 83.1983C55.4539 67.3356 78.8453 54.8348 78.8453 54.8348C80.7929 47.7237 89.9521 41.8407 89.9521 41.8407V37.1503H89.9773L97.4557 34.1308L97.5261 34.1006L99.1718 47.8496L98.8396 49.1329C86.0871 54.2208 73.8077 60.5316 70.2799 67.0538Z" fill="url(#paint2_linear_29425_16896)"/>
<path d="M123.313 118.789C122.852 119.572 122.567 120.446 122.478 121.35C122.493 122.255 122.786 123.134 123.318 123.867C124.41 125.487 126.085 126.624 127.993 127.042C128.243 127.119 128.512 127.106 128.753 127.007C128.919 126.905 129.047 126.754 129.121 126.574C129.578 125.643 129.392 124.536 129.09 123.555C128.788 122.573 128.376 121.577 128.421 120.535C128.496 118.587 131.28 114.828 128.039 113.912C125.336 113.127 124.174 117.052 123.313 118.789Z" fill="#B2857F"/>
<path d="M121.411 121.33C121.411 121.33 120.454 122.115 120.636 122.981C120.817 123.846 124.254 129.88 129.151 129.191C134.047 128.501 126.005 123.655 126.005 123.655L121.411 121.33Z" fill="#144A22"/>
<path d="M122.89 119.101C123.091 119.108 123.282 119.187 123.429 119.324C123.576 119.461 123.669 119.646 123.69 119.845C123.818 120.42 124.09 120.953 124.481 121.393C124.872 121.834 125.369 122.167 125.925 122.362C127.203 122.709 128.371 121.642 128.944 121.944C129.518 122.246 131.129 126.448 130.706 127.646C130.283 128.844 128.3 128.813 126.539 127.993C124.777 127.173 121.567 123.897 121.32 122.603C121.073 121.31 122.191 119.448 122.89 119.101Z" fill="white"/>
<path d="M102.549 125.749C102.074 126.642 101.799 127.627 101.743 128.637C101.813 129.634 102.181 130.586 102.8 131.37C104.093 133.121 106.01 134.308 108.155 134.681C108.435 134.755 108.733 134.729 108.995 134.606C109.173 134.48 109.309 134.305 109.388 134.103C109.851 133.046 109.584 131.823 109.207 130.736C108.829 129.649 108.326 128.577 108.306 127.429C108.306 125.265 111.21 120.942 107.566 120.082C104.521 119.362 103.414 123.781 102.549 125.749Z" fill="#B2857F"/>
<path d="M100.551 128.703C100.551 128.703 99.544 129.624 99.7705 130.575C99.997 131.526 104.114 138.073 109.529 137.067C114.944 136.06 105.774 131.103 105.774 131.103L100.551 128.703Z" fill="#144A22"/>
<path d="M102.086 126.126C102.311 126.124 102.529 126.203 102.7 126.349C102.871 126.495 102.984 126.698 103.017 126.921C103.185 127.552 103.512 128.13 103.968 128.597C104.424 129.065 104.992 129.408 105.618 129.593C107.058 129.916 108.311 128.683 108.945 128.985C109.579 129.286 111.592 133.891 111.169 135.235C110.747 136.579 108.547 136.649 106.549 135.824C104.551 134.998 100.822 131.506 100.51 130.082C100.198 128.657 101.326 126.549 102.086 126.126Z" fill="white"/>
<path d="M113.404 73.264C113.541 73.2879 113.675 73.3232 113.806 73.3697C116.987 74.5775 120.817 79.9623 122.981 82.5189C125.794 85.7566 128.135 89.3755 129.936 93.2684C133.589 101.426 133.927 111.562 128.793 118.879L124.848 118.054C124.503 118.016 124.179 117.873 123.917 117.646C123.782 117.449 123.689 117.226 123.643 116.992C123.597 116.757 123.6 116.516 123.65 116.282C123.859 113.464 123.728 110.63 123.263 107.843C123.002 105.932 122.417 104.08 121.531 102.367C120.293 100.138 118.341 98.4117 116.438 96.7208C110.399 91.3711 104.984 85.8404 101.99 78.2764C104.692 76.9478 110.49 72.7507 113.404 73.264Z" fill="#473F47"/>
<path d="M104.265 77.3706C104.395 77.4225 104.518 77.4901 104.632 77.5719C107.445 79.4843 109.916 85.624 111.426 88.6033C113.403 92.4103 114.837 96.476 115.684 100.681C117.329 109.463 115.301 119.398 108.603 125.341L104.954 123.615C104.629 123.497 104.347 123.285 104.144 123.006C104.059 122.781 104.021 122.542 104.032 122.303C104.042 122.063 104.101 121.828 104.204 121.612C105.065 118.919 105.599 116.133 105.795 113.313C105.987 111.395 105.85 109.458 105.387 107.586C104.708 105.135 103.208 103.001 101.753 100.908C97.1486 94.3052 93.1528 87.6572 92.0054 79.6051C94.9394 78.9408 101.557 76.2131 104.265 77.3706Z" fill="#473F47"/>
<path d="M120.656 58.2018C120.658 58.2235 120.658 58.2455 120.656 58.2672C120.701 59.1076 120.978 59.8474 120.761 60.703C120.53 61.6541 119.644 62.5147 118.678 62.3738C117.873 62.258 117.324 61.5333 116.705 61.0049C116.057 60.4862 115.339 60.0625 114.571 59.7468C113.565 59.2787 112.528 58.8409 111.491 58.4383C110.827 58.1766 109.559 58.0156 109.277 57.3362C108.995 56.6568 109.086 55.5848 109.005 54.8652L107.752 43.4463L119.413 53.0082C119.891 54.0538 120.263 55.1445 120.525 56.2642C120.636 56.9037 120.68 57.5531 120.656 58.2018Z" fill="white"/>
<path d="M112 59.4599C112.07 60.1343 112.226 60.8036 112.307 61.4729C112.729 65.192 112.271 69.1325 113.781 72.6603C114.123 73.4454 114.566 74.2808 114.365 75.1162C114.119 75.8242 113.623 76.4183 112.971 76.787C109.891 78.941 106.152 79.9022 102.508 80.8131C99.7654 81.5076 95.9055 82.7708 93.1677 81.5529C92.0002 81.0496 91.4969 79.8821 91.0188 78.7346C89.5091 75.081 88.7139 71.0549 87.9993 67.1597C87.9087 66.6565 87.8131 66.1532 87.7275 65.6248C87.1337 62.1121 86.669 58.5692 86.3335 54.996C86.102 52.3992 85.9963 49.581 87.4759 47.4472C89.4386 44.5988 93.5955 42.4146 96.8315 41.4081C97.8779 41.0712 98.9682 40.8898 100.067 40.8696C101.633 40.9428 103.176 41.2832 104.627 41.8761C106.353 42.5052 107.888 43.0286 108.869 44.5585C109.957 46.3357 110.791 48.2567 111.345 50.2654C111.868 52.1464 112.127 54.0907 112.115 56.0428C112.115 56.999 111.985 57.9652 111.99 58.9164C111.974 59.0974 111.977 59.2796 112 59.4599Z" fill="white"/>
<path opacity="0.1" d="M99.1164 82.2067C98.0696 82.6445 95.4728 81.9249 94.6323 81.8695C94.1291 81.8393 93.6258 81.638 93.1226 81.5776C90.6063 81.2304 89.5344 74.3358 89.0965 72.519C87.9189 67.6626 86.3789 62.6703 85.765 57.7384C85.5335 55.831 85.3674 53.8834 85.7952 52.0164C86.2229 50.1493 87.3049 48.3476 89.0412 47.4871C92.0607 46.0075 94.0989 55.8663 94.7582 57.8793C95.5835 60.3956 96.4139 62.9119 97.2342 65.4281C97.5965 66.5554 97.7123 67.8085 98.3313 68.8402C99.2724 70.4053 100.068 70.1084 101.643 69.8467C104.949 69.273 108.039 67.8689 111.295 67.0839C111.429 67.0338 111.572 67.0115 111.714 67.0185C111.857 67.0254 111.997 67.0613 112.126 67.1241C112.301 67.2684 112.42 67.4696 112.463 67.6928C112.654 68.3283 112.759 68.9868 112.775 69.6505C112.794 69.8404 112.766 70.0322 112.694 70.2091C112.581 70.3897 112.423 70.5386 112.236 70.6419C110.036 72.0977 107.619 73.1966 105.075 73.8979C103.062 74.4616 101.155 75.4077 99.7958 77.0886C98.5728 78.5984 100.163 80.1887 99.4988 81.8242C99.4642 81.9105 99.4124 81.9888 99.3467 82.0545C99.2809 82.1203 99.2026 82.172 99.1164 82.2067Z" fill="#020202"/>
<path d="M96.8215 74.6028L116.116 68.0957L130.268 76.1679L110.576 84.2402L96.8215 74.6028Z" fill="#144A22"/>
<path d="M96.8215 74.6028L116.116 68.0957L130.268 76.1679L110.576 84.2402L96.8215 74.6028Z" fill="url(#paint3_linear_29425_16896)"/>
<path d="M97.6167 73.5608L116.912 67.0537L131.063 75.1259L111.371 83.1982L97.6167 73.5608Z" fill="#144A22"/>
<path d="M112.317 82.0861L128.28 75.0355L120.49 70.7578L104.617 76.7667L112.317 82.0861Z" fill="url(#paint4_linear_29425_16896)"/>
<path d="M111.371 83.1986H130.399L146.78 72.9976L131.063 75.1263L111.371 83.1986Z" fill="#144A22"/>
<path d="M104.879 36.4408C104.682 37.1504 104.471 37.86 104.244 38.5646C103.741 40.175 102.735 41.6445 100.983 42.032C100.596 42.1065 100.204 42.1536 99.8108 42.1729C99.7353 42.1729 99.6498 42.1729 99.5491 42.1729C99.5436 42.1756 99.5376 42.177 99.5315 42.177C99.5254 42.177 99.5194 42.1756 99.5139 42.1729H99.4686C99.2721 42.1637 99.0753 42.184 98.8848 42.2333C98.8316 42.2361 98.7798 42.2516 98.7338 42.2786C98.2306 42.5101 98.2708 43.3254 98.3061 43.7884C98.43 44.3093 98.3695 44.857 98.135 45.3384C98.135 45.3384 98.135 45.3686 98.1048 45.3887C97.9653 45.5409 97.7968 45.6638 97.6093 45.7502C97.4218 45.8366 97.219 45.8848 97.0127 45.892C96.145 45.9621 95.2832 45.6994 94.6021 45.1572C94.2124 44.7954 93.8992 44.359 93.6811 43.8739C93.6129 43.7361 93.5557 43.593 93.51 43.4461C93.4529 43.1971 93.4309 42.9413 93.4446 42.6862C93.4538 42.2949 93.4908 41.9047 93.5553 41.5187C93.741 40.7567 93.8871 39.9857 93.9932 39.2087C93.9998 38.8151 94.0267 38.422 94.0737 38.0311C94.1381 37.7813 94.1852 37.5274 94.2146 37.2712C94.2146 36.5314 93.8372 35.8168 93.8321 35.0669C93.8254 34.3254 93.8946 33.5851 94.0385 32.8576C94.307 31.4146 94.9353 30.0627 95.8653 28.9272C97.5914 26.9142 100.651 25.9077 103.057 27.0551C104.259 27.6286 105.192 28.6461 105.659 29.8935C106.464 32.0122 105.457 34.3724 104.879 36.4408Z" fill="#B2857F"/>
<path d="M102.372 72.7705C102.795 72.7202 103.223 72.6749 103.646 72.6397C103.898 72.6042 104.155 72.6196 104.401 72.685C104.522 72.7166 104.632 72.7799 104.72 72.8684C104.809 72.9568 104.872 73.0672 104.904 73.1882C104.901 73.2802 104.92 73.3716 104.959 73.4549C105.024 73.5295 105.113 73.5778 105.211 73.5908C106.721 73.9834 108.281 74.5973 109.182 75.8404C109.289 75.958 109.364 76.1015 109.399 76.2567C109.434 76.4119 109.429 76.5737 109.383 76.7261C109.177 77.1488 108.573 77.0884 108.12 76.9626C108.185 77.0556 108.219 77.1663 108.219 77.2797C108.219 77.3931 108.185 77.5038 108.12 77.5967C108.052 77.688 107.963 77.7614 107.86 77.8105C107.758 77.8597 107.645 77.883 107.531 77.8786C107.381 77.8509 107.228 77.8509 107.078 77.8786C106.975 77.9263 106.88 77.9891 106.796 78.0648C106.584 78.2048 106.346 78.3002 106.096 78.3452C105.846 78.3902 105.589 78.3838 105.342 78.3265C104.838 78.251 104.335 78.0799 103.832 78.0396C103.052 77.9792 102.352 78.2359 101.628 77.9188C100.829 77.5233 99.9834 77.2291 99.1114 77.0432C98.8341 76.9986 98.5783 76.8663 98.3817 76.6657C98.297 76.4953 98.2529 76.3075 98.2529 76.1172C98.2529 75.9268 98.297 75.7391 98.3817 75.5686C98.512 74.9512 98.7468 74.3606 99.0762 73.8223C99.5039 73.2184 100.219 73.1127 100.918 72.9919C101.431 72.9064 101.889 72.841 102.372 72.7705Z" fill="#B2857F"/>
<path d="M87.4661 47.4418C83.7671 53.5665 80.1135 60.6624 79.0617 67.7986C78.7849 69.6757 78.6339 71.89 79.5146 73.6514C80.9539 76.52 85.8506 77.0786 88.6689 77.3655C92.0436 77.7076 95.4419 77.7531 98.8246 77.5014C98.8986 77.5154 98.9749 77.5109 99.0467 77.4884C99.1186 77.4658 99.1838 77.4259 99.2366 77.3722C99.2893 77.3184 99.328 77.2525 99.3492 77.1802C99.3704 77.1079 99.3734 77.0316 99.358 76.9578L99.4989 73.7018C99.5223 73.5498 99.5013 73.3943 99.4385 73.2539C99.3504 73.1513 99.2393 73.071 99.1142 73.0194C98.9892 72.9678 98.8537 72.9464 98.7189 72.9569C96.7477 72.799 94.8109 72.3496 92.9717 71.6233C91.2254 70.9288 87.8133 69.107 88.0599 66.8122C88.1958 65.5239 89.6099 63.9537 90.3095 62.9371C91.9903 60.4963 93.8021 58.131 95.6541 55.816C95.6541 55.816 95.8352 42.6458 87.4661 47.4418Z" fill="white"/>
<path d="M104.3 33.4818C104.55 33.4239 104.785 33.3137 104.99 33.1584C105.195 33.0032 105.364 32.8064 105.488 32.581C105.694 33.1597 106.67 32.9836 106.917 32.4149C107.163 31.8462 106.917 31.202 106.695 30.6334C106.927 30.5789 107.141 30.4678 107.318 30.3099C107.495 30.152 107.631 29.9524 107.712 29.7291C107.793 29.5059 107.817 29.2659 107.781 29.031C107.746 28.7962 107.653 28.5737 107.511 28.3838C107.345 28.1976 107.113 28.0366 107.068 27.7849C107.057 27.5932 107.086 27.4012 107.153 27.2213C107.185 26.9258 107.138 26.6274 107.017 26.356C106.895 26.0847 106.705 25.8502 106.464 25.6763C105.969 25.335 105.417 25.0861 104.833 24.9415C104.99 24.6868 105.048 24.3837 104.997 24.0891C104.946 23.7944 104.79 23.5285 104.557 23.3412C104.079 22.9768 103.501 22.7693 102.901 22.7473C102.03 22.6517 101.069 22.692 100.385 23.2506C99.9173 22.9605 99.3665 22.8347 98.8195 22.8931C98.2726 22.9514 97.7607 23.1906 97.3651 23.5727C97.2245 23.7676 97.0279 23.915 96.8014 23.9954C96.6396 24.0071 96.4773 23.9795 96.3284 23.9149C95.6938 23.6435 94.9918 23.5716 94.3153 23.7086C93.9773 23.7892 93.6817 23.9936 93.487 24.2815C93.2922 24.5694 93.2125 24.9198 93.2635 25.2636C93.0136 25.2936 92.7789 25.3994 92.5909 25.5667C92.4029 25.7341 92.2705 25.9549 92.2117 26.1997C92.2003 26.3532 92.1519 26.5017 92.0708 26.6325C91.9249 26.8036 91.6682 26.7935 91.4518 26.8137C91.039 26.8496 90.655 27.04 90.3764 27.3467C90.0979 27.6534 89.9452 28.0539 89.949 28.4682C89.9529 28.8826 90.1128 29.2802 90.397 29.5817C90.6812 29.8833 91.0686 30.0665 91.482 30.0949C91.4344 30.2971 91.4291 30.5069 91.4663 30.7113C91.5036 30.9157 91.5826 31.1101 91.6984 31.2826C91.9651 31.7103 92.3225 31.7405 92.6747 32.0073C92.8811 32.1683 92.8005 32.1834 92.7905 32.5105C92.7803 32.8115 92.7955 33.1129 92.8358 33.4113C92.9044 33.9863 93.0483 34.5497 93.2635 35.0872C93.4145 35.4747 93.6058 35.8471 93.7416 36.2396C93.9288 36.8409 94.0536 37.4598 94.114 38.0866L94.9645 35.681C94.9741 35.6482 94.9741 35.6133 94.9645 35.5804C94.9475 35.5357 94.9155 35.4984 94.874 35.4747C94.5031 35.1857 94.2421 34.7787 94.1341 34.3211C94.0261 33.8635 94.0776 33.3827 94.2801 32.9584C94.3367 32.8253 94.4266 32.7091 94.5412 32.6209C94.6558 32.5328 94.7912 32.4757 94.9344 32.4552C95.2766 32.4552 95.5383 32.7521 95.7043 33.049C95.8811 33.3653 96.0148 33.7038 96.1019 34.0555C96.3322 33.5048 96.65 32.995 97.043 32.5457C97.2091 32.3595 97.4104 32.0425 97.6771 32.1381C97.9438 32.2337 98.0696 32.7168 98.1804 32.893C98.5768 32.7388 98.938 32.506 99.2422 32.2086C99.2072 32.5578 99.2729 32.9098 99.4317 33.2228C99.5904 33.5359 99.8355 33.7969 100.138 33.975C100.772 34.2719 101.693 33.8492 101.693 33.1446C101.693 33.4617 103.067 32.9282 103.168 32.8678C103.274 33.0713 103.438 33.2384 103.64 33.3478C103.842 33.4572 104.072 33.5038 104.3 33.4818Z" fill="#473F47"/>
<path d="M97.6618 42.198C98.0672 42.2512 98.4764 42.268 98.8848 42.2483C98.8315 42.2511 98.7797 42.2666 98.7338 42.2936C98.2305 42.5251 98.2708 43.3404 98.306 43.8034C98.4299 44.3243 98.3695 44.8721 98.1349 45.3534C97.9782 45.3546 97.8222 45.3326 97.6719 45.288C97.518 45.2337 97.3761 45.1499 97.2542 45.0414C96.7978 44.6657 96.4639 44.1623 96.2954 43.5956C96.1268 43.029 96.1312 42.4249 96.3081 41.8608C96.7438 42.0285 97.1984 42.1417 97.6618 42.198Z" fill="#96625E"/>
<path d="M117.606 51.5337C117.606 51.5337 126.821 58.3327 125.547 65.1216C124.365 71.4375 123.303 76.46 123.303 76.46L118.99 73.9437C118.99 73.9437 121.874 64.4271 115.855 60.2903C109.836 56.1536 117.606 51.5337 117.606 51.5337Z" fill="white"/>
<path d="M118.225 73.848L117.812 75.9868C117.74 76.2578 117.729 76.5417 117.782 76.8172C117.81 76.9547 117.883 77.079 117.99 77.1702C118.097 77.2614 118.231 77.3143 118.371 77.3204C118.673 77.3204 118.93 76.9883 119.232 77.0487C119.339 77.0808 119.441 77.1301 119.534 77.1946C120.178 77.5469 120.958 77.1946 121.637 76.8776C121.746 76.8166 121.871 76.7936 121.994 76.8122C122.14 76.8524 122.231 76.9984 122.357 77.089C122.483 77.1646 122.628 77.2003 122.775 77.1913C122.921 77.1823 123.062 77.1291 123.177 77.0386C123.405 76.8491 123.579 76.6025 123.68 76.324C123.951 75.7288 124.069 75.0753 124.022 74.423C123.976 73.7707 123.766 73.1405 123.414 72.5898C123.027 72.1124 122.52 71.7475 121.945 71.5333C121.369 71.319 120.747 71.2633 120.142 71.372C118.834 71.5783 118.462 72.6049 118.225 73.848Z" fill="#B2857F"/>
<path d="M110.575 84.2401H129.604L145.985 74.0391L130.268 76.1678L110.575 84.2401Z" fill="#144A22"/>
<path d="M111.371 83.1982L110.575 84.24H129.604L130.399 83.1982H111.371Z" fill="url(#paint5_linear_29425_16896)"/>
<path d="M146.78 72.9976L145.985 74.0393L129.604 84.2403L130.399 83.1986L146.78 72.9976Z" fill="#144A22"/>
<path d="M146.78 72.9976L145.985 74.0393L129.604 84.2403L130.399 83.1986L146.78 72.9976Z" fill="url(#paint6_linear_29425_16896)"/>
<path d="M131.254 75.579L144.268 73.7622L130.696 82.0861L115.885 82.3427L131.254 75.579Z" fill="white"/>
<path d="M109.081 74.4516L116.449 71.7189L112.896 69.1221L105.337 71.7189L109.081 74.4516Z" fill="url(#paint7_linear_29425_16896)"/>
<path d="M93.3138 102.619L64.0796 115.966C63.4575 116.249 62.7484 116.274 62.1078 116.035C61.4672 115.797 60.9475 115.314 60.6625 114.692L53.1841 98.3062C53.0411 98.0021 52.9639 97.6711 52.9577 97.335C52.9382 96.8241 53.0715 96.3191 53.3404 95.8844C53.6093 95.4496 54.0017 95.1049 54.4674 94.8942L83.7016 81.5478C84.0481 81.3919 84.4246 81.3139 84.8046 81.3191C85.1845 81.3243 85.5587 81.4127 85.9008 81.578C86.4392 81.8379 86.8699 82.2775 87.1187 82.821L94.587 99.2121C94.7272 99.5194 94.8054 99.8513 94.8173 100.189C94.8291 100.526 94.7744 100.863 94.6561 101.179C94.5379 101.496 94.3585 101.786 94.1282 102.033C93.8979 102.28 93.6211 102.479 93.3138 102.619Z" fill="#144A22"/>
<path d="M93.3138 102.619L64.0796 115.966C63.4575 116.249 62.7484 116.274 62.1078 116.035C61.4672 115.797 60.9475 115.314 60.6625 114.692L53.1841 98.3062C53.0411 98.0021 52.9639 97.6711 52.9577 97.335C52.9382 96.8241 53.0715 96.3191 53.3404 95.8844C53.6093 95.4496 54.0017 95.1049 54.4674 94.8942L83.7016 81.5478C84.0481 81.3919 84.4246 81.3139 84.8046 81.3191C85.1845 81.3243 85.5587 81.4127 85.9008 81.578C86.4392 81.8379 86.8699 82.2775 87.1187 82.821L94.587 99.2121C94.7272 99.5194 94.8054 99.8513 94.8173 100.189C94.8291 100.526 94.7744 100.863 94.6561 101.179C94.5379 101.496 94.3585 101.786 94.1282 102.033C93.8979 102.28 93.6211 102.479 93.3138 102.619Z" fill="url(#paint8_linear_29425_16896)"/>
<path d="M94.6675 102.03L65.4334 115.377C64.8113 115.66 64.1022 115.685 63.4616 115.447C62.821 115.208 62.3012 114.725 62.0163 114.103L54.5379 97.7225C54.3966 97.4174 54.3179 97.0871 54.3064 96.7512C54.2879 96.2399 54.4215 95.7346 54.6903 95.2993C54.959 94.8639 55.3508 94.518 55.8161 94.3053L85.0503 80.964C85.672 80.6816 86.38 80.6565 87.0202 80.8941C87.6603 81.1316 88.1805 81.6126 88.4674 82.2322L95.9458 98.6233C96.0858 98.9309 96.1637 99.2631 96.1753 99.6008C96.1868 99.9386 96.1316 100.275 96.0129 100.592C95.8941 100.908 95.7142 101.198 95.4834 101.445C95.2525 101.692 94.9753 101.891 94.6675 102.03Z" fill="#144A22"/>
<path d="M87.2395 80.9639L78.1104 100.983L54.3064 96.7259C54.2879 96.2146 54.4215 95.7093 54.6903 95.274C54.959 94.8386 55.3508 94.4927 55.8161 94.2801L85.0503 80.9387C85.3946 80.7816 85.7693 80.7024 86.1477 80.7067C86.5261 80.7111 86.8989 80.7989 87.2395 80.9639Z" fill="url(#paint9_linear_29425_16896)"/>
<path d="M69.5753 99.4537L67.1848 114.546L94.6676 102.005L81.3766 93.8223L78.1105 100.984L69.5753 99.4537Z" fill="url(#paint10_linear_29425_16896)"/>
<path d="M157.257 70.1537L138.375 66.4246C138.177 66.3855 137.988 66.3076 137.819 66.1953C137.651 66.083 137.506 65.9386 137.393 65.7703C137.28 65.602 137.202 65.4132 137.162 65.2146C137.123 65.016 137.123 64.8115 137.162 64.6129L139.251 54.0445C139.288 53.8464 139.365 53.6579 139.477 53.4909C139.646 53.2352 139.886 53.0353 140.169 52.917C140.451 52.7987 140.762 52.7672 141.063 52.8266L159.945 56.5558C160.168 56.5978 160.38 56.6897 160.563 56.8248C160.746 56.9599 160.896 57.1346 161.002 57.3358C161.172 57.6511 161.229 58.0153 161.163 58.3675L159.069 68.9359C159.031 69.135 158.953 69.3246 158.841 69.4937C158.729 69.6628 158.585 69.8081 158.416 69.9213C158.248 70.0345 158.059 70.1132 157.86 70.1531C157.661 70.193 157.456 70.1932 157.257 70.1537Z" fill="#144A22"/>
<path d="M161.002 57.326L149.568 63.8684L139.503 53.4812C139.671 53.2254 139.912 53.0256 140.194 52.9073C140.476 52.7889 140.788 52.7575 141.088 52.8169L159.97 56.546C160.189 56.5915 160.395 56.685 160.574 56.8199C160.752 56.9548 160.898 57.1277 161.002 57.326Z" fill="url(#paint11_linear_29425_16896)"/>
<path d="M145.949 60.1392L139.513 66.6463L157.258 70.154L153.654 61.5281L149.568 63.8683L145.949 60.1392Z" fill="url(#paint12_linear_29425_16896)"/>
</g>
<defs>
<linearGradient id="paint0_linear_29425_16896" x1="128.678" y1="76.618" x2="141.969" y2="108.362" gradientUnits="userSpaceOnUse">
<stop offset="0.01" stop-color="white"/>
<stop offset="1" stop-color="white" stop-opacity="0"/>
</linearGradient>
<linearGradient id="paint1_linear_29425_16896" x1="119.025" y1="86.0811" x2="181.871" y2="125.674" gradientUnits="userSpaceOnUse">
<stop offset="0.01"/>
<stop offset="0.08" stop-opacity="0.69"/>
<stop offset="0.21" stop-opacity="0.32"/>
<stop offset="1" stop-opacity="0"/>
</linearGradient>
<linearGradient id="paint2_linear_29425_16896" x1="10301.8" y1="11952.5" x2="-2308.29" y2="6328.01" gradientUnits="userSpaceOnUse">
<stop offset="0.01"/>
<stop offset="0.08" stop-opacity="0.69"/>
<stop offset="0.21" stop-opacity="0.32"/>
<stop offset="1" stop-opacity="0"/>
</linearGradient>
<linearGradient id="paint3_linear_29425_16896" x1="7417.91" y1="2201.75" x2="7221.78" y2="4300.41" gradientUnits="userSpaceOnUse">
<stop offset="0.01"/>
<stop offset="0.08" stop-opacity="0.69"/>
<stop offset="0.21" stop-opacity="0.32"/>
<stop offset="1" stop-opacity="0"/>
</linearGradient>
<linearGradient id="paint4_linear_29425_16896" x1="4907.05" y1="1612.2" x2="5793.14" y2="3104.21" gradientUnits="userSpaceOnUse">
<stop offset="0.01"/>
<stop offset="0.08" stop-opacity="0.69"/>
<stop offset="0.21" stop-opacity="0.32"/>
<stop offset="1" stop-opacity="0"/>
</linearGradient>
<linearGradient id="paint5_linear_29425_16896" x1="4065.91" y1="275.17" x2="4099.15" y2="-105.881" gradientUnits="userSpaceOnUse">
<stop offset="0.01"/>
<stop offset="0.08" stop-opacity="0.69"/>
<stop offset="0.21" stop-opacity="0.32"/>
<stop offset="1" stop-opacity="0"/>
</linearGradient>
<linearGradient id="paint6_linear_29425_16896" x1="4499.9" y1="1677.56" x2="5023.76" y2="2756.19" gradientUnits="userSpaceOnUse">
<stop offset="0.01"/>
<stop offset="0.08" stop-opacity="0.69"/>
<stop offset="0.21" stop-opacity="0.32"/>
<stop offset="1" stop-opacity="0"/>
</linearGradient>
<linearGradient id="paint7_linear_29425_16896" x1="2391.28" y1="794.092" x2="2461" y2="1003.58" gradientUnits="userSpaceOnUse">
<stop offset="0.01"/>
<stop offset="0.08" stop-opacity="0.69"/>
<stop offset="0.21" stop-opacity="0.32"/>
<stop offset="1" stop-opacity="0"/>
</linearGradient>
<linearGradient id="paint8_linear_29425_16896" x1="6990.92" y1="7470.44" x2="2600.99" y2="10983.2" gradientUnits="userSpaceOnUse">
<stop offset="0.01"/>
<stop offset="0.08" stop-opacity="0.69"/>
<stop offset="0.21" stop-opacity="0.32"/>
<stop offset="1" stop-opacity="0"/>
</linearGradient>
<linearGradient id="paint9_linear_29425_16896" x1="12524.4" y1="1693.18" x2="12904.5" y2="3979.25" gradientUnits="userSpaceOnUse">
<stop offset="0.01" stop-color="white"/>
<stop offset="1" stop-color="white" stop-opacity="0"/>
</linearGradient>
<linearGradient id="paint10_linear_29425_16896" x1="9464.01" y1="2558.78" x2="12931.4" y2="6951.41" gradientUnits="userSpaceOnUse">
<stop offset="0.01"/>
<stop offset="0.08" stop-opacity="0.69"/>
<stop offset="0.21" stop-opacity="0.32"/>
<stop offset="1" stop-opacity="0"/>
</linearGradient>
<linearGradient id="paint11_linear_29425_16896" x1="-11341.5" y1="-2078.05" x2="-11681.2" y2="-1399.78" gradientUnits="userSpaceOnUse">
<stop offset="0.01" stop-color="white"/>
<stop offset="1" stop-color="white" stop-opacity="0"/>
</linearGradient>
<linearGradient id="paint12_linear_29425_16896" x1="-9840.74" y1="-1546.37" x2="-9966.74" y2="171.914" gradientUnits="userSpaceOnUse">
<stop offset="0.01"/>
<stop offset="0.08" stop-opacity="0.69"/>
<stop offset="0.21" stop-opacity="0.32"/>
<stop offset="1" stop-opacity="0"/>
</linearGradient>
<clipPath id="clip0_29425_16896">
<rect width="203" height="153" fill="white" transform="translate(0.5)"/>
</clipPath>
</defs>
</svg>
