<svg width="25" height="25" viewBox="0 0 25 25" fill="none" xmlns="http://www.w3.org/2000/svg">
<path fill-rule="evenodd" clip-rule="evenodd" d="M11.3976 2.5001L13.5201 2.5C13.5843 2.50298 13.6406 2.51032 13.7197 2.52755C14.3002 2.65394 14.5209 2.86236 15.0611 4.13884L15.1491 4.34941L15.4886 5.19059L15.5165 5.20207L15.9539 5.00406C16.9066 4.57807 17.3976 4.39863 17.7278 4.34857L17.7962 4.33978L17.9209 4.33305C18.2182 4.33305 18.521 4.43836 18.7528 4.62171L18.8624 4.71976L20.2193 6.07106L20.3137 6.17076C20.7399 6.64029 20.7797 6.97316 20.3082 8.18634L20.1513 8.57772L19.7815 9.45268L19.7886 9.46977L20.6357 9.78611L21.0441 9.94751C22.099 10.3788 22.3158 10.6087 22.4568 11.1367C22.4852 11.2432 22.4953 11.3158 22.4986 11.4058L22.5 11.5036V13.4113C22.5 13.5469 22.4954 13.6235 22.462 13.7575C22.3216 14.3213 22.1132 14.5359 20.8455 15.0714L20.6363 15.1587L19.801 15.4959L19.7952 15.5099L20.0972 16.1698C20.8484 17.8393 20.8746 18.2053 20.3809 18.7551L20.3192 18.8221L18.9263 20.2139C18.6769 20.466 18.3217 20.6048 17.9779 20.6048C17.686 20.6048 17.2275 20.466 16.4459 20.1526L16.0275 19.9812L15.5509 19.7796L15.5236 19.7909L15.2773 20.4514C14.6744 22.04 14.4678 22.2979 13.8484 22.4577C13.7569 22.4814 13.6914 22.4914 13.6171 22.4955L13.4945 22.4981H11.5856C11.4665 22.4981 11.3993 22.4945 11.2809 22.4689C10.7007 22.3431 10.4791 22.1342 9.93788 20.857L9.84966 20.6463L9.5096 19.8047L9.48344 19.7939L8.84815 20.0794C7.832 20.5268 7.39179 20.6629 7.07806 20.6629C6.78426 20.6629 6.48508 20.5597 6.24708 20.3746L6.13349 20.2753L4.77843 18.922L4.62369 18.7533C4.25208 18.3161 4.23381 17.977 4.68994 16.81L4.92762 16.2258L5.21777 15.5438L5.21172 15.5291L4.55484 15.2843C3.23708 14.7843 2.83098 14.554 2.638 14.1335L2.5858 14.0012L2.5422 13.8547C2.51752 13.761 2.50699 13.6939 2.50272 13.6176L2.5 13.4917V11.5828C2.5 11.4461 2.50474 11.3688 2.53877 11.2337C2.66566 10.7297 2.84576 10.5058 3.79447 10.0807L4.18766 9.91092L5.19733 9.50262L5.20425 9.48581L4.82674 8.65288C4.20383 7.23802 4.15224 6.80722 4.54525 6.32607L4.59903 6.26294L4.72636 6.12798L6.07616 4.78124C6.32346 4.53257 6.6772 4.39238 7.0215 4.39238C7.26776 4.39238 7.62934 4.48982 8.20805 4.70901L8.79026 4.93981L9.45028 5.21643L9.47734 5.20517L9.72549 4.54036C10.3341 2.94037 10.5513 2.6728 11.1932 2.5291C11.2742 2.51097 11.3319 2.50324 11.3976 2.5001ZM13.023 4.49811H11.9081L11.7509 4.86664C11.6912 5.01314 11.6238 5.18428 11.5478 5.38292L11.1993 6.31504C11.1157 6.53573 10.9574 6.71851 10.7538 6.83283L10.6483 6.88415L9.8292 7.225C9.6224 7.31106 9.39398 7.32472 9.1804 7.26611L9.05432 7.22227L8.08525 6.81379L7.56181 6.60506L7.20998 6.4752L6.41977 7.26362L6.51277 7.49853C6.54911 7.58701 6.59094 7.68593 6.63863 7.79613L6.7997 8.16141L7.20366 9.0445C7.30042 9.2548 7.32065 9.49074 7.26353 9.71221L7.21997 9.84304L6.88503 10.657C6.79635 10.8724 6.63575 11.049 6.43242 11.1579L6.32733 11.2066L5.23976 11.6438L4.69609 11.8768L4.5 11.9676V13.0978L4.73463 13.1995C4.82346 13.2367 4.92321 13.2772 5.03477 13.3214L5.40579 13.4653L6.30732 13.8001C6.53461 13.8821 6.72321 14.043 6.84018 14.2513L6.89255 14.3593L7.22754 15.1709C7.31356 15.3793 7.32615 15.6093 7.26566 15.8238L7.2206 15.9504L6.83182 16.8627L6.588 17.4645L6.46921 17.7841L7.25948 18.5733L7.49479 18.4803C7.58146 18.445 7.67645 18.4054 7.78 18.3612L8.50585 18.0412L9.0293 17.8002C9.24835 17.6955 9.49663 17.6747 9.72796 17.7389L9.842 17.7781L10.6659 18.1183C10.8843 18.2085 11.0625 18.3725 11.1707 18.5797L11.2189 18.6868L11.4239 19.2042L11.7157 19.9138L11.8846 20.3015L11.9762 20.4981H13.0944L13.2541 20.1217L13.4621 19.5905L13.8007 18.6825C13.8843 18.4598 14.0438 18.2755 14.2492 18.1607L14.3556 18.1093L15.176 17.7707C15.3804 17.6864 15.6058 17.6726 15.817 17.7294L15.9417 17.7719L16.7143 18.0996L17.2781 18.3292L17.5867 18.4482L17.7903 18.5219L18.5815 17.7322L18.429 17.3559L18.2004 16.8344L17.7956 15.952C17.6985 15.7413 17.6782 15.5049 17.7356 15.283L17.7793 15.1519L18.1137 14.3415C18.2019 14.1277 18.361 13.9522 18.5624 13.8433L18.6665 13.7945L19.5876 13.4243L20.0578 13.2271L20.1871 13.1709L20.5 13.0278V11.8987L20.1863 11.7648L19.7615 11.5967L18.6891 11.1975C18.4623 11.115 18.2744 10.9538 18.158 10.7454L18.1059 10.6374L17.7715 9.82263C17.6862 9.61475 17.6738 9.3855 17.7341 9.17166L17.779 9.0455L18.0895 8.31961C18.1703 8.12765 18.2406 7.95742 18.3014 7.80696L18.4103 7.53183L18.529 7.21032L17.7384 6.42293L17.5029 6.51609C17.3727 6.56919 17.2235 6.63221 17.0542 6.7058L16.8782 6.78294L15.9554 7.20151C15.7454 7.29771 15.5101 7.31772 15.2891 7.26074L15.1586 7.21731L14.3352 6.87885C14.1196 6.79025 13.943 6.6297 13.834 6.4264L13.7853 6.32132L13.4942 5.59293L13.2832 5.08263L13.1663 4.81124L13.023 4.49811ZM12.5005 8.49811C14.7066 8.49811 16.5 10.2911 16.5 12.4972C16.5 14.7035 14.7065 16.4981 12.5005 16.4981C10.2938 16.4981 8.5 14.7038 8.5 12.4972C8.5 10.2908 10.2937 8.49811 12.5005 8.49811ZM12.5005 10.4981C11.398 10.4981 10.5 11.3956 10.5 12.4972C10.5 13.5994 11.3985 14.4981 12.5005 14.4981C13.6016 14.4981 14.5 13.5992 14.5 12.4972C14.5 11.3958 13.6021 10.4981 12.5005 10.4981Z" fill="#353F50"/>
</svg>
