<svg width="24" height="25" viewBox="0 0 24 25" fill="none" xmlns="http://www.w3.org/2000/svg">
<path fill-rule="evenodd" clip-rule="evenodd" d="M12 16.5C13.3063 16.5 14.4175 17.3349 14.8293 18.5001L21 18.5C21.5523 18.5 22 18.9477 22 19.5C22 20.0523 21.5523 20.5 21 20.5L14.829 20.5009C14.4169 21.6656 13.3059 22.5 12 22.5C10.6941 22.5 9.58312 21.6656 9.17102 20.5009L3 20.5C2.44772 20.5 2 20.0523 2 19.5C2 18.9477 2.44772 18.5 3 18.5L9.17067 18.5001C9.58249 17.3349 10.6937 16.5 12 16.5ZM12 18.5C11.4477 18.5 11 18.9477 11 19.5C11 20.0523 11.4477 20.5 12 20.5C12.5523 20.5 13 20.0523 13 19.5C13 18.9477 12.5523 18.5 12 18.5ZM19 9.5C20.6569 9.5 22 10.8431 22 12.5C22 14.1569 20.6569 15.5 19 15.5C17.6941 15.5 16.5831 14.6656 16.171 13.5009L3 13.5C2.44772 13.5 2 13.0523 2 12.5C2 11.9477 2.44772 11.5 3 11.5L16.1707 11.5001C16.5825 10.3349 17.6937 9.5 19 9.5ZM19 11.5C18.4477 11.5 18 11.9477 18 12.5C18 13.0523 18.4477 13.5 19 13.5C19.5523 13.5 20 13.0523 20 12.5C20 11.9477 19.5523 11.5 19 11.5ZM5 2.5C6.3118 2.5 7.42695 3.34196 7.83453 4.51495C7.88799 4.50469 7.94344 4.5 8 4.5H21C21.5523 4.5 22 4.94772 22 5.5C22 6.05228 21.5523 6.5 21 6.5H8C7.94344 6.5 7.88799 6.49531 7.83399 6.48628C7.42695 7.65804 6.3118 8.5 5 8.5C3.34315 8.5 2 7.15685 2 5.5C2 3.84315 3.34315 2.5 5 2.5ZM5 4.5C4.44772 4.5 4 4.94772 4 5.5C4 6.05228 4.44772 6.5 5 6.5C5.55228 6.5 6 6.05228 6 5.5C6 4.94772 5.55228 4.5 5 4.5Z" fill="#F8F8F7"/>
</svg>
