<svg width="49" height="49" viewBox="0 0 49 49" fill="none" xmlns="http://www.w3.org/2000/svg">
<path d="M6.5 10.5V38.5C6.5 39.5609 6.92143 40.5783 7.67157 41.3284C8.42172 42.0786 9.43913 42.5 10.5 42.5H38.5C39.5609 42.5 40.5783 42.0786 41.3284 41.3284C42.0786 40.5783 42.5 39.5609 42.5 38.5V10.5C42.5 9.43913 42.0786 8.42172 41.3284 7.67157C40.5783 6.92143 39.5609 6.5 38.5 6.5H10.5C9.43913 6.5 8.42172 6.92143 7.67157 7.67157C6.92143 8.42172 6.5 9.43913 6.5 10.5ZM20.5 14.5H36.5V18.5H20.5V14.5ZM20.5 22.5H36.5V26.5H20.5V22.5ZM20.5 30.5H36.5V34.5H20.5V30.5ZM12.5 14.5H16.5V18.5H12.5V14.5ZM12.5 22.5H16.5V26.5H12.5V22.5ZM12.5 30.5H16.5V34.5H12.5V30.5Z" fill="black"/>
</svg>
