<svg width="24" height="25" viewBox="0 0 24 25" fill="none" xmlns="http://www.w3.org/2000/svg">
<path fill-rule="evenodd" clip-rule="evenodd" d="M11.4434 19.9783L7.11528 22.3562C6.53065 22.6774 5.80756 22.4425 5.5002 21.8316C5.37781 21.5883 5.33558 21.3096 5.38004 21.0387L6.20664 16.0023C6.27317 15.5969 6.14455 15.1833 5.86269 14.8961L2.36116 11.3294C1.88819 10.8476 1.87851 10.0563 2.33954 9.56208C2.52313 9.36526 2.76368 9.23717 3.02396 9.19765L7.86296 8.46285C8.25249 8.4037 8.58922 8.14804 8.76342 7.77918L10.9275 3.19694C11.2198 2.57799 11.9369 2.32386 12.5292 2.62933C12.7651 2.75097 12.956 2.95047 13.0724 3.19694L15.2364 7.77918C15.4106 8.14804 15.7474 8.4037 16.1369 8.46285L20.9759 9.19765C21.6295 9.2969 22.0824 9.93109 21.9874 10.6141C21.9496 10.8861 21.827 11.1375 21.6387 11.3294L18.1372 14.8961C17.8553 15.1833 17.7267 15.5969 17.7932 16.0023L18.6198 21.0387C18.7315 21.719 18.2942 22.3651 17.6433 22.4818C17.384 22.5282 17.1174 22.4841 16.8846 22.3562L12.5564 19.9783C12.208 19.7869 11.7918 19.7869 11.4434 19.9783ZM10.4804 18.2255C11.4285 17.7046 12.5713 17.7046 13.5195 18.2255L16.3902 19.8026L15.8196 16.3263C15.6504 15.2955 15.9786 14.24 16.7099 13.495L19.2066 10.9519L15.8366 10.4402C14.7817 10.28 13.8836 9.59812 13.428 8.63327L11.9999 5.6095L10.5719 8.63327C10.1162 9.59812 9.21811 10.28 8.16321 10.4402L4.79328 10.9519L7.2899 13.495C8.02125 14.24 8.34941 15.2955 8.18023 16.3263L7.60967 19.8026L10.4804 18.2255Z" fill="#9DA9B3"/>
</svg>
