<svg width="129" height="128" viewBox="0 0 129 128" fill="none" xmlns="http://www.w3.org/2000/svg">
<circle opacity="0.1" cx="64.5" cy="64" r="63.5" stroke="#2AD062"/>
<circle opacity="0.25" cx="64.5005" cy="64.0002" r="53.9478" stroke="#2AD062"/>
<circle opacity="0.5" cx="64.501" cy="64.0007" r="44.3955" stroke="#2AD062"/>
<path d="M63.5448 32.9548C46.4267 32.9548 32.5 46.8815 32.5 63.9996C32.5 81.1177 46.4267 95.0444 63.5448 95.0444C80.6629 95.0444 94.5896 81.1177 94.5896 63.9996C94.5896 46.8815 80.6629 32.9548 63.5448 32.9548ZM63.5448 88.8354C49.8509 88.8354 38.709 77.6935 38.709 63.9996C38.709 50.3058 49.8509 39.1638 63.5448 39.1638C77.2386 39.1638 88.3806 50.3058 88.3806 63.9996C88.3806 77.6935 77.2386 88.8354 63.5448 88.8354Z" fill="#2AD062"/>
<path d="M57.3332 68.9266L50.196 61.8018L45.8125 66.1977L57.3394 77.6998L78.1581 56.8812L73.7683 52.4915L57.3332 68.9266Z" fill="#2AD062"/>
</svg>
