<svg width="80" height="80" viewBox="0 0 80 80" fill="none" xmlns="http://www.w3.org/2000/svg">
<path fill-rule="evenodd" clip-rule="evenodd" d="M40.0013 6.66675C58.4108 6.66675 73.3346 21.5906 73.3346 40.0001C73.3346 58.4096 58.4108 73.3334 40.0013 73.3334C21.5918 73.3334 6.66797 58.4096 6.66797 40.0001C6.66797 21.5906 21.5918 6.66675 40.0013 6.66675ZM40.0013 13.3334C25.2737 13.3334 13.3346 25.2725 13.3346 40.0001C13.3346 54.7277 25.2737 66.6667 40.0013 66.6667C54.7289 66.6667 66.668 54.7277 66.668 40.0001C66.668 25.2725 54.7289 13.3334 40.0013 13.3334ZM50.9776 27.6431L33.3346 45.286L29.025 40.9764C27.7232 39.6746 25.6127 39.6746 24.3109 40.9764C23.0092 42.2781 23.0092 44.3887 24.3109 45.6904L30.9776 52.3571C32.2794 53.6589 34.3899 53.6589 35.6917 52.3571L55.6917 32.3571C56.9934 31.0554 56.9934 28.9448 55.6917 27.6431C54.3899 26.3413 52.2794 26.3413 50.9776 27.6431Z" fill="#F8F8F7"/>
</svg>
