<svg width="24" height="25" viewBox="0 0 24 25" fill="none" xmlns="http://www.w3.org/2000/svg">
<path fill-rule="evenodd" clip-rule="evenodd" d="M19 2.5C20.6569 2.5 22 3.84315 22 5.5V19.5C22 21.1569 20.6569 22.5 19 22.5H5C3.34315 22.5 2 21.1569 2 19.5V5.5C2 3.84315 3.34315 2.5 5 2.5H19ZM19 4.5H5C4.44772 4.5 4 4.94772 4 5.5V19.5C4 20.0523 4.44772 20.5 5 20.5H19C19.5523 20.5 20 20.0523 20 19.5V5.5C20 4.94772 19.5523 4.5 19 4.5ZM8 14.5C8.55228 14.5 9 14.9477 9 15.5V17.5C9 18.0523 8.55228 18.5 8 18.5C7.44772 18.5 7 18.0523 7 17.5V15.5C7 14.9477 7.44772 14.5 8 14.5ZM12 6.5C12.5523 6.5 13 6.94772 13 7.5V17.5C13 18.0523 12.5523 18.5 12 18.5C11.4477 18.5 11 18.0523 11 17.5V7.5C11 6.94772 11.4477 6.5 12 6.5ZM16 10.5C16.5523 10.5 17 10.9477 17 11.5V17.5C17 18.0523 16.5523 18.5 16 18.5C15.4477 18.5 15 18.0523 15 17.5V11.5C15 10.9477 15.4477 10.5 16 10.5Z" fill="#9DA9B3"/>
</svg>
