<svg width="76" height="77" viewBox="0 0 76 77" fill="none" xmlns="http://www.w3.org/2000/svg">
<rect y="0.5" width="76" height="76" rx="38" fill="#144A22"/>
<path d="M53.266 30.4931C53.292 30.8431 53.292 31.1911 53.292 31.5391C53.292 42.1891 45.186 54.4611 30.372 54.4611C25.808 54.4611 21.568 53.1391 18 50.8431C18.648 50.9171 19.272 50.9431 19.946 50.9431C23.572 50.9519 27.0953 49.7394 29.948 47.5011C28.2668 47.4707 26.6372 46.916 25.2865 45.9146C23.9358 44.9131 22.9316 43.5149 22.414 41.9151C22.912 41.9891 23.412 42.0391 23.936 42.0391C24.658 42.0391 25.384 41.9391 26.058 41.7651C24.2335 41.3967 22.5929 40.4078 21.4152 38.9665C20.2375 37.5252 19.5954 35.7204 19.598 33.8591V33.7591C20.672 34.3571 21.918 34.7311 23.238 34.7811C22.1322 34.0463 21.2254 33.0492 20.5987 31.8787C19.9719 30.7082 19.6446 29.4008 19.646 28.0731C19.646 26.5771 20.044 25.2051 20.742 24.0091C22.7663 26.4992 25.291 28.5362 28.1527 29.9884C31.0143 31.4406 34.1491 32.2755 37.354 32.4391C37.23 31.8391 37.154 31.2171 37.154 30.5931C37.1535 29.535 37.3615 28.4872 37.7662 27.5096C38.1708 26.532 38.7642 25.6437 39.5124 24.8955C40.2605 24.1473 41.1488 23.5539 42.1265 23.1493C43.1041 22.7446 44.1519 22.5366 45.21 22.5371C47.53 22.5371 49.624 23.5091 51.096 25.0811C52.8995 24.7323 54.6291 24.074 56.208 23.1351C55.6068 24.9967 54.3475 26.5753 52.666 27.5751C54.2656 27.3927 55.8289 26.972 57.304 26.3271C56.2023 27.9333 54.837 29.3418 53.266 30.4931Z" fill="#F8F8F7"/>
</svg>
