<svg width="143" height="108" viewBox="0 0 143 108" fill="none" xmlns="http://www.w3.org/2000/svg">
<path opacity="0.18" d="M19.5335 63.5115C19.5335 62.9733 11.2395 46.402 27.8275 35.3948C44.4155 24.3877 55.7411 25.154 67.274 32.7214C78.807 40.2889 151.222 27.8203 122.097 85.8538L101.48 88.0816L45.9563 86.613L19.5335 63.5115Z" fill="#E6E6E6"/>
<path opacity="0.58" d="M119.956 80.1077C119.956 80.1077 115.473 78.8958 114.461 74.7289C114.461 74.7289 121.421 73.3031 121.647 80.4642L119.956 80.1077Z" fill="#68E1FD"/>
<path opacity="0.73" d="M120.506 79.6559C120.506 79.6559 117.346 74.7191 120.088 70.0781C120.088 70.0781 125.397 73.4109 123.073 79.6559H120.506Z" fill="#68E1FD"/>
<path d="M121.314 79.6552C121.314 79.6552 122.952 74.4189 127.964 73.4102C127.964 73.4102 128.918 76.8 124.746 79.6552H121.314Z" fill="#68E1FD"/>
<path d="M118.054 79.5527L118.99 85.7621H124.732L125.55 79.5527H118.054Z" fill="#24285B"/>
<path d="M103.935 85.7612L108.343 70.8652H86.9328L83.8261 83.0201L76.0684 83.4336V85.7612H103.935Z" fill="#C9C9C9"/>
<path d="M131.56 85.7617H14.3965V90.4027H131.56V85.7617Z" fill="#E6E6E6"/>
<path opacity="0.4" d="M131.56 90.4062H14.3965V94.5624H131.56V90.4062Z" fill="#A5A5A5"/>
<path d="M33.6475 60.2507C33.6475 60.2507 42.0916 54.191 51.9443 55.4493C61.797 56.7076 65.5794 59.1706 66.2765 70.716C66.9736 82.2614 61.5253 94.5589 61.5253 94.5589L45.3735 94.4128L33.6475 60.2507Z" fill="#68E1FD"/>
<path opacity="0.08" d="M39.7464 57.125C39.7464 57.125 47.9117 61.3774 48.7483 72.3311C49.5848 83.2848 51.0649 91.1445 62.8659 91.0875L61.5253 94.5593L45.3735 94.4132L33.6475 60.2511C33.6475 60.2511 37.369 57.9128 39.7464 57.125Z" fill="black"/>
<path d="M12.6804 94.4115H45.3702C45.3702 94.4115 46.1246 75.9902 40.2973 65.4108C34.4701 54.8314 -2.73853 55.9292 12.6804 94.4115Z" fill="#24285B"/>
<path d="M42.2317 50.7467L44.2408 55.8011L39.747 57.1236L38.5029 49.5918L42.2317 50.7467Z" fill="#F4A28C"/>
<path d="M36.7294 45.6752C37.5624 43.5864 40.333 43.1337 41.8881 44.7591C43.597 46.5413 45.6633 49.3929 43.3753 50.9613C39.8718 53.3816 36.5828 48.9581 36.5828 48.9581C36.3063 47.8732 36.3573 46.7312 36.7294 45.6752Z" fill="#F4A28C"/>
<path d="M38.0167 48.7865C38.0167 48.7865 36.8906 48.4301 36.9442 49.5814C36.9979 50.7327 38.6531 50.5901 38.8855 49.9093C39.1178 49.2285 38.0167 48.7865 38.0167 48.7865Z" fill="#F4A28C"/>
<path d="M52.2665 64.7813C51.455 59.8872 56.9891 56.4332 61.0575 59.2884C63.6708 61.1241 66.1554 63.9828 67.4925 68.442C71.1962 80.7074 77.8314 88.0467 94.8484 83.8798L95.8672 88.257C95.8672 88.257 58.2725 100.95 52.2665 64.7813Z" fill="#F4A28C"/>
<path d="M35.907 47.7326C35.907 47.7326 36.8079 51.6927 38.8992 51.6856C40.9906 51.6785 40.8262 50.3418 40.3972 47.7326C39.9682 45.1234 43.0748 45.8969 42.6566 42.917C42.2383 39.9371 42.0381 40.0654 39.3032 40.24C36.5683 40.4147 33.1006 42.7209 35.907 47.7326Z" fill="#FFD200"/>
<path d="M96.0928 83.3154C96.0928 83.3154 98.1198 82.1498 99.8966 82.6025C101.673 83.0552 101.902 85.6002 100.215 86.4272L96.8364 88.0811L96.0928 83.3154Z" fill="#F4A28C"/>
<path d="M122.308 18.3027H71.7861V56.8492H122.308V18.3027Z" fill="#24285B"/>
<path d="M98.9741 22.0098L102.127 28.932L98.0231 31.9654L97.208 25.4531L98.9741 22.0098Z" fill="#F4A28C"/>
<path opacity="0.31" d="M97.2402 25.6389C97.2402 25.6389 99.8178 25.2397 100.147 24.4805C100.147 24.4805 102.313 28.3765 97.6442 28.7579L97.2402 25.6389Z" fill="#CE8172"/>
<path d="M95.5204 34.3109C95.5204 34.3109 74.6532 51.8981 66.949 30.9531L63.374 33.0918C63.374 33.0918 65.8765 59.6009 97.2364 47.5672L95.5204 34.3109Z" fill="#68E1FD"/>
<path opacity="0.2" d="M95.5204 34.3109C95.5204 34.3109 74.6532 51.8981 66.949 30.9531L63.374 33.0918C63.374 33.0918 65.8765 59.6009 97.2364 47.5672L95.5204 34.3109Z" fill="white"/>
<path d="M98.0231 31.9666C98.0231 31.9666 90.0187 37.873 92.5462 44.6598C95.0737 51.4466 100.815 56.8503 100.815 56.8503H122.315C122.315 56.8503 122.083 51.5571 121.457 45.7683C120.556 37.4381 117.525 27.7855 102.134 28.9332L98.0231 31.9666Z" fill="#68E1FD"/>
<path opacity="0.08" d="M109.889 34.3105C109.889 34.3105 107.029 37.1871 108.212 40.8336C109.395 44.48 113.349 56.0825 104.512 54.9846L111.637 55.8436L119.08 54.9846L122.358 47.2568L116.574 39.1155L109.889 34.3105Z" fill="black"/>
<path d="M78.9463 23.4902V34.0233L89.632 28.2987L78.9463 23.4902Z" fill="white"/>
<path d="M92.053 56.8507L88.7461 44.0078H107.207L108.995 54.4874L116.574 54.8439V56.8507H92.053Z" fill="#FFD200"/>
<path d="M89.1181 72.8965L86.4297 82.4992H101.838L104.466 72.8965H89.1181Z" fill="white"/>
<path d="M99.3315 51.892C100.196 51.892 100.897 51.193 100.897 50.3308C100.897 49.4685 100.196 48.7695 99.3315 48.7695C98.4667 48.7695 97.7656 49.4685 97.7656 50.3308C97.7656 51.193 98.4667 51.892 99.3315 51.892Z" fill="white"/>
<path d="M63.9928 32.7287C63.9928 32.7287 61.0077 29.8166 62.4413 27.5032C63.8748 25.1898 67.3032 25.5534 66.9457 30.9536L63.9928 32.7287Z" fill="#F4A28C"/>
<path d="M115.183 31.6302C117.91 32.8279 120.76 34.8846 122.358 38.4241L122.308 56.8668H118.604L117.045 53.6944C117.045 53.6944 118.954 46.0165 112.927 40.1244C112.063 39.2873 111.268 38.3826 110.55 37.419C108.237 34.2501 111.601 30.0405 115.183 31.6302Z" fill="#68E1FD"/>
<path opacity="0.2" d="M115.183 31.6302C117.91 32.8279 120.76 34.8846 122.358 38.4241L122.308 56.8668H118.604L117.045 53.6944C117.045 53.6944 118.954 46.0165 112.927 40.1244C112.063 39.2873 111.268 38.3826 110.55 37.419C108.237 34.2501 111.601 30.0405 115.183 31.6302Z" fill="white"/>
<path d="M100.125 22.5834C100.089 23.215 100.089 23.8481 100.125 24.4797C100.19 25.3495 100.047 26.6612 98.6952 27.0569C96.6288 27.67 95.7136 24.4049 95.7136 24.4049C95.7136 24.4049 94.0548 21.4285 96.2928 20.7584C98.3305 20.156 100.24 19.6748 100.125 22.5834Z" fill="#F4A28C"/>
<path d="M94.4874 19.7C94.0105 19.9409 93.639 20.3481 93.4435 20.8442C93.3322 21.0884 93.2946 21.3597 93.3352 21.6249C93.3759 21.89 93.493 22.1377 93.6723 22.3377C94.6196 23.3251 95.735 24.4051 95.735 24.4051C95.735 24.4051 94.877 22.7191 96.3893 22.7191C97.9015 22.7191 99.1992 23.7207 100.125 22.5801C101.051 21.4395 101.652 20.7979 101.233 19.7285C100.815 18.6592 100.876 17.2547 99.235 17.8678C97.594 18.4809 98.2304 17.2191 97.2973 16.4064C96.3642 15.5937 94.8556 15.7149 94.9879 16.8555C95.0951 17.8465 95.4276 19.1831 94.4874 19.7Z" fill="#FFD200"/>
<path d="M95.8815 24.5276C95.8815 24.5276 95.6527 23.5295 94.7768 23.665C93.9009 23.8004 94.4444 25.6504 95.8815 24.5276Z" fill="#F4A28C"/>
<path d="M99.8173 24.5377C99.8173 24.5377 99.4026 23.6038 100.175 23.1903C100.947 22.7769 101.644 24.5876 99.8173 24.5377Z" fill="#F4A28C"/>
<path d="M56.3276 77.0426L68.4254 71.2182C68.4254 71.2182 66.8953 57.9975 56.3276 57.1242C45.7599 56.2509 52.5524 73.3034 56.3276 77.0426Z" fill="#68E1FD"/>
<path opacity="0.2" d="M56.3276 77.0426L68.4254 71.2182C68.4254 71.2182 66.8953 57.9975 56.3276 57.1242C45.7599 56.2509 52.5524 73.3034 56.3276 77.0426Z" fill="white"/>
<path d="M93.2821 75.4883L92.2061 79.534L98.2979 77.5129L93.2821 75.4883Z" fill="#A5A5A5"/>
<path d="M118.605 56.8488C118.607 55.9307 118.268 55.0444 117.652 54.3615C117.036 53.6786 116.189 53.2478 115.273 53.1525C114.2 53.0455 113.246 53.2059 112.992 54.0365C112.363 56.0932 116.567 56.8488 116.567 56.8488H118.605Z" fill="#F4A28C"/>
<path opacity="0.31" d="M39.7466 57.1247L41.5735 56.59L40.3258 51.2361C40.3258 51.2361 37.8805 50.3842 37.9127 47.169C37.9127 47.169 34.8703 44.5598 38.3238 40.3965C38.3238 40.3965 35.2386 40.9454 34.8775 44.0537C34.8613 45.355 35.2185 46.6338 35.9071 47.7393C35.9071 47.7393 36.8151 51.6995 38.8994 51.6924L39.7466 57.1247Z" fill="#CE8172"/>
<path d="M95.982 83.1425L92.8545 83.9258L94.1975 89.2566L97.325 88.4734L95.982 83.1425Z" fill="#24285B"/>
<path d="M95.0846 88.249C96.2159 88.249 97.1331 87.3345 97.1331 86.2065C97.1331 85.0785 96.2159 84.1641 95.0846 84.1641C93.9533 84.1641 93.0361 85.0785 93.0361 86.2065C93.0361 87.3345 93.9533 88.249 95.0846 88.249Z" fill="#FFD200"/>
<path opacity="0.31" d="M60.7397 74.918C60.7397 74.918 66.8422 93.2288 93.6869 87.2582L94.073 88.7874C94.073 88.7874 67.164 97.0784 56.3281 77.0424L60.7397 74.918Z" fill="#CE8172"/>
<path opacity="0.08" d="M60.7388 74.9182L56.3273 77.0569C56.3273 77.0569 47.1395 64.2817 52.1874 58.2363C52.1946 58.2221 54.1858 69.771 60.7388 74.9182Z" fill="black"/>
<path d="M101.691 27.9734C101.691 27.9734 97.376 29.4919 97.208 32.6394C97.208 32.6394 101.648 32.372 103.743 28.8503C103.538 28.5064 103.229 28.2361 102.86 28.0785C102.492 27.9209 102.082 27.8842 101.691 27.9734Z" fill="white"/>
</svg>
