<svg width="80" height="80" viewBox="0 0 80 80" fill="none" xmlns="http://www.w3.org/2000/svg">
<path fill-rule="evenodd" clip-rule="evenodd" d="M16.668 6.66663H23.3346C25.1756 6.66663 26.668 8.15901 26.668 9.99996C26.668 11.7094 25.3812 13.1183 23.7234 13.3109L23.3346 13.3333H16.668C14.9585 13.3333 13.5496 14.6201 13.3571 16.2779L13.3346 16.6666V63.3333C13.3346 65.0427 14.6214 66.4517 16.2792 66.6442L16.668 66.6666H63.3346C65.0441 66.6666 66.453 65.3798 66.6455 63.722L66.668 63.3333V56.6666C66.668 54.8257 68.1604 53.3333 70.0013 53.3333C71.7108 53.3333 73.1197 54.6201 73.3122 56.2779L73.3346 56.6666V63.3333C73.3346 68.6589 69.1716 73.0122 63.9222 73.3163L63.3346 73.3333H16.668C11.3424 73.3333 6.9891 69.1702 6.68494 63.9209L6.66797 63.3333V16.6666C6.66797 11.341 10.831 6.98776 16.0804 6.6836L16.668 6.66663H23.3346H16.668ZM70.0013 6.66663L70.2713 6.67663L70.6704 6.73409L71.0418 6.83242L71.412 6.97887L71.737 7.15328L72.0571 7.37591L72.3583 7.64294L72.6802 8.0156L72.9191 8.38642L73.0225 8.58963L73.135 8.86112L73.2152 9.11332L73.3116 9.60631L73.3346 9.99996V30C73.3346 31.8409 71.8423 33.3333 70.0013 33.3333C68.1604 33.3333 66.668 31.8409 66.668 30V18.0466L45.6917 39.0236C44.49 40.2253 42.5993 40.3177 41.2916 39.3009L40.9776 39.0236C39.776 37.822 39.6836 35.9313 40.7003 34.6236L40.9776 34.3096L61.948 13.3333H50.0013C48.1604 13.3333 46.668 11.8409 46.668 9.99996C46.668 8.15901 48.1604 6.66663 50.0013 6.66663H70.0013Z" fill="#F8F8F7"/>
</svg>
